<svg xmlns="http://www.w3.org/2000/svg" viewBox="0 0 786 786"><defs><style>.cls-1{fill:#2563eb;}.cls-2{fill:#fff;}</style></defs><title>logo</title><g id="Calque_2" data-name="Calque 2"><rect class="cls-1" width="786" height="786" rx="227.5"/></g><g id="Calque_1" data-name="Calque 1"><path class="cls-2" d="M400.71,121l-92.38,99.41a13.81,13.81,0,0,0,0,18.53l92.38,99.41a11.57,11.57,0,0,0,17.22,0l92.39-99.41a13.83,13.83,0,0,0,0-18.53L417.93,121A11.57,11.57,0,0,0,400.71,121Z" transform="translate(-9 -6)"/><path class="cls-2" d="M400.71,461.69,308.33,561.1a13.81,13.81,0,0,0,0,18.53L400.71,679a11.57,11.57,0,0,0,17.22,0l92.39-99.41a13.83,13.83,0,0,0,0-18.53l-92.39-99.41A11.57,11.57,0,0,0,400.71,461.69Z" transform="translate(-9 -6)"/><path class="cls-2" d="M150,390.73l92.39-99.41a11.57,11.57,0,0,1,17.22,0L352,390.73a13.82,13.82,0,0,1,0,18.54l-92.38,99.41a11.57,11.57,0,0,1-17.22,0L150,409.27A13.84,13.84,0,0,1,150,390.73Z" transform="translate(-9 -6)"/><path class="cls-2" d="M559,291.32l-92.38,99.41a13.82,13.82,0,0,0,0,18.54L559,508.68a11.57,11.57,0,0,0,17.22,0l92.39-99.41a13.84,13.84,0,0,0,0-18.54l-92.39-99.41A11.57,11.57,0,0,0,559,291.32Z" transform="translate(-9 -6)"/></g></svg>