<?xml version="1.0" encoding="UTF-8"?><svg id="a" xmlns="http://www.w3.org/2000/svg" viewBox="0 0 200 200"><defs><style>.c{fill:#008ec7;}.d{fill:#ffd145;}.e{fill:#3a7cb2;}</style></defs><g><path class="e" d="m79.69,57.68c0-2.7,2.18-4.9,4.88-4.91,2.7,0,4.9,2.18,4.91,4.88s-2.18,4.9-4.88,4.91c0,0,0,0-.01,0-2.7,0-4.89-2.18-4.9-4.88m-6.83-1.15v12.8h27.2v3.85h-37.97s-18.2-2.07-18.2,26.69,15.91,27.73,15.91,27.73h9.47v-13.35s-.51-15.91,15.66-15.91h26.97s15.17.24,15.17-14.65v-24.61s2.29-14.89-27.49-14.89-26.69,12.36-26.69,12.36"/><path class="d" d="m110.49,142.33c0-2.7,2.19-4.9,4.9-4.9s4.9,2.19,4.9,4.9-2.19,4.9-4.9,4.9c-2.7,0-4.89-2.18-4.9-4.88,0,0,0,0,0-.01m29.73-69.92h-9.52v13.35s.51,15.91-15.66,15.91h-26.96s-15.17-.24-15.17,14.65v24.62s-2.29,14.88,27.49,14.88,26.69-12.35,26.69-12.35l-.04-12.8h-27.17v-3.85h37.99s18.23,2.07,18.23-26.69c0-26.85-13.87-27.74-15.71-27.74h-.19"/></g><path class="c" d="m100,10.5c49.35,0,89.5,40.15,89.5,89.5s-40.15,89.5-89.5,89.5S10.5,149.35,10.5,100,50.65,10.5,100,10.5m0-8C46.15,2.5,2.5,46.15,2.5,100s43.65,97.5,97.5,97.5,97.5-43.65,97.5-97.5S153.85,2.5,100,2.5h0Z"/></svg>