<?xml version="1.0" encoding="UTF-8" standalone="no"?>
<!-- Generator: Adobe Illustrator 23.0.3, SVG Export Plug-In . SVG Version: 6.00 Build 0)  -->

<svg
   version="1.1"
   id="Calque_1"
   x="0px"
   y="0px"
   viewBox="0 0 899 639"
   xml:space="preserve"
   sodipodi:docname="tools.svg"
   width="899"
   height="639"
   inkscape:version="1.3.2 (091e20e, 2023-11-25, custom)"
   inkscape:export-filename="tools.png"
   inkscape:export-xdpi="96"
   inkscape:export-ydpi="96"
   xmlns:inkscape="http://www.inkscape.org/namespaces/inkscape"
   xmlns:sodipodi="http://sodipodi.sourceforge.net/DTD/sodipodi-0.dtd"
   xmlns:xlink="http://www.w3.org/1999/xlink"
   xmlns="http://www.w3.org/2000/svg"
   xmlns:svg="http://www.w3.org/2000/svg"><defs
   id="defs95" /><sodipodi:namedview
   id="namedview95"
   pagecolor="#ffffff"
   bordercolor="#000000"
   borderopacity="0.25"
   inkscape:showpageshadow="2"
   inkscape:pageopacity="0.0"
   inkscape:pagecheckerboard="0"
   inkscape:deskcolor="#d1d1d1"
   inkscape:zoom="0.76243739"
   inkscape:cx="-17.706372"
   inkscape:cy="156.73418"
   inkscape:window-width="1920"
   inkscape:window-height="1009"
   inkscape:window-x="1912"
   inkscape:window-y="-8"
   inkscape:window-maximized="1"
   inkscape:current-layer="Calque_1" />
<style
   type="text/css"
   id="style1">
	.st0{fill:#FFFFFF;}
	.st1{fill:#A362FF;}
	.st2{fill:none;stroke:url(#SVGID_1_);}
	.st3{fill:none;stroke:url(#SVGID_2_);}
	.st4{fill:none;stroke:url(#SVGID_3_);}
	.st5{fill:none;stroke:url(#SVGID_4_);}
	.st6{fill:none;stroke:url(#SVGID_5_);}
	.st7{fill:none;stroke:url(#SVGID_6_);}
	.st8{fill:url(#SVGID_7_);}
	.st9{fill:#251C31;}
	.st10{fill:none;}
	.st11{fill:url(#SVGID_8_);}
	.st12{fill-rule:evenodd;clip-rule:evenodd;fill:#FFFFFF;}
	.st13{fill:none;stroke:#FFFFFF;stroke-width:8;}
	.st14{fill:none;stroke:url(#SVGID_9_);}
	.st15{fill:none;stroke:url(#SVGID_10_);}
	.st16{fill:none;stroke:url(#SVGID_11_);}
	.st17{fill:none;stroke:url(#SVGID_12_);}
	.st18{fill:none;stroke:url(#SVGID_13_);}
	.st19{fill:url(#SVGID_14_);}
	.st20{fill:url(#SVGID_15_);}
	.st21{fill:url(#SVGID_16_);}
	.st22{fill:url(#SVGID_17_);}
	.st23{fill-rule:evenodd;clip-rule:evenodd;fill:url(#SVGID_18_);}
	.st24{fill:url(#SVGID_19_);}
	.st25{fill:url(#SVGID_20_);}
	.st26{fill:url(#SVGID_21_);}
	.st27{fill:url(#SVGID_22_);}
	.st28{fill:url(#SVGID_23_);}
	.st29{fill-rule:evenodd;clip-rule:evenodd;fill:url(#SVGID_24_);}
	.st30{fill:url(#SVGID_25_);}
	.st31{fill-rule:evenodd;clip-rule:evenodd;fill:url(#SVGID_26_);}
	.st32{fill:url(#SVGID_27_);}
	.st33{fill-rule:evenodd;clip-rule:evenodd;fill:url(#SVGID_28_);}
	.st34{fill:url(#SVGID_29_);}
</style>


<linearGradient
   id="SVGID_1_"
   gradientUnits="userSpaceOnUse"
   x1="522.72021"
   y1="-1225.5"
   x2="522.72021"
   y2="-948"
   gradientTransform="translate(1.8548585,1317.1119)">
	<stop
   offset="0"
   style="stop-color:#3D1768"
   id="stop2" />
	<stop
   offset="1"
   style="stop-color:#3D1768;stop-opacity:0"
   id="stop3" />
</linearGradient>
<path
   class="st2"
   d="m 585.85486,91.611931 c -43.7,47.499999 -129.2,169.499999 -122,277.499999"
   id="path3"
   style="stroke:url(#SVGID_1_)" />
<linearGradient
   id="SVGID_2_"
   gradientUnits="userSpaceOnUse"
   x1="487.18921"
   y1="-1208.5"
   x2="487.18921"
   y2="-938.5"
   gradientTransform="translate(1.8548585,1317.1119)">
	<stop
   offset="0"
   style="stop-color:#3D1768"
   id="stop4" />
	<stop
   offset="1"
   style="stop-color:#3D1768;stop-opacity:0"
   id="stop5" />
</linearGradient>
<path
   class="st3"
   d="m 524.35486,108.61193 c -43.7,47.5 -76.7,162 -69.5,270"
   id="path5"
   style="stroke:url(#SVGID_2_)" />
<linearGradient
   id="SVGID_3_"
   gradientUnits="userSpaceOnUse"
   x1="453.7402"
   y1="-1193"
   x2="453.7402"
   y2="-922"
   gradientTransform="translate(1.8548585,1317.1119)">
	<stop
   offset="0"
   style="stop-color:#3D1768"
   id="stop6" />
	<stop
   offset="1"
   style="stop-color:#3D1768;stop-opacity:0"
   id="stop7" />
</linearGradient>
<path
   class="st4"
   d="m 472.85486,107.11193 c -19,66 -34.5,237.5 -34.5,291.5"
   id="path7"
   style="stroke:url(#SVGID_3_)" />
<linearGradient
   id="SVGID_4_"
   gradientUnits="userSpaceOnUse"
   x1="362.54089"
   y1="-1191"
   x2="362.54089"
   y2="-915.5"
   gradientTransform="translate(1.8548585,1317.1119)">
	<stop
   offset="0"
   style="stop-color:#3D1768"
   id="stop8" />
	<stop
   offset="1"
   style="stop-color:#3D1768;stop-opacity:0"
   id="stop9" />
</linearGradient>
<path
   class="st5"
   d="m 305.35486,101.11193 c 43.7,47.5 124.7,192.5 117.5,300.5"
   id="path9"
   style="stroke:url(#SVGID_4_)" />
<linearGradient
   id="SVGID_5_"
   gradientUnits="userSpaceOnUse"
   x1="398.12161"
   y1="-1193"
   x2="398.12161"
   y2="-906"
   gradientTransform="translate(1.8548585,1317.1119)">
	<stop
   offset="0"
   style="stop-color:#3D1768"
   id="stop10" />
	<stop
   offset="1"
   style="stop-color:#3D1768;stop-opacity:0"
   id="stop11" />
</linearGradient>
<path
   class="st6"
   d="m 366.85486,101.11193 c 43.7,47.5 72.2,202 65,310"
   id="path11"
   style="stroke:url(#SVGID_5_)" />
<linearGradient
   id="SVGID_6_"
   gradientUnits="userSpaceOnUse"
   x1="424.50851"
   y1="-1187"
   x2="424.50851"
   y2="-890"
   gradientTransform="translate(1.8548585,1317.1119)">
	<stop
   offset="0"
   style="stop-color:#3D1768"
   id="stop12" />
	<stop
   offset="1"
   style="stop-color:#3D1768;stop-opacity:0"
   id="stop13" />
</linearGradient>
<path
   class="st7"
   d="m 415.85486,104.11193 c 19.3,72.3 21,253.8 21,313"
   id="path13"
   style="stroke:url(#SVGID_6_)" />
<radialGradient
   id="SVGID_7_"
   cx="1183.4667"
   cy="4.3985"
   r="1"
   gradientTransform="matrix(0,165,-271,0,1645.8549,-194773.89)"
   gradientUnits="userSpaceOnUse">
	<stop
   offset="0"
   style="stop-color:#763CAC"
   id="stop14" />
	<stop
   offset="1"
   style="stop-color:#320F85;stop-opacity:0"
   id="stop15" />
</radialGradient>
<ellipse
   class="st8"
   cx="453.85486"
   cy="498.11194"
   rx="271"
   ry="165"
   id="ellipse15"
   style="fill:url(#SVGID_7_)" />
<circle
   class="st9"
   cx="278.85486"
   cy="28.111931"
   r="22"
   id="circle15" />
<circle
   class="st9"
   cx="333.85486"
   cy="28.111931"
   r="22"
   id="circle16" />
<circle
   class="st9"
   cx="388.85486"
   cy="28.111931"
   r="22"
   id="circle17" />
<circle
   class="st9"
   cx="446.85486"
   cy="28.111931"
   r="22"
   id="circle18" />
<circle
   class="st9"
   cx="306.85486"
   cy="89.111931"
   r="22"
   id="circle19" />
<circle
   class="st9"
   cx="553.85486"
   cy="28.111931"
   r="22"
   id="circle20" />
<circle
   class="st9"
   cx="608.85486"
   cy="28.111931"
   r="22"
   id="circle21" />
<circle
   class="st9"
   cx="498.85486"
   cy="28.111931"
   r="22"
   id="circle22" />
<circle
   class="st9"
   cx="418.85486"
   cy="89.111931"
   r="22"
   id="circle23" />
<circle
   class="st9"
   cx="473.85486"
   cy="89.111931"
   r="22"
   id="circle24" />
<circle
   class="st9"
   cx="532.85486"
   cy="89.111931"
   r="22"
   id="circle25" />
<circle
   class="st9"
   cx="587.85486"
   cy="89.111931"
   r="22"
   id="circle26" />
<circle
   class="st9"
   cx="366.85486"
   cy="89.111931"
   r="22"
   id="circle27" />
<g
   id="g27"
   transform="translate(1.8548585,-90.888069)">
	<rect
   x="348"
   y="172"
   class="st10"
   width="33"
   height="15"
   id="rect27" />
</g>
<rect
   x="268.85486"
   y="14.111931"
   class="st10"
   width="21"
   height="28"
   id="rect28" />
<rect
   x="317.85486"
   y="14.111931"
   class="st10"
   width="32"
   height="28"
   id="rect29" />
<rect
   x="372.85486"
   y="13.111931"
   class="st10"
   width="32"
   height="31"
   id="rect30" />
<rect
   x="293.85486"
   y="77.111931"
   class="st10"
   width="26"
   height="25"
   id="rect31" />
<rect
   x="540.85486"
   y="16.111931"
   class="st10"
   width="26"
   height="25"
   id="rect32" />
<rect
   x="595.85486"
   y="16.111931"
   class="st10"
   width="26"
   height="25"
   id="rect33" />
<rect
   x="485.85486"
   y="14.111931"
   class="st10"
   width="26"
   height="25"
   id="rect34" />
<rect
   x="405.85486"
   y="76.111931"
   class="st10"
   width="26"
   height="26"
   id="rect35" />
<rect
   x="460.85486"
   y="77.111931"
   class="st10"
   width="26"
   height="25"
   id="rect36" />
<g
   id="g37"
   transform="translate(1.8548585,-90.888069)">
	<rect
   x="512"
   y="175"
   class="st10"
   width="39"
   height="11"
   id="rect37" />
</g>
<g
   id="g38"
   transform="translate(1.8548585,-90.888069)">
	<rect
   x="569"
   y="175"
   class="st10"
   width="37"
   height="9"
   id="rect38" />
</g>
<g
   id="g39"
   transform="translate(1.8548585,-90.888069)">
	<rect
   x="429"
   y="109"
   class="st10"
   width="32"
   height="21"
   id="rect39" />
</g>
<linearGradient
   id="SVGID_8_"
   gradientUnits="userSpaceOnUse"
   x1="440"
   y1="-960"
   x2="440"
   y2="-780"
   gradientTransform="translate(1.8548585,1317.1119)">
	<stop
   offset="0"
   style="stop-color:#301080;stop-opacity:0.6"
   id="stop39" />
	<stop
   offset="1"
   style="stop-color:#7840AD;stop-opacity:0.36"
   id="stop40" />
</linearGradient>
<circle
   class="st11"
   cx="441.85486"
   cy="447.11194"
   r="90"
   id="circle40"
   style="fill:url(#SVGID_8_)" />
<g
   id="g42"
   transform="matrix(0.98029217,0,0,1.0077138,9.2677162,-96.54121)">
	
	
	
<polygon
   class="cls-1"
   points="1133.82,2080.05 1133.82,1586.79 827.2,1893.41 827.2,2080.05 "
   id="polygon1"
   style="fill:#ffffff"
   transform="matrix(0.04834843,0,0,0.05060714,376.1377,477.81214)" /><polygon
   class="cls-1"
   points="1133.82,1016.25 1133.82,441.12 827.2,441.12 827.2,1660.45 0,2487.64 32.21,2519.85 2109.94,441.12 1694.95,441.12 "
   id="polygon2"
   style="fill:#ffffff"
   transform="matrix(0.04834843,0,0,0.05060714,376.1377,477.81214)" /><polygon
   class="cls-1"
   points="2752.99,32.21 2720.78,0 1223.93,1496.68 1696.06,2080.05 2104.2,2080.05 1469.34,1315.86 "
   id="polygon3"
   style="fill:#ffffff"
   transform="matrix(0.04834843,0,0,0.05060714,376.1377,477.81214)" /></g>
<linearGradient
   id="SVGID_9_"
   gradientUnits="userSpaceOnUse"
   x1="440.5"
   y1="-951.00012"
   x2="440.5"
   y2="-681.99988"
   gradientTransform="translate(1.8548585,1317.1119)">
	<stop
   offset="0"
   style="stop-color:#000000;stop-opacity:0"
   id="stop42" />
	<stop
   offset="0.4792"
   style="stop-color:#763CAC"
   id="stop43" />
</linearGradient>
<path
   class="st14"
   d="m 882.35486,500.61193 c 0,18.3 -12.2,35.9 -34.4,51.9 -22.2,16 -54.4,30.5 -94.3,42.7 -79.7,24.3 -189.7,39.4 -311.3,39.4 -121.6,0 -231.7,-15.1 -311.3,-39.4 -39.800001,-12.2 -72.000001,-26.6 -94.300001,-42.7 -22.2,-16.1 -34.4000005,-33.6 -34.4000005,-51.9 0,-18.3 12.2000005,-35.9 34.4000005,-51.9 22.2,-16 54.4,-30.5 94.300001,-42.7 79.7,-24.3 189.7,-39.4 311.3,-39.4 121.6,0 231.7,15.1 311.3,39.4 39.8,12.2 72,26.6 94.3,42.7 22.2,16 34.4,33.6 34.4,51.9 z"
   id="path43"
   style="stroke:url(#SVGID_9_)" />
<linearGradient
   id="SVGID_10_"
   gradientUnits="userSpaceOnUse"
   x1="445.10001"
   y1="-951.09998"
   x2="445.10001"
   y2="-681.90002"
   gradientTransform="translate(1.8548585,1317.1119)">
	<stop
   offset="0"
   style="stop-color:#000000;stop-opacity:0"
   id="stop44" />
	<stop
   offset="0.4792"
   style="stop-color:#763CAC"
   id="stop45" />
</linearGradient>
<path
   class="st15"
   d="m 828.35486,500.61193 c 0,18.4 -10.6,35.9 -29.8,52 -19.3,16 -47.2,30.5 -81.7,42.7 -69.1,24.3 -164.5,39.4 -269.9,39.4 -105.4,0 -200.9,-15 -269.9,-39.4 -34.5,-12.2 -62.4,-26.6 -81.700001,-42.7 -19.3,-16 -29.8,-33.6 -29.8,-52 0,-18.4 10.6,-35.9 29.8,-52 19.300001,-16 47.200001,-30.5 81.700001,-42.7 69.1,-24.3 164.5,-39.4 269.9,-39.4 105.4,0 200.9,15 269.9,39.4 34.5,12.2 62.4,26.6 81.7,42.7 19.2,16.1 29.8,33.6 29.8,52 z"
   id="path45"
   style="stroke:url(#SVGID_10_)" />
<linearGradient
   id="SVGID_11_"
   gradientUnits="userSpaceOnUse"
   x1="455.60001"
   y1="-951.09998"
   x2="455.60001"
   y2="-681.90002"
   gradientTransform="translate(1.8548585,1317.1119)">
	<stop
   offset="0"
   style="stop-color:#000000;stop-opacity:0"
   id="stop46" />
	<stop
   offset="0.4792"
   style="stop-color:#763CAC"
   id="stop47" />
</linearGradient>
<path
   class="st16"
   d="m 804.35486,500.61193 c 0,18.4 -9.6,36 -27.1,52 -17.5,16 -42.9,30.5 -74.3,42.7 -62.8,24.3 -149.6,39.4 -245.5,39.4 -95.9,0 -182.7,-15 -245.5,-39.4 -31.4,-12.2 -56.8,-26.6 -74.3,-42.7 -17.5,-16 -27.1,-33.6 -27.1,-52 0,-18.4 9.6,-36 27.1,-52 17.5,-16 42.9,-30.5 74.3,-42.7 62.8,-24.3 149.6,-39.4 245.5,-39.4 95.9,0 182.7,15 245.5,39.4 31.4,12.2 56.8,26.6 74.3,42.7 17.5,16 27.1,33.6 27.1,52 z"
   id="path47"
   style="stroke:url(#SVGID_11_)" />
<linearGradient
   id="SVGID_12_"
   gradientUnits="userSpaceOnUse"
   x1="445"
   y1="-1023"
   x2="445"
   y2="-748"
   gradientTransform="translate(1.8548585,1317.1119)">
	<stop
   offset="0.1979"
   style="stop-color:#000000;stop-opacity:0"
   id="stop48" />
	<stop
   offset="1"
   style="stop-color:#763CAC"
   id="stop49" />
</linearGradient>
<path
   class="st17"
   d="m 599.35486,431.61193 c 0,75.6 -68.2,137 -152.5,137 -84.3,0 -152.5,-61.4 -152.5,-137 0,-75.6 68.2,-137 152.5,-137 84.3,0 152.5,61.4 152.5,137 z"
   id="path49"
   style="stroke:url(#SVGID_12_)" />
<linearGradient
   id="SVGID_13_"
   gradientUnits="userSpaceOnUse"
   x1="444.5"
   y1="-932"
   x2="444.5"
   y2="-768"
   gradientTransform="translate(1.8548585,1317.1119)">
	<stop
   offset="0.1979"
   style="stop-color:#000000;stop-opacity:0"
   id="stop50" />
	<stop
   offset="1"
   style="stop-color:#763CAC"
   id="stop51" />
</linearGradient>
<path
   class="st18"
   d="m 593.35486,467.11193 c 0,22.4 -16.3,42.7 -42.9,57.5 -26.6,14.8 -63.4,24 -104.1,24 -40.7,0 -77.5,-9.2 -104.1,-24 -26.6,-14.8 -42.9,-35.2 -42.9,-57.5 0,-22.3 16.3,-42.7 42.9,-57.5 26.6,-14.8 63.4,-24 104.1,-24 40.7,0 77.5,9.2 104.1,24 26.6,14.8 42.9,35.1 42.9,57.5 z"
   id="path51"
   style="stroke:url(#SVGID_13_)" />
<linearGradient
   id="SVGID_14_"
   gradientUnits="userSpaceOnUse"
   x1="843.09998"
   y1="-872.70007"
   x2="843.09998"
   y2="-851.83209"
   gradientTransform="translate(1.8548585,1317.1119)">
	<stop
   offset="0"
   style="stop-color:#693B93;stop-opacity:0.53"
   id="stop52" />
	<stop
   offset="1"
   style="stop-color:#693B93"
   id="stop53" />
</linearGradient>
<path
   class="st19"
   d="m 854.95486,454.81193 c 0,-1.6 -1.7,-3 -4.2,-3.9 0.6,-3 0.3,-5.5 -0.8,-6.2 -0.3,-0.2 -0.6,-0.3 -0.9,-0.3 v 1.1 c 0.2,0 0.3,0 0.5,0.1 0.6,0.4 0.8,1.8 0.6,3.6 0,0.4 -0.1,0.9 -0.2,1.4 -0.9,-0.2 -1.7,-0.4 -2.6,-0.5 -0.5,-0.8 -1.1,-1.6 -1.7,-2.4 1.3,-1.4 2.6,-2.2 3.4,-2.2 v -1.1 c -1.1,0 -2.6,0.9 -4.1,2.6 -1.5,-1.6 -3,-2.5 -4.1,-2.5 v 1.1 c 0.8,0 2.1,0.8 3.4,2.2 -0.6,0.7 -1.1,1.5 -1.7,2.4 -0.9,0.1 -1.7,0.3 -2.6,0.5 -0.1,-0.5 -0.2,-0.9 -0.2,-1.4 -0.2,-1.8 0,-3.2 0.6,-3.6 0.1,-0.1 0.3,-0.1 0.5,-0.1 v -1.1 c -0.3,0 -0.7,0.1 -0.9,0.3 -1.2,0.8 -1.4,3.2 -0.8,6.2 -2.5,0.9 -4.2,2.4 -4.2,3.9 0,1.6 1.7,3 4.2,3.9 -0.6,3 -0.3,5.5 0.8,6.2 0.3,0.2 0.6,0.3 0.9,0.3 1.1,0 2.6,-0.9 4.1,-2.6 1.5,1.6 3,2.5 4.1,2.5 0.3,0 0.6,-0.1 0.9,-0.3 1.2,-0.8 1.4,-3.2 0.8,-6.2 2.5,-0.8 4.2,-2.3 4.2,-3.9 z m -5.3,-3.1 c -0.2,0.6 -0.3,1.3 -0.6,1.9 -0.3,-0.8 -0.7,-1.5 -1.1,-2.3 0.6,0.1 1.1,0.2 1.7,0.4 z m -1.9,5.1 c -0.3,0.6 -0.6,1.2 -1,1.8 -1.2,0.1 -2.5,0.1 -3.7,0 -0.7,-1.2 -1.3,-2.4 -1.8,-3.7 0.5,-1.3 1.1,-2.5 1.8,-3.7 1.2,-0.1 2.5,-0.1 3.7,0 0.3,0.6 0.7,1.2 1,1.8 0.3,0.6 0.6,1.3 0.9,1.9 -0.3,0.6 -0.6,1.2 -0.9,1.9 z m 1.3,-0.7 c 0.2,0.6 0.4,1.3 0.6,1.9 -0.5,0.2 -1.1,0.3 -1.7,0.4 0.4,-0.7 0.8,-1.5 1.1,-2.3 z m -4.1,5.1 c -0.4,-0.5 -0.8,-1 -1.1,-1.5 0.4,0 0.7,0 1.1,0 0.4,0 0.8,0 1.1,0 -0.4,0.6 -0.8,1.1 -1.1,1.5 z m -3.1,-2.8 c -0.6,-0.1 -1.1,-0.2 -1.7,-0.4 0.2,-0.6 0.3,-1.3 0.6,-1.9 0.2,0.4 0.3,0.8 0.5,1.1 0.2,0.5 0.4,0.8 0.6,1.2 z m 3,-9.9 c 0.4,0.5 0.8,1 1.1,1.5 -0.4,0 -0.7,0 -1.1,0 -0.4,0 -0.8,0 -1.1,0 0.4,-0.6 0.8,-1.1 1.1,-1.5 z m -3,2.8 c -0.4,0.7 -0.8,1.5 -1.1,2.3 -0.2,-0.6 -0.4,-1.3 -0.6,-1.9 0.6,-0.2 1.1,-0.3 1.7,-0.4 z m -3.7,6 c -1.5,-0.7 -2.4,-1.7 -2.4,-2.4 0,-0.8 0.9,-1.7 2.4,-2.4 0.4,-0.2 0.7,-0.3 1.1,-0.5 0.2,0.9 0.5,1.9 0.9,2.9 -0.4,0.9 -0.7,1.9 -0.9,2.9 -0.3,-0.2 -0.7,-0.4 -1.1,-0.5 z m 2.2,6.8 c -0.6,-0.4 -0.8,-1.8 -0.6,-3.6 0,-0.4 0.1,-0.9 0.2,-1.4 0.8,0.2 1.7,0.4 2.6,0.5 0.5,0.8 1.1,1.6 1.7,2.4 -1.3,1.4 -2.6,2.2 -3.4,2.2 -0.2,0 -0.4,0 -0.5,-0.1 z m 9.7,-3.6 c 0.2,1.8 0,3.2 -0.6,3.6 -0.1,0.1 -0.3,0.1 -0.5,0.1 -0.8,0 -2.1,-0.8 -3.4,-2.2 0.6,-0.7 1.2,-1.5 1.7,-2.4 0.9,-0.1 1.7,-0.3 2.6,-0.5 0.1,0.4 0.2,0.9 0.2,1.4 z m 1.6,-3.2 c -0.4,0.2 -0.7,0.3 -1.1,0.5 -0.3,-1 -0.6,-2 -0.9,-2.9 0.4,-1 0.7,-2 0.9,-2.9 0.4,0.1 0.8,0.3 1.2,0.5 1.4,0.7 2.4,1.7 2.4,2.4 -0.1,0.7 -1.1,1.6 -2.5,2.4 z"
   id="path53"
   style="fill:url(#SVGID_14_)" />
<linearGradient
   id="SVGID_15_"
   gradientUnits="userSpaceOnUse"
   x1="843"
   y1="-864.435"
   x2="843"
   y2="-860.06897"
   gradientTransform="translate(1.8548585,1317.1119)">
	<stop
   offset="0"
   style="stop-color:#693B93;stop-opacity:0.53"
   id="stop54" />
	<stop
   offset="1"
   style="stop-color:#693B93"
   id="stop55" />
</linearGradient>
<path
   class="st20"
   d="m 844.85486,457.01193 c 0.5,0 1,-0.2 1.3,-0.6 0.4,-0.4 0.5,-1 0.5,-1.5 0,-0.6 -0.2,-1.1 -0.5,-1.5 -0.4,-0.4 -0.8,-0.6 -1.3,-0.6 -0.5,0 -1,0.2 -1.3,0.6 -0.4,0.4 -0.5,1 -0.5,1.5 0,0.6 0.2,1.1 0.5,1.5 0.4,0.4 0.8,0.6 1.3,0.6 z"
   id="path55"
   style="fill:url(#SVGID_15_)" />
<linearGradient
   id="SVGID_16_"
   gradientUnits="userSpaceOnUse"
   x1="777.5"
   y1="-903"
   x2="777.5"
   y2="-887.83899"
   gradientTransform="translate(1.8548585,1317.1119)">
	<stop
   offset="0"
   style="stop-color:#693B93;stop-opacity:0.53"
   id="stop56" />
	<stop
   offset="1"
   style="stop-color:#693B93"
   id="stop57" />
</linearGradient>
<path
   class="st21"
   d="m 784.45486,414.11193 h -10.2 c -0.8,0 -1.4,0.7 -1.4,1.6 v 11.9 c 0,0.9 0.6,1.6 1.4,1.6 h 10.2 c 0.8,0 1.4,-0.7 1.4,-1.6 v -11.9 c 0,-0.9 -0.6,-1.6 -1.4,-1.6 z m -4.5,11.8 c 0,1.5 -0.7,2.1 -1.8,2.1 -1,0 -1.5,-0.6 -1.8,-1.3 l 1,-0.7 c 0.2,0.4 0.4,0.7 0.8,0.7 0.4,0 0.7,-0.2 0.7,-0.9 v -4.7 h 1.2 v 4.8 z m 2.9,2.2 c -1.1,0 -1.9,-0.6 -2.2,-1.5 l 1,-0.7 c 0.3,0.5 0.6,0.9 1.2,0.9 0.5,0 0.8,-0.3 0.8,-0.7 0,-0.5 -0.3,-0.7 -0.9,-0.9 l -0.3,-0.2 c -0.9,-0.4 -1.5,-1 -1.5,-2.1 0,-1.1 0.7,-1.9 1.8,-1.9 0.8,0 1.3,0.3 1.7,1.1 l -1,0.7 c -0.2,-0.4 -0.4,-0.6 -0.8,-0.6 -0.4,0 -0.6,0.3 -0.6,0.6 0,0.4 0.2,0.6 0.8,0.9 l 0.3,0.2 c 1,0.5 1.6,1 1.6,2.2 0.1,1.3 -0.8,2 -1.9,2 z"
   id="path57"
   style="fill:url(#SVGID_16_)" />
<linearGradient
   id="SVGID_17_"
   gradientUnits="userSpaceOnUse"
   x1="887"
   y1="-820.22498"
   x2="887"
   y2="-798.06787"
   gradientTransform="translate(1.8548585,1317.1119)">
	<stop
   offset="0"
   style="stop-color:#693B93;stop-opacity:0.53"
   id="stop58" />
	<stop
   offset="1"
   style="stop-color:#693B93"
   id="stop59" />
</linearGradient>
<path
   class="st22"
   d="m 888.85486,519.01193 c -0.2,0 -0.5,-0.1 -0.7,-0.2 l -2.2,-1.6 c -0.3,-0.2 -0.2,-0.3 -0.1,-0.4 0.4,-0.2 0.5,-0.2 1,-0.6 0.1,0 0.1,0 0.2,0 l 1.7,1.2 c 0.1,0 0.1,0 0.2,0 l 6.6,-4.7 c 0.1,0 0.1,-0.1 0.1,-0.2 v -9.4 c 0,-0.1 0,-0.2 -0.1,-0.2 l -6.6,-4.7 c -0.1,0 -0.1,0 -0.2,0 l -6.6,4.7 c -0.1,0 -0.1,0.1 -0.1,0.2 v 9.4 c 0,0.1 0,0.2 0.1,0.2 l 1.8,1.3 c 1,0.6 1.6,-0.1 1.6,-0.8 v -9.1 c 0,-0.1 0.1,-0.2 0.2,-0.2 h 0.8 c 0.1,0 0.2,0.1 0.2,0.2 v 9.3 c 0,1.6 -0.7,2.5 -2,2.5 -0.4,0 -0.7,0 -1.5,-0.5 l -1.7,-1.2 c -0.4,-0.3 -0.7,-0.9 -0.7,-1.5 v -9.4 c 0,-0.6 0.3,-1.2 0.7,-1.5 l 6.6,-4.7 c 0.4,-0.3 1,-0.3 1.4,0 l 6.6,4.7 c 0.4,0.3 0.7,0.9 0.7,1.5 v 9.4 c 0,0.6 -0.3,1.2 -0.7,1.5 l -6.6,4.7 c -0.2,0.1 -0.5,0.1 -0.7,0.1 z m 5.3,-9.2 c 0,-1.8 -1,-2.2 -3,-2.5 -2.1,-0.3 -2.3,-0.5 -2.3,-1.1 0,-0.5 0.2,-1.1 1.7,-1.1 1.4,0 1.9,0.4 2.1,1.5 0,0.1 0.1,0.2 0.2,0.2 h 0.9 c 0.1,0 0.1,0 0.1,-0.1 0,0 0.1,-0.1 0,-0.2 -0.1,-1.9 -1.2,-2.8 -3.3,-2.8 -1.9,0 -3,1 -3,2.6 0,1.8 1.1,2.3 2.9,2.5 2.2,0.3 2.3,0.7 2.3,1.2 0,0.9 -0.6,1.3 -2,1.3 -1.8,0 -2.1,-0.5 -2.3,-1.6 0,-0.1 -0.1,-0.2 -0.2,-0.2 h -0.9 c -0.1,0 -0.2,0.1 -0.2,0.2 0,1.4 0.6,3 3.5,3 2.3,-0.1 3.5,-1.1 3.5,-2.9 z"
   id="path59"
   style="fill:url(#SVGID_17_)" />
<linearGradient
   id="SVGID_18_"
   gradientUnits="userSpaceOnUse"
   x1="771.54999"
   y1="-732.74597"
   x2="771.54999"
   y2="-713.50403"
   gradientTransform="translate(1.8548585,1317.1119)">
	<stop
   offset="0"
   style="stop-color:#693B93;stop-opacity:0.53"
   id="stop60" />
	<stop
   offset="1"
   style="stop-color:#693B93"
   id="stop61" />
</linearGradient>
<path
   class="st23"
   d="m 770.85486,584.41193 c -1.7,0 -3,1.6 -3,3.7 0,1.2 0.5,2.3 1.3,3 -0.4,0.3 -0.7,0.8 -0.9,1.3 -0.2,0.5 -0.3,1.1 -0.3,1.7 0,1.2 0.5,2.3 1.3,3 -0.4,0.3 -0.7,0.8 -0.9,1.3 -0.2,0.5 -0.3,1.1 -0.3,1.7 0,2 1.4,3.7 3,3.7 1.7,0 3,-1.6 3,-3.7 v -3.1 c 0.5,0.5 1.2,0.8 1.9,0.8 1.7,0 3,-1.6 3,-3.7 0,-0.6 -0.1,-1.1 -0.3,-1.7 -0.2,-0.5 -0.5,-1 -0.9,-1.3 0.4,-0.3 0.7,-0.8 0.9,-1.3 0.2,-0.5 0.3,-1.1 0.3,-1.7 0,-2 -1.4,-3.7 -3,-3.7 z m -1.9,3.6 c 0,-1.3 0.9,-2.3 1.9,-2.3 h 1.9 v 4.6 h -1.9 c -1,0 -1.9,-1 -1.9,-2.3 z m 6.9,2.3 h -1.9 v -4.6 h 1.9 c 1,0 1.9,1 1.9,2.3 0,1.3 -0.9,2.3 -1.9,2.3 z m -6.9,3.7 c 0,-1.3 0.9,-2.3 1.9,-2.3 h 1.9 v 4.6 h -1.9 c -1,0 -1.9,-1 -1.9,-2.3 z m 5,0 c 0,-1.3 0.9,-2.3 1.9,-2.3 1,0 1.9,1 1.9,2.3 0,1.3 -0.9,2.3 -1.9,2.3 -1.1,0 -1.9,-1 -1.9,-2.3 z m -5,5.9 c 0,-1.3 0.9,-2.3 1.9,-2.3 h 1.9 v 2.3 c 0,1.3 -0.9,2.3 -1.9,2.3 -1,0 -1.9,-1 -1.9,-2.3 z"
   id="path61"
   style="fill:url(#SVGID_18_)" />
<linearGradient
   id="SVGID_19_"
   gradientUnits="userSpaceOnUse"
   x1="832.75"
   y1="-800.40002"
   x2="832.75"
   y2="-784.94702"
   gradientTransform="translate(1.8548585,1317.1119)">
	<stop
   offset="0"
   style="stop-color:#693B93;stop-opacity:0.53"
   id="stop62" />
	<stop
   offset="1"
   style="stop-color:#693B93"
   id="stop63" />
</linearGradient>
<path
   class="st24"
   d="m 839.15486,516.71193 h -9.1 c -1.2,0 -2.3,1.2 -2.3,2.6 v 10.2 c 0,1.5 1,2.6 2.3,2.6 h 9.1 c 1.2,0 2.3,-1.2 2.3,-2.6 v -10.2 c 0,-1.4 -1,-2.6 -2.3,-2.6 z"
   id="path63"
   style="fill:url(#SVGID_19_)" />
<path
   d="m 834.95486,520.81193 -1.7,3.3 1.8,3.5 v 0.1 0 0 0 0 h -1.3 v 0 c -0.1,0 -0.1,0 -0.2,-0.1 -0.1,-0.3 -0.2,-0.5 -0.4,-0.8 -0.1,-0.2 -0.2,-0.5 -0.3,-0.7 l -0.1,-0.1 c -0.1,-0.3 -0.3,-0.6 -0.4,-0.9 v 0 c -0.1,0.3 -0.2,0.6 -0.4,0.9 -0.1,0.3 -0.3,0.6 -0.4,0.8 -0.1,0.3 -0.3,0.6 -0.4,0.8 0,0.1 -0.1,0.1 -0.1,0.1 v 0 h -1.2 v 0 0 0 -0.1 l 1.8,-3.4 -1.7,-3.4 v -0.1 0 0 h 1.3 0.1 c 0,0 0,0 0.1,0.1 0.1,0.3 0.2,0.6 0.4,0.9 0.1,0.3 0.3,0.6 0.4,0.8 0.1,0.3 0.3,0.6 0.4,0.8 v 0 c 0.1,-0.3 0.2,-0.6 0.4,-0.9 0.1,-0.3 0.3,-0.6 0.4,-0.8 0.1,-0.3 0.3,-0.6 0.4,-0.8 0,0 0,0 0,-0.1 0,0 0,0 0.1,0 h 1.2 v 0 c -0.2,0 -0.1,0 -0.2,0.1 0.1,-0.1 0.1,-0.1 0,0 0.1,0 0.1,0 0,0 z m 2.7,6.9 v 0 c -0.5,0 -0.9,-0.1 -1.3,-0.3 -0.4,-0.2 -0.7,-0.5 -0.9,-0.9 -0.2,-0.4 -0.3,-0.9 -0.3,-1.5 v 0 c 0,-0.5 0.1,-1 0.3,-1.4 0.2,-0.4 0.5,-0.8 0.9,-1 v 0 c 0.4,-0.3 0.9,-0.4 1.4,-0.4 v 0 0 0 0 h 0.1 0.1 v 0 -2.1 c 0,0 0,-0.1 0.1,-0.1 h 1.1 v 0 0 0 0 6.3 c 0,0.1 0,0.2 0,0.3 v 0.3 0.2 c 0,0 0,0 0,0.1 v 0 c -0.3,0.1 -0.6,0.3 -0.9,0.3 0,0.2 -0.3,0.2 -0.6,0.2 z m 0.5,-1.3 v -2.9 c 0,0 -0.1,0 -0.2,0 -0.1,0 -0.1,0 -0.2,0 -0.2,0 -0.4,0.1 -0.6,0.2 -0.2,0.1 -0.4,0.3 -0.5,0.5 -0.1,0.2 -0.2,0.5 -0.2,0.8 v 0 c 0,0.2 0,0.5 0.1,0.7 0.1,0.2 0.1,0.3 0.3,0.5 0.1,0.1 0.2,0.2 0.4,0.3 0.2,0.1 0.3,0.1 0.5,0.1 0.1,0 0.2,0 0.2,0 0.1,-0.1 0.1,-0.1 0.2,-0.2 z"
   id="path64" />
<linearGradient
   id="SVGID_20_"
   gradientUnits="userSpaceOnUse"
   x1="724.74268"
   y1="-891.97552"
   x2="724.74268"
   y2="-884.3288"
   gradientTransform="translate(1.8548585,1317.1119)">
	<stop
   offset="0"
   style="stop-color:#693B93;stop-opacity:0.53"
   id="stop64" />
	<stop
   offset="1"
   style="stop-color:#693B93"
   id="stop65" />
</linearGradient>
<path
   class="st25"
   d="m 725.45486,427.51193 c 1.1,-0.7 2.1,-1.4 3.2,-2.1 1,-0.7 2.2,-0.1 2.4,1.3 0.1,0.8 -0.2,1.6 -0.7,2 -1.9,1.3 -3.8,2.6 -5.8,3.9 -0.6,0.4 -1.2,0.3 -1.8,-0.2 -0.6,-0.5 -0.7,-1.2 -0.6,-2 0.1,-0.6 0.5,-1 1,-1.3 0.8,-0.5 1.6,-1 2.3,-1.6 z"
   id="path65"
   style="fill:url(#SVGID_20_)" />
<linearGradient
   id="SVGID_21_"
   gradientUnits="userSpaceOnUse"
   x1="724.83331"
   y1="-895.81073"
   x2="724.83331"
   y2="-888.17529"
   gradientTransform="translate(1.8548585,1317.1119)">
	<stop
   offset="0"
   style="stop-color:#693B93;stop-opacity:0.53"
   id="stop66" />
	<stop
   offset="1"
   style="stop-color:#693B93"
   id="stop67" />
</linearGradient>
<path
   class="st26"
   d="m 726.25486,427.01193 c -1.1,-0.7 -2.1,-1.4 -3.2,-2.2 -1,-0.7 -1.1,-2.2 -0.3,-3.1 0.5,-0.5 1.2,-0.6 1.8,-0.2 1.9,1.3 3.9,2.6 5.8,3.9 0.6,0.4 0.8,1.1 0.8,1.9 -0.1,0.8 -0.5,1.3 -1.2,1.6 -0.5,0.2 -1,0 -1.4,-0.3 -0.8,-0.6 -1.5,-1.1 -2.3,-1.6 z"
   id="path67"
   style="fill:url(#SVGID_21_)" />
<linearGradient
   id="SVGID_22_"
   gradientUnits="userSpaceOnUse"
   x1="713.4375"
   y1="-895.81952"
   x2="713.4375"
   y2="-888.16663"
   gradientTransform="translate(1.8548585,1317.1119)">
	<stop
   offset="0"
   style="stop-color:#693B93;stop-opacity:0.53"
   id="stop68" />
	<stop
   offset="1"
   style="stop-color:#693B93"
   id="stop69" />
</linearGradient>
<path
   class="st27"
   d="m 716.55486,426.51193 c -0.7,0.5 -1.4,0.9 -2.1,1.4 -0.4,0.3 -0.8,0.5 -1.2,0.8 -0.8,0.5 -1.8,0.2 -2.2,-0.7 -0.4,-0.9 -0.2,-2 0.6,-2.6 1.9,-1.3 3.8,-2.6 5.7,-3.9 0.6,-0.4 1.2,-0.3 1.7,0.1 0.6,0.5 0.8,1.2 0.6,2 -0.1,0.2 -0.1,0.4 -0.2,0.6 -0.2,0.3 -0.4,0.5 -0.7,0.7 -0.7,0.6 -1.4,1.1 -2.2,1.6 z"
   id="path69"
   style="fill:url(#SVGID_22_)" />
<linearGradient
   id="SVGID_23_"
   gradientUnits="userSpaceOnUse"
   x1="713.44061"
   y1="-891.9682"
   x2="713.44061"
   y2="-884.3363"
   gradientTransform="translate(1.8548585,1317.1119)">
	<stop
   offset="0"
   style="stop-color:#693B93;stop-opacity:0.53"
   id="stop70" />
	<stop
   offset="1"
   style="stop-color:#693B93"
   id="stop71" />
</linearGradient>
<path
   class="st28"
   d="m 715.75486,427.01193 c 0.7,0.5 1.4,0.9 2,1.4 0.4,0.3 0.8,0.5 1.2,0.8 0.8,0.6 1,1.7 0.6,2.6 -0.4,0.9 -1.4,1.2 -2.2,0.7 -1.9,-1.3 -3.8,-2.6 -5.7,-3.9 -0.6,-0.4 -0.9,-1 -0.8,-1.8 0.1,-0.8 0.5,-1.4 1.2,-1.6 0.2,0 0.4,-0.1 0.6,0 0.3,0.1 0.6,0.2 0.8,0.3 0.8,0.5 1.5,1 2.3,1.5 z"
   id="path71"
   style="fill:url(#SVGID_23_)" />
<linearGradient
   id="SVGID_24_"
   gradientUnits="userSpaceOnUse"
   x1="127"
   y1="-830.70001"
   x2="127"
   y2="-813.20697"
   gradientTransform="translate(1.8548585,1317.1119)">
	<stop
   offset="0"
   style="stop-color:#693B93;stop-opacity:0.53"
   id="stop72" />
	<stop
   offset="1"
   style="stop-color:#693B93"
   id="stop73" />
</linearGradient>
<path
   class="st29"
   d="m 128.85486,486.41193 c -3.9,0 -7,3.9 -7,8.7 0,4.8 3.1,8.7 7,8.7 3.9,0 7,-3.9 7,-8.7 0,-4.8 -3.1,-8.7 -7,-8.7 z m 0.1,13.9 c -2.3,0 -4.1,-2.3 -4.1,-5.1 0,-2.8 1.8,-5.1 4.1,-5.1 1.1,0 2,0.5 2.7,1.3 l -1.2,1.4 v 0 c -0.4,-0.5 -1,-0.8 -1.6,-0.8 -1.3,0 -2.4,1.4 -2.4,3.1 0,1.7 1.1,3.1 2.4,3.1 1.2,0 2.1,-0.9 2.2,-2.1 h -2.2 v -2 h 3.8 c 0.1,0.3 0.1,0.7 0.1,1.1 0.1,3 -1.5,5.1 -3.8,5.1 z"
   id="path73"
   style="fill:url(#SVGID_24_)" />
<linearGradient
   id="SVGID_25_"
   gradientUnits="userSpaceOnUse"
   x1="34.400002"
   y1="-762.02399"
   x2="34.400002"
   y2="-759.17102"
   gradientTransform="translate(1.8548585,1317.1119)">
	<stop
   offset="0"
   style="stop-color:#693B93;stop-opacity:0.53"
   id="stop74" />
	<stop
   offset="1"
   style="stop-color:#693B93"
   id="stop75" />
</linearGradient>
<path
   class="st30"
   d="m 33.054859,555.11193 h 1.9 v 0.9 h -1.1 v 0.9 h 1.1 v 0.9 h -1.9 c 0,0 0,-2.7 0,-2.7 z m 2.3,0 h 1.9 v 0.8 h -1.1 v 0.2 h 1.1 v 1.9 h -1.9 v -0.9 h 1.1 v -0.2 h -1.1 z m 2.2,0 h 1.9 v 0.8 h -1.1 v 0.2 h 1.1 v 1.9 h -1.9 v -0.9 h 1.1 v -0.2 h -1.1 z"
   id="path75"
   style="fill:url(#SVGID_25_)" />
<linearGradient
   id="SVGID_26_"
   gradientUnits="userSpaceOnUse"
   x1="34.5"
   y1="-757.92297"
   x2="34.5"
   y2="-741.69202"
   gradientTransform="translate(1.8548585,1317.1119)">
	<stop
   offset="0"
   style="stop-color:#693B93;stop-opacity:0.53"
   id="stop76" />
	<stop
   offset="1"
   style="stop-color:#693B93"
   id="stop77" />
</linearGradient>
<path
   class="st31"
   d="m 36.354859,575.41193 -5,-1.6 -1.5,-14.6 h 13 l -1.5,14.6 z m -3.6,-9.6 0.1,1.8 h 5.3 l -0.2,2.3 -1.7,0.5 v 0 l -1.7,-0.5 -0.1,-1.4 h -1.5 l 0.2,2.8 3.1,1 3.2,-1 0.4,-5 v -0.5 l 0.3,-3.6 h -7.7 l 0.1,1.8 h 5.9 l -0.1,1.8 z"
   id="path77"
   style="fill:url(#SVGID_26_)" />
<linearGradient
   id="SVGID_27_"
   gradientUnits="userSpaceOnUse"
   x1="193"
   y1="-924"
   x2="193"
   y2="-909.26398"
   gradientTransform="translate(1.8548585,1317.1119)">
	<stop
   offset="0"
   style="stop-color:#693B93;stop-opacity:0.53"
   id="stop78" />
	<stop
   offset="1"
   style="stop-color:#693B93"
   id="stop79" />
</linearGradient>
<path
   class="st32"
   d="m 189.35486,393.71193 h 11 v 13.5 h -11 z m -0.5,14.1 h 12 v -14.7 h -12 z m 7.9,-9.4 c 0,-0.1 0,-0.1 0,0 l 0.8,-0.1 c 0,0 0.1,0 0.1,0.1 v 5 c 0,0 0,0.1 -0.1,0.1 h -0.8 c -0.1,0 -0.1,0 -0.1,-0.1 z m -0.1,-1.5 c 0,-0.2 0.1,-0.3 0.2,-0.5 0.1,-0.1 0.2,-0.2 0.4,-0.2 0.1,0 0.3,0.1 0.4,0.2 0.1,0.1 0.1,0.3 0.1,0.5 0,0.1 0,0.2 0,0.3 0,0.1 -0.1,0.2 -0.1,0.2 0,0.1 -0.1,0.1 -0.2,0.1 -0.1,0 -0.1,0 -0.2,0 -0.1,0 -0.1,0 -0.2,0 -0.1,0 -0.1,-0.1 -0.2,-0.1 -0.1,0 -0.1,-0.1 -0.1,-0.2 -0.1,-0.1 -0.1,-0.2 -0.1,-0.3 z m -2.2,3.5 c -0.1,-0.7 -0.5,-2.2 -0.6,-3 v 0 c -0.1,0.7 -0.4,2 -0.6,3 z m -1.4,1 -0.4,1.9 c 0,0 0,0.1 -0.1,0.1 h -0.7 c -0.1,0 -0.1,0 -0.1,-0.1 l 1.4,-6.3 c 0,-0.2 0.1,-0.3 0.1,-0.5 v -0.1 h 1 c 0,0 0.1,0 0.1,0.1 l 1.6,6.8 v 0.1 h -0.8 c 0,0 -0.1,0 -0.1,-0.1 l -0.4,-1.9 z"
   id="path79"
   style="fill:url(#SVGID_27_)" />
<linearGradient
   id="SVGID_28_"
   gradientUnits="userSpaceOnUse"
   x1="88.25"
   y1="-886.68201"
   x2="88.25"
   y2="-871.73602"
   gradientTransform="translate(1.8548585,1317.1119)">
	<stop
   offset="0"
   style="stop-color:#693B93;stop-opacity:0.53"
   id="stop80" />
	<stop
   offset="1"
   style="stop-color:#693B93"
   id="stop81" />
</linearGradient>
<path
   class="st33"
   d="m 83.854859,431.71193 c 0,-0.3 0.1,-0.6 0.3,-0.9 0.2,-0.3 0.5,-0.4 0.7,-0.4 h 10.5 c 0.1,0 0.3,0 0.4,0.1 0.1,0.1 0.2,0.2 0.3,0.3 0.1,0.1 0.2,0.3 0.2,0.4 0.1,0.2 0.1,0.3 0.1,0.5 v 12.4 c 0,0.2 0,0.3 -0.1,0.5 -0.1,0.2 -0.1,0.3 -0.2,0.4 -0.1,0.1 -0.2,0.2 -0.3,0.3 -0.1,0.1 -0.3,0.1 -0.4,0.1 h -10.4 c -0.1,0 -0.3,0 -0.4,-0.1 -0.1,-0.1 -0.2,-0.2 -0.3,-0.3 -0.1,-0.1 -0.2,-0.3 -0.2,-0.4 -0.1,-0.2 -0.1,-0.3 -0.1,-0.5 z m 5,4.4 h 1.7 v 1 c 0.2,-0.6 0.9,-1.1 1.8,-1.1 1.8,0 2.2,1.2 2.2,3.3 v 4 h -1.8 v -3.5 c 0,-1.2 -0.2,-1.9 -0.9,-1.9 -0.9,0 -1.2,0.7 -1.2,1.9 v 3.5 h -1.8 z m -3.2,7.1 h 1.8 v -7.2 h -1.8 z m 2.1,-9.5 c 0,0.2 0,0.4 -0.1,0.5 -0.1,0.1 -0.1,0.3 -0.3,0.5 -0.1,0.1 -0.2,0.2 -0.4,0.3 -0.1,0.1 -0.3,0.1 -0.5,0.1 -0.2,0 -0.3,0 -0.5,-0.1 -0.1,-0.1 -0.3,-0.2 -0.4,-0.3 -0.1,-0.1 -0.2,-0.3 -0.3,-0.5 -0.1,-0.2 -0.1,-0.4 -0.1,-0.5 0,-0.4 0.1,-0.7 0.4,-1 0.2,-0.3 0.5,-0.4 0.8,-0.4 0.3,0 0.6,0.1 0.8,0.4 0.5,0.3 0.6,0.6 0.6,1 z"
   id="path81"
   style="fill:url(#SVGID_28_)" />
<linearGradient
   id="SVGID_29_"
   gradientUnits="userSpaceOnUse"
   x1="138.89999"
   y1="-752.57001"
   x2="138.89999"
   y2="-733.91101"
   gradientTransform="translate(1.8548585,1317.1119)">
	<stop
   offset="0"
   style="stop-color:#693B93;stop-opacity:0.53"
   id="stop82" />
	<stop
   offset="1"
   style="stop-color:#693B93"
   id="stop83" />
</linearGradient>
<path
   class="st34"
   d="m 142.65486,564.51193 1.5,2.4 7.5,-2.4 m -16.8,18.7 4,-4.6 -2.4,-3 m 5.5,-11.1 -2.2,2.3 3.6,0.2 m -9.8,-2.5 0.8,1.8 4.3,0.3 m -2.8,7.5 3.2,-6.8 -9.2,-0.6 m 6.4,7.8 3,3.7 3.3,-3.7 1,-7 -4,-0.2 z"
   id="path83"
   style="fill:url(#SVGID_29_)" />
<image
   style="overflow:visible;enable-background:new"
   width="25.000002"
   height="25.000002"
   xlink:href="../../../../../../Pictures/JavaScript-logo.png"
   id="image83"
   x="266.35486"
   y="15.608833">
</image>
<image
   style="overflow:visible;enable-background:new"
   width="24.999998"
   height="24.999998"
   xlink:href="../../../../../../Pictures/Typescript_logo_2020.svg%20-%20Copie.png"
   id="image84"
   x="321.35486"
   y="14.623329">
</image>
<image
   style="overflow:visible;enable-background:new"
   width="24.299988"
   height="26.011497"
   xlink:href="../../../../../../Pictures/angular-icon-logo-5FC0C40EAC-seeklogo.com.png"
   id="image85"
   x="541.70483"
   y="15.103134">
</image>
<image
   style="overflow:visible;enable-background:new"
   width="22.861683"
   height="25.000002"
   xlink:href="../../../../../../Pictures/node-js-icon-454x512-nztofx17.png"
   id="image86"
   x="377.42407"
   y="14.111931">
</image>
<image
   style="overflow:visible;enable-background:new"
   width="41.725353"
   height="12.635557"
   xlink:href="../../../../../../Pictures/Expressjs.png"
   id="image87"
   x="479.49225"
   y="21.79113">
</image>
<image
   style="overflow:visible;enable-background:new"
   width="27.816103"
   height="28.0229"
   xlink:href="../../../../../../Pictures/react-logo-1.png"
   id="image88"
   x="595.94678"
   y="14.097427">
</image>
<image
   style="overflow:visible;enable-background:new"
   width="25"
   height="25.000002"
   xlink:href="../../../../../../Pictures/1_lnUD4nSuOkNuRhAymN7GPA.png"
   id="image89"
   x="294.35486"
   y="76.111931">
</image>
<image
   style="overflow:visible;enable-background:new"
   width="25.000002"
   height="25.0047"
   xlink:href="../../../../../../Pictures/163346-python-python_programming-logo-text-symbol-x350.jpg"
   id="image90"
   x="354.35486"
   y="76.611931">
</image>
<image
   style="overflow:visible;enable-background:new"
   width="25.000002"
   height="25.000002"
   xlink:href="../../../../../../Pictures/django-logo-4C5ECF7036-seeklogo.com.png"
   id="image91"
   x="406.35486"
   y="76.111931">
</image>
<image
   style="overflow:visible;enable-background:new"
   width="29.353201"
   height="19.658844"
   xlink:href="../../../../../../Pictures/AWS-Logo-halfwhite.png"
   id="image92"
   x="459.17825"
   y="79.782524">
</image>
<image
   style="overflow:visible;enable-background:new"
   width="28.056576"
   height="28.072325"
   xlink:href="../../../../../../Pictures/docker-icon-2048x2048-5mc7mvtn.png"
   id="image93"
   x="519.05493"
   y="74.575737">
</image>
<image
   style="overflow:visible;enable-background:new"
   width="29.171333"
   height="16.526224"
   xlink:href="../../../../../../Pictures/cropped-devops.png"
   id="image94"
   x="573.86914"
   y="80.348824">
</image>
<image
   style="overflow:visible;enable-background:new"
   width="31.1961"
   height="14.8998"
   xlink:href="../../../../../../Pictures/dribbble_szablon__1_1_1x.png"
   id="image95"
   x="430.85486"
   y="19.672829">
</image>
</svg>
