<?xml version="1.0" encoding="utf-8"?>
<!-- Generator: Adobe Illustrator 23.0.3, SVG Export Plug-In . SVG Version: 6.00 Build 0)  -->
<svg version="1.1" id="Calque_1" xmlns="http://www.w3.org/2000/svg" xmlns:xlink="http://www.w3.org/1999/xlink" x="0px" y="0px"
	 viewBox="0 0 895 754" style="enable-background:new 0 0 895 754;" xml:space="preserve">
<style type="text/css">
	.st0{fill:#FFFFFF;}
	.st1{fill:#A362FF;}
	.st2{fill:none;stroke:url(#SVGID_1_);}
	.st3{fill:none;stroke:url(#SVGID_2_);}
	.st4{fill:none;stroke:url(#SVGID_3_);}
	.st5{fill:none;stroke:url(#SVGID_4_);}
	.st6{fill:none;stroke:url(#SVGID_5_);}
	.st7{fill:none;stroke:url(#SVGID_6_);}
	.st8{fill:url(#SVGID_7_);}
	.st9{fill:#251C31;}
	.st10{fill:none;}
	.st11{fill:url(#SVGID_8_);}
	.st12{fill-rule:evenodd;clip-rule:evenodd;fill:#FFFFFF;}
	.st13{fill:none;stroke:#FFFFFF;stroke-width:8;}
	.st14{fill:none;stroke:url(#SVGID_9_);}
	.st15{fill:none;stroke:url(#SVGID_10_);}
	.st16{fill:none;stroke:url(#SVGID_11_);}
	.st17{fill:none;stroke:url(#SVGID_12_);}
	.st18{fill:none;stroke:url(#SVGID_13_);}
	.st19{fill:url(#SVGID_14_);}
	.st20{fill:url(#SVGID_15_);}
	.st21{fill:url(#SVGID_16_);}
	.st22{fill:url(#SVGID_17_);}
	.st23{fill-rule:evenodd;clip-rule:evenodd;fill:url(#SVGID_18_);}
	.st24{fill:url(#SVGID_19_);}
	.st25{fill:url(#SVGID_20_);}
	.st26{fill:url(#SVGID_21_);}
	.st27{fill:url(#SVGID_22_);}
	.st28{fill:url(#SVGID_23_);}
	.st29{fill-rule:evenodd;clip-rule:evenodd;fill:url(#SVGID_24_);}
	.st30{fill:url(#SVGID_25_);}
	.st31{fill-rule:evenodd;clip-rule:evenodd;fill:url(#SVGID_26_);}
	.st32{fill:url(#SVGID_27_);}
	.st33{fill-rule:evenodd;clip-rule:evenodd;fill:url(#SVGID_28_);}
	.st34{fill:url(#SVGID_29_);}
</style>
<path class="st0" d="M125.4,6.3l2.6,0.1l0.2,16.2h-2.4L125.4,6.3z M132.7,11.6l-0.6-5.4h3l-0.8,5.4H132.7z M138.4,10.8l2.4-0.3v3.4
	c0.4-0.4,0.7-0.9,1.1-1.3c0.4-0.4,0.8-0.8,1.3-1.1s1-0.4,1.6-0.4c0.7,0,1.3,0.2,1.8,0.7s0.8,1.1,0.9,2c0.3-0.4,0.7-0.8,1.1-1.3
	c0.4-0.4,0.8-0.8,1.3-1c0.5-0.3,1-0.4,1.5-0.4c0.8,0,1.4,0.3,1.9,0.8s0.8,1.3,0.8,2.3c0,0.3,0,0.6,0.1,1c0,0.4,0,0.7,0.1,1.2
	c0,0.7,0.1,1.7,0.1,2.8c0,1.1,0,2.5,0,4.1l-2.4,0.1c0-1.4,0-2.6,0-3.6s0-1.9,0-2.5v-1.9c0-1.3-0.4-1.9-1-1.9c-0.3,0-0.6,0.1-0.9,0.4
	c-0.3,0.3-0.6,0.6-0.9,0.9c-0.1,0.1-0.2,0.3-0.3,0.4c-0.1,0.1-0.2,0.2-0.3,0.4c-0.2,0.3-0.3,0.5-0.5,0.7s-0.3,0.4-0.4,0.6
	c0,0.3,0,0.7,0,1.1s0,0.9,0,1.4s0,1.1,0,1.8c0,0.6,0,1.4,0,2.2l-2.3,0.1c0-1.4,0-2.6,0-3.6s-0.1-1.9-0.1-2.5c0-0.4,0-0.7-0.1-1.1
	c0-0.3,0-0.6-0.1-0.9c0-1.3-0.4-1.9-1-1.9c-0.2,0-0.4,0.1-0.6,0.2c-0.4,0.3-0.9,0.7-1.3,1.2c-0.1,0.1-0.2,0.3-0.3,0.4
	c-0.1,0.1-0.2,0.3-0.3,0.4c-0.1,0.2-0.3,0.5-0.5,0.8s-0.3,0.5-0.4,0.7l0.1,6.2l-2.3,0.1L138.4,10.8z M179.2,14.2L179.2,14.2
	l-1.9,1.2v-0.1c-0.4-0.8-1-1.4-1.7-1.9s-1.5-0.7-2.4-0.7c-0.6,0-1.2,0.1-1.8,0.4c-0.6,0.2-1,0.6-1.5,1c-0.4,0.4-0.8,0.9-1,1.5
	c-0.2,0.6-0.4,1.2-0.4,1.8s0.1,1.2,0.4,1.8s0.6,1.1,1,1.5s0.9,0.8,1.5,1s1.2,0.4,1.8,0.4c0.8,0,1.6-0.2,2.3-0.6s1.3-1,1.7-1.7v-0.1
	l2,1.2V21c-0.3,0.5-0.7,1-1.1,1.4c-0.4,0.4-0.9,0.8-1.4,1.1c-1.1,0.6-2.3,0.9-3.5,0.9c-0.9,0-1.7-0.2-2.6-0.5
	c-0.8-0.3-1.6-0.8-2.2-1.4c-0.6-0.6-1.2-1.3-1.5-2.2c-0.4-0.8-0.6-1.7-0.6-2.7c0-0.6,0.1-1.2,0.2-1.7c0.3-1.2,0.9-2.2,1.7-3
	c0.2-0.2,0.4-0.4,0.7-0.6c0.2-0.2,0.5-0.4,0.7-0.5c0.5-0.3,1.1-0.5,1.7-0.7c0.6-0.2,1.2-0.3,1.9-0.3c1.3,0,2.6,0.3,3.6,0.9
	C177.9,12.1,178.7,13,179.2,14.2z M193.8,23.8h-2.7v-3.4c-0.3,0.5-0.5,0.9-0.9,1.3c-0.3,0.4-0.7,0.8-1.1,1.1
	c-0.4,0.3-0.8,0.6-1.2,0.7c-0.4,0.2-0.9,0.3-1.4,0.2c-0.7,0-1.3-0.2-1.8-0.4c-0.5-0.2-0.9-0.6-1.3-1c-0.3-0.4-0.6-0.9-0.8-1.4
	s-0.4-1.1-0.5-1.7s-0.2-1.2-0.2-1.8c0-0.6,0-1.2,0-1.8c0-0.8,0-1.6,0.1-2.5c0.1-0.8,0.2-1.7,0.3-2.6l2.4,0.1c-0.1,1-0.2,1.8-0.3,2.6
	c0,0.8-0.1,1.5-0.1,2c0,0.1,0,0.3,0,0.5s0,0.3,0,0.6c0,0.4,0,0.8,0.1,1.3s0.1,0.9,0.2,1.3c0.1,0.4,0.3,0.8,0.5,1.2
	c0.2,0.4,0.5,0.6,0.8,0.8c0.3,0.2,0.7,0.3,1.1,0.2c0.6-0.1,1.2-0.5,1.9-1.2c0.7-0.8,1.3-1.9,2.1-3.4l-0.1-3c0-0.4,0-0.7,0-1
	s0-0.5,0-0.7c0-0.5,0-0.8,0-1l2.5-0.3l0.1,3.6c0,0.5,0,1.1,0,1.5c0,0.5,0,0.9,0,1.4c0,0.4,0,0.9,0,1.4s0,1,0,1.5s0,0.8,0,1.1
	c0,0.6,0,1,0,1.5C193.8,23.2,193.8,23.5,193.8,23.8z M208.8,15.5l-2.3,0.9c0-0.7-0.1-1.2-0.3-1.6c-0.2-0.4-0.4-0.7-0.7-0.9
	s-0.6-0.3-0.9-0.3c-0.2,0-0.5,0.1-0.7,0.3c-0.2,0.1-0.5,0.3-0.8,0.6c-0.3,0.2-0.5,0.5-0.8,0.8c-0.1,0.1-0.3,0.3-0.4,0.5
	s-0.3,0.3-0.4,0.5c-0.2,0.3-0.5,0.6-0.7,0.9s-0.4,0.6-0.6,0.9c0,0.3,0,0.7,0,1.1s0,0.8,0,1.2c0,0.4,0,0.7,0,1c0,0.5,0,0.9,0,1.3
	s0,0.7,0.1,0.9l-2.5,0.3l-0.2-6.6c0-0.4,0-0.9,0-1.4s0-1,0-1.5s0-0.8,0-1.1c0-1.1-0.1-1.9-0.1-2.5h2.7c0,0.2,0,0.5,0,0.7
	s0,0.5,0,0.7c0,0.3,0,0.5,0,0.7s0,0.4,0,0.6c0,0.2,0,0.5,0,0.7s0,0.5,0,0.7c0.2-0.4,0.5-0.8,0.8-1.2s0.7-0.8,1.1-1.2
	c0.4-0.4,0.9-0.7,1.3-1c0.5-0.3,1-0.5,1.6-0.5s1.2,0.1,1.7,0.4c0.2,0.1,0.4,0.3,0.6,0.5c0.2,0.2,0.4,0.5,0.6,0.8
	c0.2,0.3,0.3,0.7,0.5,1.2C208.6,14.4,208.7,14.9,208.8,15.5z M222.3,15.5l-2.3,0.9c0-0.7-0.1-1.2-0.3-1.6c-0.2-0.4-0.4-0.7-0.7-0.9
	s-0.6-0.3-0.9-0.3c-0.2,0-0.5,0.1-0.7,0.3c-0.2,0.1-0.5,0.3-0.8,0.6c-0.3,0.2-0.5,0.5-0.8,0.8c-0.1,0.1-0.3,0.3-0.4,0.5
	s-0.3,0.3-0.4,0.5c-0.2,0.3-0.5,0.6-0.7,0.9s-0.4,0.6-0.6,0.9c0,0.3,0,0.7,0,1.1s0,0.8,0,1.2c0,0.4,0,0.7,0,1c0,0.5,0,0.9,0,1.3
	s0,0.7,0.1,0.9l-2.5,0.3l-0.2-6.6c0-0.4,0-0.9,0-1.4s0-1,0-1.5s0-0.8,0-1.1c0-1.1-0.1-1.9-0.1-2.5h2.7c0,0.2,0,0.5,0,0.7
	s0,0.5,0,0.7c0,0.3,0,0.5,0,0.7s0,0.4,0,0.6c0,0.2,0,0.5,0,0.7s0,0.5,0,0.7c0.2-0.4,0.5-0.8,0.8-1.2s0.7-0.8,1.1-1.2
	c0.4-0.4,0.9-0.7,1.3-1c0.5-0.3,1-0.5,1.6-0.5s1.2,0.1,1.7,0.4c0.2,0.1,0.4,0.3,0.6,0.5c0.2,0.2,0.4,0.5,0.6,0.8
	c0.2,0.3,0.3,0.7,0.5,1.2C222.2,14.4,222.3,14.9,222.3,15.5z M230.4,21.9c0.9,0,1.7-0.3,2.4-0.8s1.2-1.3,1.4-2.2l2.3,0.5
	c-0.2,0.7-0.5,1.4-0.9,1.9c-0.4,0.6-0.9,1.1-1.4,1.5s-1.1,0.7-1.8,1c-0.6,0.2-1.3,0.3-2,0.3c-1,0-1.9-0.2-2.7-0.5s-1.5-0.8-2-1.3
	c-1.1-1.2-1.7-2.8-1.7-4.8c0-1,0.2-1.9,0.5-2.7c0.3-0.9,0.8-1.6,1.4-2.2s1.3-1.1,2-1.5c0.8-0.4,1.6-0.5,2.5-0.5
	c0.8,0,1.6,0.2,2.3,0.5s1.4,0.7,1.9,1.3c0.6,0.6,1,1.2,1.4,2s0.6,1.6,0.7,2.5l-10.1,1.5c0.1,0.6,0.2,1.1,0.4,1.5s0.5,0.8,0.8,1.1
	C228.4,21.6,229.3,21.9,230.4,21.9z M226.5,16.2l7.1-0.9l-0.1-0.2c-0.3-0.8-0.7-1.4-1.2-1.8c-0.5-0.4-1.2-0.7-1.9-0.7
	c-0.3,0-0.7,0.1-1.1,0.2c-0.4,0.1-0.8,0.3-1.1,0.6c-0.4,0.3-0.7,0.6-1,1.1C226.9,15,226.6,15.5,226.5,16.2z M242.3,23.6l-2.5,0.3
	l-0.2-6.6c0-0.4,0-0.9,0-1.4s0-1,0-1.5s0-0.8,0-1.1c0-1.1-0.1-1.9-0.1-2.5h2.7v3.4c0.3-0.4,0.6-0.9,0.9-1.3c0.3-0.4,0.7-0.8,1.1-1.1
	s0.8-0.6,1.2-0.7c0.4-0.2,0.9-0.3,1.4-0.3c0.6,0,1.1,0,1.6,0.2c0.4,0.1,0.8,0.3,1.1,0.6c0.3,0.2,0.6,0.5,0.8,0.9s0.4,0.7,0.5,1.1
	c0.1,0.4,0.2,0.7,0.2,1.1c0.1,0.4,0.1,0.7,0.1,1c0,1.3,0.1,2.7,0,4.1c0,1.4-0.1,2.8-0.1,4.2l-2.4-0.1c0.1-1.3,0.1-2.5,0.2-3.8
	c0.1-1.3,0.1-2.5,0-3.8c0-0.3,0-0.6-0.1-0.9c-0.1-0.4-0.2-0.7-0.3-1.1c-0.1-0.2-0.3-0.5-0.5-0.6c-0.2-0.2-0.4-0.3-0.7-0.4
	c-0.3-0.1-0.6-0.1-0.9-0.1c-0.6,0.1-1.2,0.5-1.9,1.3c-0.6,0.8-1.3,2-2.1,3.6l0.1,3c0,0.4,0,0.7,0,1s0,0.5,0,0.7
	C242.3,23.1,242.3,23.4,242.3,23.6z M257.4,11.4l0.1-5.1l2.3-0.2l-0.1,5.2l4.5-0.2l-0.2,2.2l-4.4,0.1l-0.1,10.2l-2.5,0.1l0.2-10.2
	l-4.1,0.1v-2.2H257.4z M271.6,21.2l-0.3,2.3c-0.6,0-1-0.1-1.5-0.3c-0.4-0.2-0.8-0.4-1.1-0.7c-0.3-0.3-0.6-0.6-0.8-1
	c-0.2-0.4-0.4-0.7-0.6-1.1c-0.4-0.9-0.6-1.9-0.7-3l0.3-14.9h2.5l-0.1,3.8c0,0.6,0,1.1,0,1.7c0,0.5,0,1,0,1.5c0,0.9,0,1.8-0.1,2.6
	c0,0.8,0,1.4,0,2c0,1.4-0.1,2.4-0.1,3.2c0,0.7,0.1,1.4,0.3,1.9c0.2,0.5,0.4,1,0.8,1.4C270.4,21,270.9,21.2,271.6,21.2z M282.1,11.1
	h2.6c-0.4,1.2-0.8,2.3-1.1,3.3c-0.3,1-0.6,1.9-0.9,2.7c-0.1,0.4-0.3,0.9-0.5,1.4s-0.3,1-0.5,1.4c-0.1,0.4-0.3,0.8-0.4,1.1
	c-0.2,0.6-0.4,1.1-0.5,1.5s-0.3,0.8-0.4,1.1c-0.1,0.2-0.2,0.5-0.3,0.7c-0.1,0.3-0.2,0.5-0.3,0.8c-0.2,0.5-0.5,1-0.8,1.5
	s-0.6,1-1,1.5s-0.9,0.9-1.4,1.3s-1.2,0.7-1.8,0.9c-0.7,0.2-1.5,0.4-2.3,0.4l-0.5-2.3c0.5,0.1,0.9,0,1.4,0c0.8-0.2,1.6-0.6,2.2-1.1
	c0.3-0.3,0.6-0.5,0.8-0.9c0.3-0.3,0.5-0.6,0.7-0.9s0.4-0.6,0.5-0.9l-4.9-13.1l2.7-0.4l3.5,10.3c0.2-0.6,0.4-1.3,0.7-2
	c0.3-0.8,0.5-1.6,0.8-2.5s0.6-1.9,0.9-2.8C281.5,13.1,281.8,12.1,282.1,11.1z M301.1,21.2l-0.3,2.3c-0.6,0-1-0.1-1.5-0.3
	c-0.4-0.2-0.8-0.4-1.1-0.7c-0.3-0.3-0.6-0.6-0.8-1c-0.2-0.4-0.4-0.7-0.6-1.1c-0.4-0.9-0.6-1.9-0.7-3l0.3-14.9h2.5l-0.1,3.8
	c0,0.6,0,1.1,0,1.7c0,0.5,0,1,0,1.5c0,0.9,0,1.8-0.1,2.6c0,0.8,0,1.4,0,2c0,1.4-0.1,2.4-0.1,3.2c0,0.7,0.1,1.4,0.3,1.9
	c0.2,0.5,0.4,1,0.8,1.4C300,21,300.5,21.2,301.1,21.2z M315.2,17.3c0,1-0.2,1.9-0.5,2.7c-0.3,0.8-0.8,1.6-1.3,2.2
	c-0.6,0.6-1.2,1.1-2,1.4c-0.8,0.4-1.6,0.5-2.4,0.5c-1.8,0-3.2-0.6-4.4-1.9c-0.6-0.6-1-1.3-1.3-2.2c-0.3-0.8-0.5-1.8-0.5-2.8
	s0.2-2,0.5-2.8c0.3-0.9,0.8-1.6,1.3-2.2c0.6-0.6,1.2-1.1,2-1.4c0.8-0.3,1.6-0.5,2.4-0.5s1.7,0.2,2.4,0.5c0.8,0.3,1.4,0.8,2,1.4
	c0.6,0.6,1,1.3,1.3,2.2C315,15.4,315.2,16.3,315.2,17.3z M312.7,17.3c0-0.6-0.1-1.1-0.2-1.7c-0.1-0.6-0.4-1.1-0.7-1.5
	c-0.3-0.5-0.7-0.8-1.2-1.1s-1.1-0.4-1.8-0.4c-0.7,0-1.2,0.1-1.7,0.4c-0.5,0.3-0.9,0.7-1.2,1.1c-0.3,0.5-0.5,1-0.7,1.5
	c-0.1,0.6-0.2,1.1-0.2,1.7s0.1,1.1,0.2,1.7c0.2,0.6,0.4,1.1,0.7,1.5c0.3,0.5,0.7,0.8,1.2,1.1c0.5,0.3,1,0.4,1.7,0.4s1.2-0.1,1.7-0.4
	s0.9-0.7,1.2-1.1c0.3-0.5,0.5-1,0.7-1.5C312.6,18.4,312.7,17.9,312.7,17.3z M330,17.3c0,1-0.2,1.9-0.5,2.7c-0.3,0.8-0.8,1.6-1.3,2.2
	c-0.6,0.6-1.2,1.1-2,1.4c-0.8,0.4-1.6,0.5-2.4,0.5c-1.8,0-3.2-0.6-4.4-1.9c-0.6-0.6-1-1.3-1.3-2.2c-0.3-0.8-0.5-1.8-0.5-2.8
	s0.2-2,0.5-2.8c0.3-0.9,0.8-1.6,1.3-2.2c0.6-0.6,1.2-1.1,2-1.4c0.8-0.3,1.6-0.5,2.4-0.5c0.9,0,1.7,0.2,2.4,0.5
	c0.8,0.3,1.4,0.8,2,1.4c0.6,0.6,1,1.3,1.3,2.2C329.9,15.4,330,16.3,330,17.3z M327.6,17.3c0-0.6-0.1-1.1-0.2-1.7
	c-0.1-0.6-0.4-1.1-0.7-1.5c-0.3-0.5-0.7-0.8-1.2-1.1s-1.1-0.4-1.8-0.4c-0.7,0-1.2,0.1-1.7,0.4c-0.5,0.3-0.9,0.7-1.2,1.1
	c-0.3,0.5-0.5,1-0.7,1.5c-0.1,0.6-0.2,1.1-0.2,1.7s0.1,1.1,0.2,1.7c0.2,0.6,0.4,1.1,0.7,1.5c0.3,0.5,0.7,0.8,1.2,1.1
	c0.5,0.3,1,0.4,1.7,0.4s1.2-0.1,1.7-0.4s0.9-0.7,1.2-1.1c0.3-0.5,0.5-1,0.7-1.5C327.5,18.4,327.6,17.9,327.6,17.3z M333,23.3
	l0.6-18.1h2.6l-0.4,11.1l6.1-6.2l1.8,1.4l-4.4,4.3l5,6.6l-2.1,1.5l-4.7-6.3l-1.9,1.9l-0.1,3.5L333,23.3z M350.1,7.4
	c0,0.5-0.2,0.8-0.5,1.2c-0.3,0.3-0.7,0.5-1.2,0.5s-0.8-0.2-1.2-0.5c-0.3-0.3-0.5-0.7-0.5-1.2s0.2-0.9,0.5-1.2
	c0.3-0.3,0.7-0.5,1.2-0.5s0.9,0.2,1.2,0.5C349.9,6.5,350.1,6.9,350.1,7.4z M347.1,11.6l2.4-0.1l-0.1,5.6c0,1.5-0.1,2.8-0.1,3.6
	c0,1.1,0,1.9,0,2.5h-2.4c0-0.4,0-0.9,0-1.4s0-1.1,0-1.6c0-1,0-2.2,0.1-3.7L347.1,11.6z M356.2,23.6l-2.5,0.3l-0.2-6.6
	c0-0.4,0-0.9,0-1.4s0-1,0-1.5s0-0.8,0-1.1c0-1.1-0.1-1.9-0.1-2.5h2.7v3.4c0.3-0.4,0.6-0.9,0.9-1.3c0.3-0.4,0.7-0.8,1.1-1.1
	s0.8-0.6,1.2-0.7c0.4-0.2,0.9-0.3,1.4-0.3c0.6,0,1.1,0,1.6,0.2c0.4,0.1,0.8,0.3,1.1,0.6c0.3,0.2,0.6,0.5,0.8,0.9
	c0.2,0.4,0.4,0.7,0.5,1.1c0.1,0.4,0.2,0.7,0.2,1.1c0.1,0.4,0.1,0.7,0.1,1c0,1.3,0.1,2.7,0,4.1c0,1.4-0.1,2.8-0.1,4.2l-2.4-0.1
	c0.1-1.3,0.1-2.5,0.2-3.8s0.1-2.5,0-3.8c0-0.3,0-0.6-0.1-0.9c-0.1-0.4-0.2-0.7-0.3-1.1c-0.1-0.2-0.3-0.5-0.5-0.6
	c-0.2-0.2-0.4-0.3-0.7-0.4c-0.3-0.1-0.6-0.1-0.9-0.1c-0.6,0.1-1.2,0.5-1.9,1.3c-0.6,0.8-1.3,2-2.1,3.6l0.1,3c0,0.4,0,0.7,0,1
	s0,0.5,0,0.7C356.2,23.1,356.2,23.4,356.2,23.6z M378.8,12.3V10l2.3,0.1L381,23.5c0,0.3,0,0.5-0.1,0.8c0,0.3-0.1,0.5-0.1,0.8
	c-0.3,1-0.7,2-1.5,2.8c-0.4,0.4-0.8,0.8-1.3,1.1c-0.5,0.3-1,0.6-1.6,0.8c-0.6,0.2-1.2,0.3-1.9,0.4c-0.9,0-1.8-0.1-2.7-0.3
	c-0.8-0.2-1.5-0.6-2.2-1.1s-1.3-1.2-1.6-2.1l2.3-1c0.3,0.6,0.7,1.1,1.2,1.4s1,0.6,1.5,0.7c0.6,0.1,1.2,0.1,1.8,0.1
	c0.3-0.1,0.5-0.1,0.8-0.2c0.2-0.1,0.5-0.2,0.7-0.3c0.4-0.2,0.7-0.5,1-0.8s0.5-0.6,0.7-0.9c0.1-0.2,0.2-0.3,0.2-0.5
	c0.1-0.1,0.1-0.3,0.2-0.4c0.1-0.3,0.2-0.5,0.2-0.8c0-0.2,0.1-0.4,0.1-0.5V22c-0.5,0.4-1,0.8-1.5,1s-1,0.4-1.4,0.5
	c-0.3,0.1-0.5,0.1-0.8,0.2c-0.2,0-0.5,0.1-0.7,0.1c-1.8,0-3.4-0.6-4.6-1.8c-0.6-0.6-1-1.3-1.4-2.1c-0.3-0.8-0.5-1.8-0.5-2.8
	c0-1.1,0.2-2,0.6-2.8s0.9-1.5,1.5-2.1c0.6-0.6,1.3-1,2-1.3c0.8-0.3,1.5-0.5,2.3-0.5c0.5,0.1,1.1,0.2,1.6,0.4c0.5,0.1,1,0.4,1.5,0.6
	C377.8,11.4,378.3,11.8,378.8,12.3z M374.3,21.5c1,0,2-0.3,2.8-1c0.4-0.3,0.7-0.7,1-1.1c0.3-0.5,0.5-0.9,0.6-1.5v-1.5
	c-0.1-0.6-0.3-1.1-0.6-1.5c-0.3-0.5-0.6-0.9-1-1.2c-0.8-0.7-1.8-1-2.9-1c-0.6,0-1.1,0.1-1.6,0.4c-0.5,0.2-0.9,0.5-1.2,0.9
	c-0.3,0.4-0.6,0.9-0.8,1.4c-0.2,0.6-0.3,1.2-0.3,1.8s0.1,1.2,0.3,1.8c0.2,0.5,0.5,1,0.8,1.4s0.8,0.7,1.2,0.9
	C373.2,21.4,373.8,21.5,374.3,21.5z M396.4,11.4l0.1-5.1l2.3-0.2l-0.1,5.2l4.5-0.2l-0.2,2.2l-4.4,0.1l-0.1,10.2l-2.5,0.1l0.2-10.2
	l-4.1,0.1v-2.2H396.4z M417.3,17.3c0,1-0.2,1.9-0.5,2.7c-0.3,0.8-0.8,1.6-1.3,2.2c-0.6,0.6-1.2,1.1-2,1.4c-0.8,0.4-1.6,0.5-2.4,0.5
	c-1.8,0-3.2-0.6-4.4-1.9c-0.6-0.6-1-1.3-1.3-2.2c-0.3-0.8-0.5-1.8-0.5-2.8s0.2-2,0.5-2.8c0.3-0.9,0.8-1.6,1.3-2.2
	c0.6-0.6,1.2-1.1,2-1.4c0.8-0.3,1.6-0.5,2.4-0.5s1.7,0.2,2.4,0.5c0.8,0.3,1.4,0.8,2,1.4c0.6,0.6,1,1.3,1.3,2.2
	C417.2,15.4,417.3,16.3,417.3,17.3z M414.9,17.3c0-0.6-0.1-1.1-0.2-1.7c-0.1-0.6-0.4-1.1-0.7-1.5c-0.3-0.5-0.7-0.8-1.2-1.1
	s-1.1-0.4-1.8-0.4c-0.7,0-1.2,0.1-1.7,0.4c-0.5,0.3-0.9,0.7-1.2,1.1c-0.3,0.5-0.5,1-0.7,1.5c-0.1,0.6-0.2,1.1-0.2,1.7
	s0.1,1.1,0.2,1.7c0.2,0.6,0.4,1.1,0.7,1.5c0.3,0.5,0.7,0.8,1.2,1.1c0.5,0.3,1,0.4,1.7,0.4s1.2-0.1,1.7-0.4s0.9-0.7,1.2-1.1
	c0.3-0.5,0.5-1,0.7-1.5C414.8,18.4,414.9,17.9,414.9,17.3z M432.3,7.4c0,0.5-0.2,0.8-0.5,1.2c-0.3,0.3-0.7,0.5-1.2,0.5
	s-0.8-0.2-1.2-0.5c-0.3-0.3-0.5-0.7-0.5-1.2s0.2-0.9,0.5-1.2c0.3-0.3,0.7-0.5,1.2-0.5s0.9,0.2,1.2,0.5
	C432.2,6.5,432.3,6.9,432.3,7.4z M429.3,11.5l2.4,0.1c0,1.2,0,2.3,0,3.3s0,1.9,0,2.6c0,0.4,0,0.9,0,1.3c0,0.5,0,0.9,0,1.4
	c0,0.4,0,0.8,0,1c0,0.5,0,1,0,1.4s0,0.8,0,1s0,0.4,0,0.6s0,0.5-0.1,0.7c-0.1,0.5-0.2,0.9-0.3,1.4c-0.2,0.5-0.4,0.9-0.7,1.3
	c-0.3,0.4-0.7,0.8-1.1,1.1c-0.5,0.3-1,0.6-1.7,0.8c-0.6,0.2-1.4,0.3-2.3,0.3l0.1-2.6c0.8,0.1,1.5,0,2-0.4c0.5-0.3,0.9-0.8,1.2-1.3
	c0.3-0.6,0.4-1.2,0.5-2c0-0.4,0-0.9,0-1.4s0-1.1,0-1.7c0-1,0-2.3,0-3.8C429.3,15.3,429.3,13.5,429.3,11.5z M447.4,17.3
	c0,1-0.2,1.9-0.5,2.7c-0.3,0.8-0.8,1.6-1.3,2.2c-0.6,0.6-1.2,1.1-2,1.4c-0.8,0.4-1.6,0.5-2.4,0.5c-1.8,0-3.2-0.6-4.4-1.9
	c-0.6-0.6-1-1.3-1.3-2.2c-0.3-0.8-0.5-1.8-0.5-2.8s0.2-2,0.5-2.8c0.3-0.9,0.8-1.6,1.3-2.2c0.6-0.6,1.2-1.1,2-1.4
	c0.8-0.3,1.6-0.5,2.4-0.5s1.7,0.2,2.4,0.5c0.8,0.3,1.4,0.8,2,1.4c0.6,0.6,1,1.3,1.3,2.2C447.2,15.4,447.4,16.3,447.4,17.3z
	 M444.9,17.3c0-0.6-0.1-1.1-0.2-1.7c-0.1-0.6-0.4-1.1-0.7-1.5c-0.3-0.5-0.7-0.8-1.2-1.1s-1.1-0.4-1.8-0.4c-0.7,0-1.2,0.1-1.7,0.4
	c-0.5,0.3-0.9,0.7-1.2,1.1c-0.3,0.5-0.5,1-0.7,1.5c-0.1,0.6-0.2,1.1-0.2,1.7s0.1,1.1,0.2,1.7c0.2,0.6,0.4,1.1,0.7,1.5
	c0.3,0.5,0.7,0.8,1.2,1.1c0.5,0.3,1,0.4,1.7,0.4s1.2-0.1,1.7-0.4s0.9-0.7,1.2-1.1c0.3-0.5,0.5-1,0.7-1.5
	C444.8,18.4,444.9,17.9,444.9,17.3z M453.6,7.4c0,0.5-0.2,0.8-0.5,1.2c-0.3,0.3-0.7,0.5-1.2,0.5s-0.8-0.2-1.2-0.5
	c-0.3-0.3-0.5-0.7-0.5-1.2s0.2-0.9,0.5-1.2c0.3-0.3,0.7-0.5,1.2-0.5s0.9,0.2,1.2,0.5C453.5,6.5,453.6,6.9,453.6,7.4z M450.7,11.6
	l2.4-0.1l-0.1,5.6c0,1.5-0.1,2.8-0.1,3.6c0,1.1,0,1.9,0,2.5h-2.4c0-0.4,0-0.9,0-1.4s0-1.1,0-1.6c0-1,0-2.2,0.1-3.7L450.7,11.6z
	 M459.8,23.6l-2.5,0.3l-0.2-6.6c0-0.4,0-0.9,0-1.4s0-1,0-1.5s0-0.8,0-1.1c0-1.1-0.1-1.9-0.1-2.5h2.7v3.4c0.3-0.4,0.5-0.9,0.9-1.3
	c0.3-0.4,0.7-0.8,1.1-1.1s0.8-0.6,1.2-0.7c0.4-0.2,0.9-0.3,1.4-0.3c0.6,0,1.1,0,1.6,0.2c0.4,0.1,0.8,0.3,1.1,0.6
	c0.3,0.2,0.6,0.5,0.8,0.9c0.2,0.4,0.4,0.7,0.5,1.1c0.1,0.4,0.2,0.7,0.2,1.1c0.1,0.4,0.1,0.7,0.1,1c0,1.3,0.1,2.7,0,4.1
	c0,1.4-0.1,2.8-0.1,4.2l-2.4-0.1c0.1-1.3,0.1-2.5,0.2-3.8s0-2.5,0-3.8c0-0.3,0-0.6-0.1-0.9c-0.1-0.4-0.2-0.7-0.3-1.1
	c-0.1-0.2-0.3-0.5-0.5-0.6c-0.2-0.2-0.4-0.3-0.7-0.4c-0.3-0.1-0.6-0.1-0.9-0.1c-0.6,0.1-1.2,0.5-1.9,1.3c-0.6,0.8-1.3,2-2.1,3.6
	l0.1,3c0,0.4,0,0.7,0,1s0,0.5,0,0.7C459.8,23.1,459.8,23.4,459.8,23.6z M492.4,24.1l-2.3-0.4l0.2-1.7c-1,0.6-1.9,1.1-2.8,1.3
	c-0.9,0.3-1.8,0.4-2.6,0.4c-0.6,0-1.1-0.1-1.6-0.2s-1-0.4-1.4-0.7c-0.4-0.3-0.7-0.7-1-1.1c-0.2-0.5-0.4-1-0.4-1.7
	c0-0.6,0.1-1.2,0.3-1.7c0.2-0.5,0.4-0.9,0.8-1.3c0.3-0.4,0.7-0.7,1.2-1c0.4-0.3,0.9-0.5,1.4-0.7s1-0.3,1.6-0.4
	c0.6-0.1,1.1-0.1,1.7-0.1c0.5,0,1,0,1.4,0.1c0.4,0,0.8,0.1,1.2,0.2c-0.1-0.6-0.3-1.1-0.6-1.6c-0.2-0.5-0.5-0.9-0.9-1.2
	s-0.9-0.5-1.5-0.5c-0.3,0-0.7,0-1,0.1c-0.4,0.1-0.8,0.2-1.3,0.5c-0.5,0.2-1,0.6-1.5,1c-0.6,0.4-1.1,0.9-1.8,1.6l-1.4-1.7
	c0.8-0.7,1.5-1.3,2.2-1.7s1.3-0.8,1.9-1.1s1.2-0.4,1.7-0.5s1-0.1,1.4-0.1c0.7,0,1.4,0.1,1.9,0.4c0.6,0.2,1.1,0.6,1.5,1
	s0.8,0.9,1.1,1.5c0.3,0.6,0.5,1.2,0.7,1.9s0.3,1.4,0.4,2.1c0.1,0.7,0.1,1.4,0.1,2.1c0,0.8,0,1.6-0.1,2.4S492.5,23.1,492.4,24.1z
	 M490.4,19.5c0-0.4,0-0.8,0-1.2s0-0.8-0.1-1.2c-0.4-0.1-0.8-0.2-1.2-0.3c-0.4-0.1-0.8-0.1-1.3-0.1c-0.7,0-1.4,0.1-2.1,0.2
	c-0.7,0.2-1.2,0.4-1.7,0.7c-0.5,0.3-0.8,0.7-1.1,1.1c-0.2,0.5-0.3,1-0.1,1.5c0.1,0.5,0.3,0.8,0.6,1c0.3,0.2,0.7,0.3,1.1,0.3
	c0.6,0,1.2-0.1,1.9-0.4c0.7-0.3,1.4-0.5,2.1-0.9C489.4,20.1,490,19.7,490.4,19.5z M517.2,14.2L517.2,14.2l-1.9,1.2v-0.1
	c-0.4-0.8-1-1.4-1.7-1.9s-1.5-0.7-2.4-0.7c-0.6,0-1.2,0.1-1.8,0.4c-0.6,0.2-1,0.6-1.5,1c-0.4,0.4-0.8,0.9-1,1.5
	c-0.2,0.6-0.4,1.2-0.4,1.8s0.1,1.2,0.4,1.8s0.6,1.1,1,1.5s0.9,0.8,1.5,1s1.2,0.4,1.8,0.4c0.8,0,1.6-0.2,2.3-0.6s1.3-1,1.7-1.7v-0.1
	l2,1.2V21c-0.3,0.5-0.7,1-1.1,1.4c-0.4,0.4-0.9,0.8-1.4,1.1c-1.1,0.6-2.3,0.9-3.5,0.9c-0.9,0-1.7-0.2-2.6-0.5
	c-0.8-0.3-1.6-0.8-2.2-1.4s-1.2-1.3-1.5-2.2c-0.4-0.8-0.6-1.7-0.6-2.7c0-0.6,0.1-1.2,0.2-1.7c0.3-1.2,0.9-2.2,1.7-3
	c0.2-0.2,0.4-0.4,0.7-0.6c0.2-0.2,0.5-0.4,0.7-0.5c0.5-0.3,1.1-0.5,1.7-0.7s1.2-0.3,1.9-0.3c1.3,0,2.6,0.3,3.6,0.9
	C515.8,12.1,516.7,13,517.2,14.2z M531.3,15.5l-2.3,0.9c0-0.7-0.1-1.2-0.3-1.6c-0.2-0.4-0.4-0.7-0.7-0.9s-0.6-0.3-0.9-0.3
	c-0.2,0-0.5,0.1-0.7,0.3c-0.2,0.1-0.5,0.3-0.8,0.6c-0.3,0.2-0.5,0.5-0.8,0.8c-0.1,0.1-0.3,0.3-0.4,0.5s-0.3,0.3-0.4,0.5
	c-0.2,0.3-0.5,0.6-0.7,0.9s-0.4,0.6-0.6,0.9c0,0.3,0,0.7,0,1.1s0,0.8,0,1.2c0,0.4,0,0.7,0,1c0,0.5,0,0.9,0,1.3s0,0.7,0.1,0.9
	l-2.5,0.3l-0.2-6.6c0-0.4,0-0.9,0-1.4s0-1,0-1.5s0-0.8,0-1.1c0-1.1-0.1-1.9-0.1-2.5h2.7c0,0.2,0,0.5,0,0.7s0,0.5,0,0.7
	c0,0.3,0,0.5,0,0.7s0,0.4,0,0.6c0,0.2,0,0.5,0,0.7s0,0.5,0,0.7c0.2-0.4,0.5-0.8,0.8-1.2s0.7-0.8,1.1-1.2c0.4-0.4,0.9-0.7,1.3-1
	c0.5-0.3,1-0.5,1.6-0.5s1.2,0.1,1.7,0.4c0.2,0.1,0.4,0.3,0.6,0.5c0.2,0.2,0.4,0.5,0.6,0.8c0.2,0.3,0.3,0.7,0.5,1.2
	C531.1,14.4,531.2,14.9,531.3,15.5z M545.4,17.3c0,1-0.2,1.9-0.5,2.7c-0.3,0.8-0.8,1.6-1.3,2.2c-0.6,0.6-1.2,1.1-2,1.4
	c-0.8,0.4-1.6,0.5-2.4,0.5c-1.8,0-3.2-0.6-4.4-1.9c-0.6-0.6-1-1.3-1.3-2.2c-0.3-0.8-0.5-1.8-0.5-2.8s0.2-2,0.5-2.8
	c0.3-0.9,0.8-1.6,1.3-2.2c0.6-0.6,1.2-1.1,2-1.4c0.8-0.3,1.6-0.5,2.4-0.5s1.7,0.2,2.4,0.5c0.8,0.3,1.4,0.8,2,1.4
	c0.6,0.6,1,1.3,1.3,2.2C545.3,15.4,545.4,16.3,545.4,17.3z M543,17.3c0-0.6-0.1-1.1-0.2-1.7c-0.1-0.6-0.4-1.1-0.7-1.5
	c-0.3-0.5-0.7-0.8-1.2-1.1s-1.1-0.4-1.8-0.4s-1.2,0.1-1.7,0.4c-0.5,0.3-0.9,0.7-1.2,1.1c-0.3,0.5-0.5,1-0.7,1.5
	c-0.1,0.6-0.2,1.1-0.2,1.7s0.1,1.1,0.2,1.7c0.2,0.6,0.4,1.1,0.7,1.5c0.3,0.5,0.7,0.8,1.2,1.1c0.5,0.3,1,0.4,1.7,0.4s1.2-0.1,1.7-0.4
	s0.9-0.7,1.2-1.1c0.3-0.5,0.5-1,0.7-1.5C542.9,18.4,543,17.9,543,17.3z M559.3,20.4c0,0.7-0.1,1.4-0.4,1.9c-0.3,0.5-0.7,0.9-1.2,1.2
	c-0.5,0.3-1.1,0.5-1.7,0.7c-0.7,0.2-1.3,0.3-2,0.3s-1.5-0.1-2.2-0.2c-0.6-0.1-1.3-0.3-2.1-0.6c-0.8-0.3-1.5-0.7-2.1-1.2l1.1-1.8
	c0.4,0.2,0.9,0.4,1.3,0.7c0.5,0.2,0.9,0.4,1.4,0.6s0.9,0.3,1.4,0.4s1,0.1,1.5,0.1c0.7,0,1.3-0.1,1.7-0.4s0.7-0.6,0.8-0.9
	c0.1-0.5,0-0.9-0.4-1.3c-0.1-0.1-0.2-0.1-0.3-0.2s-0.2-0.1-0.3-0.2c-0.3-0.1-0.6-0.2-0.9-0.3c-0.4-0.1-0.8-0.1-1.3-0.2
	c-0.7,0-1.4-0.1-2-0.2s-1.2-0.3-1.7-0.5s-0.9-0.6-1.3-0.9c-0.3-0.4-0.5-0.9-0.6-1.5c-0.1-0.5,0-1.1,0.1-1.5c0.3-0.9,0.8-1.6,1.5-2.2
	c0.2-0.1,0.4-0.3,0.6-0.4c0.2-0.1,0.4-0.2,0.7-0.3c0.5-0.2,0.9-0.3,1.4-0.4c0.5-0.1,1-0.1,1.5-0.1c0.3,0,0.7,0,1.1,0
	c0.4,0,0.8,0.1,1.3,0.2c0.5,0.1,0.9,0.2,1.4,0.4s0.9,0.4,1.3,0.7l-0.8,2.1c-0.5-0.3-1-0.5-1.5-0.6c-0.5-0.2-0.9-0.3-1.2-0.4
	c-0.2,0-0.4-0.1-0.6-0.1c-0.2,0-0.4-0.1-0.6-0.1c-1.2-0.1-2.2,0.1-2.9,0.4c-0.7,0.3-1,0.8-1,1.5c0,0.5,0.1,0.8,0.4,1
	c0.3,0.2,0.6,0.4,1.1,0.5c0.3,0.1,0.6,0.1,1,0.1s0.8,0.1,1.3,0.1c0.4,0,0.8,0.1,1.2,0.1c0.8,0.1,1.4,0.3,1.9,0.5s0.9,0.5,1.3,0.8
	c0.3,0.3,0.6,0.7,0.7,1C559.2,19.6,559.3,20,559.3,20.4z M573.1,20.4c0,0.7-0.1,1.4-0.4,1.9c-0.3,0.5-0.7,0.9-1.2,1.2
	c-0.5,0.3-1.1,0.5-1.7,0.7c-0.7,0.2-1.3,0.3-2,0.3s-1.5-0.1-2.2-0.2c-0.6-0.1-1.3-0.3-2.1-0.6c-0.8-0.3-1.5-0.7-2.1-1.2l1.1-1.8
	c0.4,0.2,0.9,0.4,1.3,0.7c0.5,0.2,0.9,0.4,1.4,0.6s0.9,0.3,1.4,0.4s1,0.1,1.5,0.1c0.7,0,1.3-0.1,1.7-0.4s0.7-0.6,0.8-0.9
	c0.1-0.5,0-0.9-0.4-1.3c-0.1-0.1-0.2-0.1-0.3-0.2s-0.2-0.1-0.3-0.2c-0.3-0.1-0.6-0.2-0.9-0.3c-0.4-0.1-0.8-0.1-1.3-0.2
	c-0.7,0-1.4-0.1-2-0.2s-1.2-0.3-1.7-0.5s-0.9-0.6-1.3-0.9c-0.3-0.4-0.5-0.9-0.6-1.5c-0.1-0.5,0-1.1,0.1-1.5c0.3-0.9,0.8-1.6,1.5-2.2
	c0.2-0.1,0.4-0.3,0.6-0.4c0.2-0.1,0.4-0.2,0.7-0.3c0.5-0.2,0.9-0.3,1.4-0.4c0.5-0.1,1-0.1,1.5-0.1c0.3,0,0.7,0,1.1,0
	c0.4,0,0.8,0.1,1.3,0.2c0.5,0.1,0.9,0.2,1.4,0.4s0.9,0.4,1.3,0.7l-0.8,2.1c-0.5-0.3-1-0.5-1.5-0.6c-0.5-0.2-0.9-0.3-1.2-0.4
	c-0.2,0-0.4-0.1-0.6-0.1c-0.2,0-0.4-0.1-0.6-0.1c-1.2-0.1-2.2,0.1-2.9,0.4c-0.7,0.3-1,0.8-1,1.5c0,0.5,0.1,0.8,0.4,1
	c0.3,0.2,0.6,0.4,1.1,0.5c0.3,0.1,0.6,0.1,1,0.1s0.8,0.1,1.3,0.1c0.4,0,0.8,0.1,1.2,0.1c0.8,0.1,1.4,0.3,1.9,0.5s0.9,0.5,1.3,0.8
	c0.3,0.3,0.5,0.7,0.7,1C573,19.6,573.1,20,573.1,20.4z M575.9,13.8l9.3-0.3V16l-9.3,0.3V13.8z M587.8,13.3v-2.2h2.8
	c0.1-0.8,0.3-1.6,0.5-2.4c0.3-0.8,0.6-1.4,1.1-2c0.4-0.6,1-1.1,1.7-1.4c0.7-0.4,1.5-0.5,2.4-0.5c0.5,0,1.1,0.1,1.6,0.3
	c0.6,0.2,1.1,0.5,1.7,1l-1.2,2c-0.4-0.3-0.8-0.5-1.2-0.6s-0.8-0.2-1.1-0.2c-0.4,0-0.7,0-1,0c-0.3,0.1-0.6,0.2-0.8,0.4
	c-0.2,0.2-0.5,0.4-0.6,0.7c-0.3,0.6-0.6,1.5-0.7,2.9h5l-0.3,2.3l-4.9-0.1v1c0,0.5,0,1,0,1.6c0,0.5,0,1.1,0,1.6v3.1
	c0,0.5,0,1.1,0,1.6s0,1.1,0,1.6h-2.4c0-0.9,0-1.6,0-2.4c0-0.7,0-1.4,0-2s0-1.2,0-1.7s0-1,0-1.4v-2.3v-0.8L587.8,13.3z M611.8,23.8
	h-2.7v-3.4c-0.3,0.5-0.6,0.9-0.9,1.3c-0.3,0.4-0.7,0.8-1.1,1.1c-0.4,0.3-0.8,0.6-1.2,0.7c-0.4,0.2-0.9,0.3-1.4,0.2
	c-0.7,0-1.3-0.2-1.8-0.4c-0.5-0.2-0.9-0.6-1.3-1c-0.3-0.4-0.6-0.9-0.8-1.4s-0.4-1.1-0.5-1.7s-0.2-1.2-0.2-1.8c0-0.6,0-1.2,0-1.8
	c0-0.8,0-1.6,0.1-2.5c0.1-0.8,0.2-1.7,0.3-2.6l2.4,0.1c-0.1,1-0.2,1.8-0.3,2.6c0,0.8-0.1,1.5-0.1,2c0,0.1,0,0.3,0,0.5s0,0.3,0,0.6
	c0,0.4,0,0.8,0.1,1.3s0.1,0.9,0.2,1.3c0.1,0.4,0.3,0.8,0.5,1.2c0.2,0.4,0.5,0.6,0.8,0.8c0.3,0.2,0.7,0.3,1.1,0.2
	c0.6-0.1,1.2-0.5,1.9-1.2c0.7-0.8,1.3-1.9,2.1-3.4l-0.1-3c0-0.4,0-0.7,0-1s0-0.5,0-0.7c0-0.5,0-0.8,0-1l2.5-0.3l0.1,3.6
	c0,0.5,0,1.1,0,1.5c0,0.5,0,0.9,0,1.4c0,0.4,0,0.9,0,1.4s0,1,0,1.5s0,0.8,0,1.1c0,0.6,0,1,0,1.5C611.8,23.2,611.8,23.5,611.8,23.8z
	 M618.4,23.6l-2.5,0.3l-0.2-6.6c0-0.4,0-0.9,0-1.4s0-1,0-1.5s0-0.8,0-1.1c0-1.1-0.1-1.9-0.1-2.5h2.7v3.4c0.3-0.4,0.6-0.9,0.9-1.3
	c0.3-0.4,0.7-0.8,1.1-1.1s0.8-0.6,1.2-0.7c0.4-0.2,0.9-0.3,1.4-0.3c0.6,0,1.1,0,1.6,0.2c0.4,0.1,0.8,0.3,1.1,0.6
	c0.3,0.2,0.6,0.5,0.8,0.9s0.4,0.7,0.5,1.1c0.1,0.4,0.2,0.7,0.2,1.1c0.1,0.4,0.1,0.7,0.1,1c0,1.3,0.1,2.7,0,4.1
	c0,1.4-0.1,2.8-0.1,4.2l-2.4-0.1c0.1-1.3,0.1-2.5,0.2-3.8c0.1-1.3,0.1-2.5,0-3.8c0-0.3,0-0.6-0.1-0.9c-0.1-0.4-0.2-0.7-0.3-1.1
	c-0.1-0.2-0.3-0.5-0.5-0.6c-0.2-0.2-0.4-0.3-0.7-0.4c-0.3-0.1-0.6-0.1-0.9-0.1c-0.6,0.1-1.2,0.5-1.9,1.3c-0.6,0.8-1.3,2-2.1,3.6
	l0.1,3c0,0.4,0,0.7,0,1s0,0.5,0,0.7C618.4,23.1,618.4,23.4,618.4,23.6z M643,14.2L643,14.2l-1.9,1.2v-0.1c-0.4-0.8-1-1.4-1.7-1.9
	s-1.5-0.7-2.4-0.7c-0.6,0-1.2,0.1-1.8,0.4c-0.6,0.2-1,0.6-1.5,1c-0.4,0.4-0.8,0.9-1,1.5c-0.2,0.6-0.4,1.2-0.4,1.8s0.1,1.2,0.4,1.8
	s0.6,1.1,1,1.5s0.9,0.8,1.5,1s1.2,0.4,1.8,0.4c0.8,0,1.6-0.2,2.3-0.6s1.3-1,1.7-1.7v-0.1l2,1.2V21c-0.3,0.5-0.7,1-1.1,1.4
	c-0.4,0.4-0.9,0.8-1.4,1.1c-1.1,0.6-2.3,0.9-3.5,0.9c-0.9,0-1.7-0.2-2.6-0.5c-0.8-0.3-1.6-0.8-2.2-1.4c-0.6-0.6-1.2-1.3-1.5-2.2
	c-0.4-0.8-0.6-1.7-0.6-2.7c0-0.6,0.1-1.2,0.2-1.7c0.3-1.2,0.9-2.2,1.7-3c0.2-0.2,0.4-0.4,0.7-0.6c0.2-0.2,0.5-0.4,0.7-0.5
	c0.5-0.3,1.1-0.5,1.7-0.7c0.6-0.2,1.2-0.3,1.9-0.3c1.3,0,2.6,0.3,3.6,0.9C641.7,12.1,642.5,13,643,14.2z M648.6,11.4l0.1-5.1
	l2.3-0.2l-0.1,5.2l4.5-0.2l-0.2,2.2l-4.4,0.1l-0.1,10.2l-2.5,0.1l0.2-10.2l-4.1,0.1v-2.2H648.6z M661,7.4c0,0.5-0.2,0.8-0.5,1.2
	c-0.3,0.3-0.7,0.5-1.2,0.5s-0.8-0.2-1.2-0.5c-0.3-0.3-0.5-0.7-0.5-1.2s0.2-0.9,0.5-1.2c0.3-0.3,0.7-0.5,1.2-0.5s0.9,0.2,1.2,0.5
	C660.8,6.5,661,6.9,661,7.4z M658,11.6l2.4-0.1l-0.1,5.6c0,1.5-0.1,2.8-0.1,3.6c0,1.1,0,1.9,0,2.5h-2.4c0-0.4,0-0.9,0-1.4
	s0-1.1,0-1.6c0-1,0-2.2,0.1-3.7L658,11.6z M676,17.3c0,1-0.2,1.9-0.5,2.7c-0.3,0.8-0.8,1.6-1.3,2.2c-0.6,0.6-1.2,1.1-2,1.4
	c-0.8,0.4-1.6,0.5-2.5,0.5c-1.8,0-3.2-0.6-4.4-1.9c-0.6-0.6-1-1.3-1.3-2.2c-0.3-0.8-0.5-1.8-0.5-2.8s0.2-2,0.5-2.8
	c0.3-0.9,0.8-1.6,1.3-2.2c0.6-0.6,1.2-1.1,2-1.4c0.8-0.3,1.6-0.5,2.4-0.5s1.7,0.2,2.5,0.5s1.4,0.8,2,1.4c0.6,0.6,1,1.3,1.3,2.2
	C675.9,15.4,676,16.3,676,17.3z M673.6,17.3c0-0.6-0.1-1.1-0.2-1.7c-0.1-0.6-0.4-1.1-0.7-1.5c-0.3-0.5-0.7-0.8-1.2-1.1
	s-1.1-0.4-1.8-0.4s-1.2,0.1-1.7,0.4c-0.5,0.3-0.9,0.7-1.2,1.1c-0.3,0.5-0.5,1-0.7,1.5c-0.1,0.6-0.2,1.1-0.2,1.7s0.1,1.1,0.2,1.7
	c0.2,0.6,0.4,1.1,0.7,1.5c0.3,0.5,0.7,0.8,1.2,1.1c0.5,0.3,1,0.4,1.7,0.4s1.2-0.1,1.7-0.4s0.9-0.7,1.2-1.1c0.3-0.5,0.5-1,0.7-1.5
	C673.5,18.4,673.6,17.9,673.6,17.3z M682,23.6l-2.5,0.3l-0.2-6.6c0-0.4,0-0.9,0-1.4s0-1,0-1.5s0-0.8,0-1.1c0-1.1-0.1-1.9-0.1-2.5
	h2.7v3.4c0.3-0.4,0.6-0.9,0.9-1.3c0.3-0.4,0.7-0.8,1.1-1.1s0.8-0.6,1.2-0.7c0.4-0.2,0.9-0.3,1.4-0.3c0.6,0,1.1,0,1.6,0.2
	c0.4,0.1,0.8,0.3,1.1,0.6c0.3,0.2,0.6,0.5,0.8,0.9s0.4,0.7,0.5,1.1c0.1,0.4,0.2,0.7,0.2,1.1c0.1,0.4,0.1,0.7,0.1,1
	c0,1.3,0.1,2.7,0,4.1c0,1.4-0.1,2.8-0.1,4.2l-2.4-0.1c0.1-1.3,0.1-2.5,0.2-3.8c0.1-1.3,0.1-2.5,0-3.8c0-0.3,0-0.6-0.1-0.9
	c-0.1-0.4-0.2-0.7-0.3-1.1c-0.1-0.2-0.3-0.5-0.5-0.6c-0.2-0.2-0.4-0.3-0.7-0.4c-0.3-0.1-0.6-0.1-0.9-0.1c-0.6,0.1-1.2,0.5-1.9,1.3
	c-0.6,0.8-1.3,2-2.1,3.6l0.1,3c0,0.4,0,0.7,0,1s0,0.5,0,0.7C682,23.1,682,23.4,682,23.6z M705.9,24.1l-2.3-0.4l0.2-1.7
	c-1,0.6-1.9,1.1-2.8,1.3c-0.9,0.3-1.8,0.4-2.6,0.4c-0.6,0-1.1-0.1-1.6-0.2s-1-0.4-1.4-0.7c-0.4-0.3-0.7-0.7-1-1.1
	c-0.2-0.5-0.4-1-0.4-1.7c0-0.6,0.1-1.2,0.3-1.7s0.4-0.9,0.8-1.3c0.3-0.4,0.7-0.7,1.2-1c0.4-0.3,0.9-0.5,1.4-0.7s1-0.3,1.6-0.4
	c0.6-0.1,1.1-0.1,1.7-0.1c0.5,0,1,0,1.4,0.1c0.4,0,0.8,0.1,1.2,0.2c-0.1-0.6-0.3-1.1-0.6-1.6c-0.2-0.5-0.5-0.9-0.9-1.2
	s-0.9-0.5-1.5-0.5c-0.3,0-0.7,0-1,0.1c-0.4,0.1-0.8,0.2-1.3,0.5c-0.5,0.2-1,0.6-1.5,1c-0.6,0.4-1.1,0.9-1.8,1.6l-1.4-1.7
	c0.8-0.7,1.5-1.3,2.2-1.7s1.3-0.8,1.9-1.1c0.6-0.3,1.2-0.4,1.7-0.5s1-0.1,1.4-0.1c0.7,0,1.4,0.1,1.9,0.4c0.6,0.2,1.1,0.6,1.5,1
	s0.8,0.9,1.1,1.5s0.5,1.2,0.7,1.9s0.3,1.4,0.4,2.1c0.1,0.7,0.1,1.4,0.1,2.1c0,0.8,0,1.6-0.1,2.4S706,23.1,705.9,24.1z M703.9,19.5
	c0-0.4,0-0.8,0-1.2s0-0.8-0.1-1.2c-0.4-0.1-0.8-0.2-1.2-0.3c-0.4-0.1-0.8-0.1-1.3-0.1c-0.7,0-1.4,0.1-2.1,0.2
	c-0.7,0.2-1.2,0.4-1.7,0.7c-0.5,0.3-0.8,0.7-1.1,1.1c-0.2,0.5-0.3,1-0.1,1.5c0.1,0.5,0.3,0.8,0.6,1s0.7,0.3,1.1,0.3
	c0.6,0,1.2-0.1,1.9-0.4s1.4-0.5,2.1-0.9C702.9,20.1,703.5,19.7,703.9,19.5z M714.8,21.2l-0.3,2.3c-0.6,0-1-0.1-1.5-0.3
	c-0.4-0.2-0.8-0.4-1.1-0.7c-0.3-0.3-0.6-0.6-0.8-1s-0.4-0.7-0.6-1.1c-0.4-0.9-0.6-1.9-0.7-3l0.3-14.9h2.5l-0.1,3.8
	c0,0.6,0,1.1,0,1.7c0,0.5,0,1,0,1.5c0,0.9,0,1.8-0.1,2.6c0,0.8,0,1.4,0,2c0,1.4-0.1,2.4-0.1,3.2c0,0.7,0.1,1.4,0.3,1.9
	s0.4,1,0.8,1.4C713.7,21,714.2,21.2,714.8,21.2z M728.5,11.4l0.1-5.1l2.3-0.2l-0.1,5.2l4.5-0.2l-0.2,2.2l-4.4,0.1l-0.1,10.2
	l-2.5,0.1l0.2-10.2l-4.1,0.1v-2.2H728.5z M743.3,21.9c0.9,0,1.7-0.3,2.4-0.8s1.2-1.3,1.4-2.2l2.3,0.5c-0.2,0.7-0.5,1.4-0.9,1.9
	c-0.4,0.6-0.9,1.1-1.4,1.5s-1.1,0.7-1.8,1c-0.6,0.2-1.3,0.3-2,0.3c-1,0-1.9-0.2-2.7-0.5s-1.5-0.8-2-1.3c-1.1-1.2-1.7-2.8-1.7-4.8
	c0-1,0.2-1.9,0.5-2.7c0.3-0.9,0.8-1.6,1.4-2.2s1.3-1.1,2-1.5c0.8-0.4,1.6-0.5,2.5-0.5c0.8,0,1.6,0.2,2.3,0.5s1.4,0.7,1.9,1.3
	c0.6,0.6,1,1.2,1.4,2s0.6,1.6,0.7,2.5l-10.1,1.5c0.1,0.6,0.2,1.1,0.4,1.5s0.5,0.8,0.8,1.1C741.4,21.6,742.2,21.9,743.3,21.9z
	 M739.5,16.2l7.1-0.9l-0.1-0.2c-0.3-0.8-0.7-1.4-1.2-1.8c-0.5-0.4-1.2-0.7-1.9-0.7c-0.3,0-0.7,0.1-1.1,0.2c-0.4,0.1-0.8,0.3-1.1,0.6
	c-0.4,0.3-0.7,0.6-1,1.1C739.8,15,739.6,15.5,739.5,16.2z M763.8,24.1l-2.3-0.4l0.2-1.7c-1,0.6-1.9,1.1-2.8,1.3
	c-0.9,0.3-1.8,0.4-2.6,0.4c-0.6,0-1.1-0.1-1.6-0.2s-1-0.4-1.4-0.7c-0.4-0.3-0.7-0.7-1-1.1c-0.2-0.5-0.4-1-0.4-1.7
	c0-0.6,0.1-1.2,0.3-1.7s0.4-0.9,0.8-1.3c0.3-0.4,0.7-0.7,1.2-1c0.4-0.3,0.9-0.5,1.4-0.7s1-0.3,1.6-0.4c0.6-0.1,1.1-0.1,1.7-0.1
	c0.5,0,1,0,1.4,0.1c0.4,0,0.8,0.1,1.2,0.2c-0.1-0.6-0.3-1.1-0.6-1.6c-0.2-0.5-0.5-0.9-0.9-1.2s-0.9-0.5-1.5-0.5c-0.3,0-0.7,0-1,0.1
	c-0.4,0.1-0.8,0.2-1.3,0.5c-0.5,0.2-1,0.6-1.5,1c-0.6,0.4-1.1,0.9-1.8,1.6l-1.4-1.7c0.8-0.7,1.5-1.3,2.2-1.7s1.3-0.8,1.9-1.1
	c0.6-0.3,1.2-0.4,1.7-0.5s1-0.1,1.4-0.1c0.7,0,1.4,0.1,1.9,0.4c0.6,0.2,1.1,0.6,1.5,1s0.8,0.9,1.1,1.5s0.5,1.2,0.7,1.9
	s0.3,1.4,0.4,2.1c0.1,0.7,0.1,1.4,0.1,2.1c0,0.8,0,1.6-0.1,2.4S764,23.1,763.8,24.1z M761.8,19.5c0-0.4,0-0.8,0-1.2s0-0.8-0.1-1.2
	c-0.4-0.1-0.8-0.2-1.2-0.3c-0.4-0.1-0.8-0.1-1.3-0.1c-0.7,0-1.4,0.1-2.1,0.2c-0.7,0.2-1.2,0.4-1.7,0.7c-0.5,0.3-0.8,0.7-1.1,1.1
	c-0.2,0.5-0.3,1-0.1,1.5c0.1,0.5,0.3,0.8,0.6,1s0.7,0.3,1.1,0.3c0.6,0,1.2-0.1,1.9-0.4s1.4-0.5,2.1-0.9
	C760.9,20.1,761.4,19.7,761.8,19.5z M767.8,10.8l2.5-0.3v3.4c0.4-0.4,0.7-0.9,1.1-1.3c0.4-0.4,0.8-0.8,1.3-1.1s1-0.4,1.6-0.4
	c0.7,0,1.3,0.2,1.8,0.7s0.8,1.1,0.9,2c0.3-0.4,0.7-0.8,1.1-1.3c0.4-0.4,0.8-0.8,1.3-1c0.5-0.3,1-0.4,1.5-0.4c0.8,0,1.4,0.3,1.9,0.8
	s0.8,1.3,0.8,2.3c0,0.3,0,0.6,0.1,1c0,0.4,0,0.7,0.1,1.2c0,0.7,0.1,1.7,0.1,2.8c0,1.1,0,2.5,0,4.1l-2.4,0.1c0-1.4,0-2.6,0-3.6
	s0-1.9,0-2.5v-1.9c0-1.3-0.4-1.9-1-1.9c-0.3,0-0.6,0.1-0.9,0.4c-0.3,0.3-0.6,0.6-0.9,0.9c-0.1,0.1-0.2,0.3-0.3,0.4
	c-0.1,0.1-0.2,0.2-0.3,0.4c-0.2,0.3-0.3,0.5-0.5,0.7s-0.3,0.4-0.4,0.6c0,0.3,0,0.7,0,1.1s0,0.9,0,1.4s0,1.1,0,1.8c0,0.6,0,1.4,0,2.2
	l-2.3,0.1c0-1.4,0-2.6,0-3.6s-0.1-1.9-0.1-2.5c0-0.4,0-0.7-0.1-1.1c0-0.3,0-0.6-0.1-0.9c0-1.3-0.4-1.9-1-1.9c-0.2,0-0.4,0.1-0.6,0.2
	c-0.4,0.3-0.9,0.7-1.3,1.2c-0.1,0.1-0.2,0.3-0.3,0.4c-0.1,0.1-0.2,0.3-0.3,0.4c-0.1,0.2-0.3,0.5-0.5,0.8s-0.3,0.5-0.4,0.7l0.1,6.2
	l-2.3,0.1L767.8,10.8z M174.9,45.8l0.1-3.6l1.7-0.1l-0.1,3.7l3.2-0.1l-0.1,1.6l-3.1,0.1l-0.1,7.2h-1.8l0.1-7.2l-2.9,0.1V46
	L174.9,45.8z M181.5,54.4l-0.1-12.8l1.9-0.1l-0.1,5c0.3-0.3,0.6-0.6,1-0.8c0.3-0.2,0.7-0.3,1-0.4c0.3-0.1,0.7-0.2,1-0.2
	c1.3,0,2.3,0.4,3,1.3c0.4,0.4,0.7,0.9,0.9,1.5s0.3,1.3,0.4,2c0,0.4,0,0.8,0,1.2s0,0.8-0.1,1.2c0,0.4-0.1,0.8-0.1,1.1
	c-0.1,0.4-0.1,0.7-0.2,1l-1.9-0.1c0.2-0.5,0.3-1,0.3-1.6c0.1-0.5,0.1-1,0.1-1.4c0-0.5,0-0.9,0-1.3c0-0.6-0.1-1.1-0.3-1.5
	s-0.4-0.8-0.6-1c-0.3-0.3-0.5-0.4-0.9-0.6c-0.3-0.1-0.6-0.2-0.9-0.2c-0.3,0-0.6,0.1-1,0.3c-0.3,0.1-0.6,0.3-0.9,0.6
	c-0.3,0.3-0.6,0.7-0.9,1.2v5.5L181.5,54.4z M201,54.8l-1.6-0.3l0.1-1.2c-0.7,0.4-1.3,0.7-2,0.9c-0.6,0.2-1.3,0.3-1.8,0.3
	c-0.4,0-0.8-0.1-1.2-0.2c-0.4-0.1-0.7-0.3-1-0.5s-0.5-0.5-0.7-0.8s-0.3-0.7-0.3-1.2c0-0.4,0.1-0.8,0.2-1.2c0.1-0.4,0.3-0.7,0.5-0.9
	c0.2-0.3,0.5-0.5,0.8-0.7s0.7-0.4,1-0.5c0.4-0.1,0.7-0.2,1.1-0.3c0.4-0.1,0.8-0.1,1.2-0.1s0.7,0,1,0s0.6,0.1,0.8,0.1
	c-0.1-0.4-0.2-0.8-0.4-1.1s-0.4-0.6-0.7-0.8s-0.6-0.3-1.1-0.3c-0.2,0-0.5,0-0.7,0.1c-0.3,0.1-0.6,0.2-0.9,0.3s-0.7,0.4-1.1,0.7
	c-0.4,0.3-0.8,0.7-1.3,1.1l-1-1.2c0.5-0.5,1-0.9,1.5-1.2s0.9-0.6,1.4-0.7c0.4-0.2,0.8-0.3,1.2-0.4c0.4-0.1,0.7-0.1,1-0.1
	c0.5,0,1,0.1,1.4,0.3s0.8,0.4,1.1,0.7s0.6,0.7,0.8,1.1c0.2,0.4,0.4,0.8,0.5,1.3s0.2,1,0.3,1.5s0.1,1,0.1,1.5s0,1.1-0.1,1.7
	C201.2,53.4,201.1,54.1,201,54.8z M199.6,51.5c0-0.3,0-0.6,0-0.8c0-0.3,0-0.6,0-0.8c-0.3-0.1-0.6-0.1-0.9-0.2
	c-0.3,0-0.6-0.1-0.9-0.1c-0.5,0-1,0.1-1.5,0.2c-0.5,0.1-0.9,0.3-1.2,0.5s-0.6,0.5-0.8,0.8s-0.2,0.7-0.1,1.1c0.1,0.3,0.2,0.6,0.4,0.7
	c0.2,0.1,0.5,0.2,0.8,0.2c0.4,0,0.9-0.1,1.4-0.3s1-0.4,1.5-0.6C198.9,51.9,199.3,51.7,199.6,51.5z M205.7,45.8l0.1-3.6l1.7-0.1
	l-0.1,3.7l3.2-0.1l-0.1,1.6l-3.1,0.1l-0.1,7.2h-1.8l0.1-7.2l-2.9,0.1V46L205.7,45.8z M221.9,52.8l2.6-7.4l1.7,0.2l-3.3,8.7h-2.3
	l-2.9-8.4l1.7-0.3L221.9,52.8z M236.2,54.8l-1.6-0.3l0.1-1.2c-0.7,0.4-1.3,0.7-2,0.9c-0.6,0.2-1.3,0.3-1.8,0.3
	c-0.4,0-0.8-0.1-1.2-0.2c-0.4-0.1-0.7-0.3-1-0.5s-0.5-0.5-0.7-0.8s-0.3-0.7-0.3-1.2c0-0.4,0.1-0.8,0.2-1.2c0.1-0.4,0.3-0.7,0.5-0.9
	c0.2-0.3,0.5-0.5,0.8-0.7s0.7-0.4,1-0.5c0.4-0.1,0.7-0.2,1.1-0.3c0.4-0.1,0.8-0.1,1.2-0.1s0.7,0,1,0s0.6,0.1,0.8,0.1
	c-0.1-0.4-0.2-0.8-0.4-1.1s-0.4-0.6-0.7-0.8s-0.6-0.3-1.1-0.3c-0.2,0-0.5,0-0.7,0.1c-0.3,0.1-0.6,0.2-0.9,0.3s-0.7,0.4-1.1,0.7
	c-0.4,0.3-0.8,0.7-1.3,1.1l-1-1.2c0.5-0.5,1-0.9,1.5-1.2s0.9-0.6,1.4-0.7c0.4-0.2,0.8-0.3,1.2-0.4c0.4-0.1,0.7-0.1,1-0.1
	c0.5,0,1,0.1,1.4,0.3s0.8,0.4,1.1,0.7s0.6,0.7,0.8,1.1c0.2,0.4,0.4,0.8,0.5,1.3s0.2,1,0.3,1.5s0.1,1,0.1,1.5s0,1.1-0.1,1.7
	C236.4,53.4,236.3,54.1,236.2,54.8z M234.8,51.5c0-0.3,0-0.6,0-0.8c0-0.3,0-0.6,0-0.8c-0.3-0.1-0.6-0.1-0.9-0.2s-0.6-0.1-0.9-0.1
	c-0.5,0-1,0.1-1.5,0.2c-0.5,0.1-0.9,0.3-1.2,0.5s-0.6,0.5-0.8,0.8s-0.2,0.7-0.1,1.1c0.1,0.3,0.2,0.6,0.4,0.7
	c0.2,0.1,0.5,0.2,0.8,0.2c0.4,0,0.9-0.1,1.4-0.3s1-0.4,1.5-0.6C234.1,51.9,234.5,51.7,234.8,51.5z M242.6,52.8l-0.2,1.7
	c-0.4,0-0.7-0.1-1-0.2c-0.3-0.1-0.6-0.3-0.8-0.5s-0.4-0.4-0.6-0.7c-0.2-0.3-0.3-0.5-0.4-0.8c-0.3-0.6-0.4-1.3-0.5-2.1l0.2-10.5h1.7
	l-0.1,2.7c0,0.4,0,0.8,0,1.2s0,0.7,0,1.1c0,0.7,0,1.3-0.1,1.8c0,0.5,0,1,0,1.4c0,1,0,1.7-0.1,2.2c0,0.5,0.1,1,0.2,1.4
	c0.1,0.4,0.3,0.7,0.6,1C241.8,52.6,242.1,52.7,242.6,52.8z M252.5,54.6h-1.9v-2.4c-0.2,0.3-0.4,0.6-0.6,0.9
	c-0.2,0.3-0.5,0.5-0.8,0.8c-0.3,0.2-0.6,0.4-0.9,0.5c-0.3,0.1-0.6,0.2-1,0.2c-0.5,0-0.9-0.1-1.3-0.3c-0.4-0.2-0.7-0.4-0.9-0.7
	s-0.4-0.6-0.6-1c-0.2-0.4-0.3-0.8-0.3-1.2c-0.1-0.4-0.1-0.8-0.2-1.3c0-0.4,0-0.9,0-1.3c0-0.6,0-1.2,0.1-1.7c0.1-0.6,0.1-1.2,0.2-1.8
	h1.7c-0.1,0.7-0.1,1.3-0.2,1.9c0,0.5,0,1,0,1.4c0,0.1,0,0.2,0,0.3s0,0.2,0,0.4c0,0.3,0,0.6,0.1,0.9c0,0.3,0.1,0.6,0.2,1
	c0.1,0.3,0.2,0.6,0.3,0.8s0.3,0.4,0.5,0.6c0.2,0.1,0.5,0.2,0.8,0.1c0.4-0.1,0.9-0.3,1.3-0.9c0.5-0.5,0.9-1.3,1.5-2.4v-2.1
	c0-0.3,0-0.5,0-0.7s0-0.4,0-0.5c0-0.3,0-0.6,0-0.7l1.8-0.2l0.1,2.6c0,0.4,0,0.8,0,1.1s0,0.7,0,1s0,0.7,0,1c0,0.4,0,0.7,0,1
	s0,0.6,0,0.8c0,0.4,0,0.7,0,1C252.5,54.1,252.5,54.4,252.5,54.6z M259.1,53.2c0.6,0,1.2-0.2,1.7-0.5c0.5-0.4,0.9-0.9,1-1.5l1.6,0.3
	c-0.2,0.5-0.4,1-0.7,1.4c-0.3,0.4-0.6,0.8-1,1.1s-0.8,0.5-1.2,0.7c-0.4,0.2-0.9,0.2-1.4,0.2c-0.7,0-1.4-0.1-1.9-0.3
	c-0.6-0.2-1-0.5-1.4-0.9c-0.8-0.8-1.2-1.9-1.2-3.4c0-0.7,0.1-1.3,0.3-1.9c0.2-0.6,0.6-1.1,1-1.6c0.4-0.4,0.9-0.8,1.4-1
	c0.6-0.3,1.2-0.4,1.8-0.4c0.6,0,1.1,0.1,1.6,0.3s1,0.5,1.4,0.9s0.7,0.9,1,1.4s0.4,1.1,0.5,1.7l-7.2,1.1c0,0.4,0.1,0.7,0.3,1.1
	c0.2,0.3,0.4,0.6,0.6,0.8C257.8,53,258.4,53.2,259.1,53.2z M256.4,49.2l5-0.6v-0.2c-0.2-0.5-0.5-1-0.9-1.3s-0.8-0.5-1.4-0.5
	c-0.2,0-0.5,0-0.8,0.1s-0.5,0.2-0.8,0.4s-0.5,0.5-0.7,0.8C256.7,48.3,256.5,48.7,256.4,49.2z M273.2,52.2c0,0.5-0.1,1-0.3,1.3
	c-0.2,0.4-0.5,0.6-0.9,0.9c-0.4,0.2-0.8,0.4-1.2,0.5c-0.5,0.1-0.9,0.2-1.4,0.2s-1-0.1-1.5-0.2c-0.4-0.1-0.9-0.2-1.5-0.4
	c-0.5-0.2-1-0.5-1.5-0.8l0.8-1.3c0.3,0.2,0.6,0.3,0.9,0.5c0.3,0.1,0.6,0.3,1,0.4c0.3,0.1,0.7,0.2,1,0.3s0.7,0.1,1.1,0.1
	c0.5,0,0.9-0.1,1.2-0.3c0.3-0.2,0.5-0.4,0.6-0.6c0.1-0.3,0-0.7-0.3-1c-0.1-0.1-0.1-0.1-0.2-0.1s-0.2-0.1-0.2-0.1
	c-0.2-0.1-0.4-0.2-0.6-0.2c-0.3-0.1-0.6-0.1-0.9-0.1c-0.5,0-1-0.1-1.4-0.1c-0.5-0.1-0.9-0.2-1.2-0.4c-0.4-0.2-0.7-0.4-0.9-0.7
	c-0.2-0.3-0.4-0.6-0.4-1.1c0-0.4,0-0.7,0.1-1.1c0.2-0.6,0.5-1.2,1.1-1.6c0.1-0.1,0.3-0.2,0.4-0.3s0.3-0.2,0.5-0.2
	c0.3-0.1,0.7-0.2,1-0.3c0.4-0.1,0.7-0.1,1.1-0.1c0.2,0,0.5,0,0.8,0s0.6,0.1,0.9,0.1c0.3,0.1,0.6,0.2,1,0.3c0.3,0.1,0.6,0.3,0.9,0.5
	l-0.6,1.5c-0.4-0.2-0.7-0.3-1-0.4c-0.3-0.1-0.6-0.2-0.9-0.3c-0.1,0-0.3-0.1-0.4-0.1s-0.3,0-0.4,0c-0.9,0-1.5,0-2,0.3
	c-0.5,0.2-0.7,0.6-0.7,1.1c0,0.3,0.1,0.6,0.3,0.7c0.2,0.1,0.4,0.3,0.7,0.3c0.2,0,0.4,0.1,0.7,0.1c0.3,0,0.6,0,0.9,0.1
	c0.3,0,0.6,0.1,0.9,0.1c0.5,0.1,1,0.2,1.4,0.4s0.7,0.4,0.9,0.6c0.2,0.2,0.4,0.5,0.5,0.7C273.2,51.6,273.2,51.9,273.2,52.2z
	 M283.7,42.9c0,0.3-0.1,0.6-0.4,0.8c-0.2,0.2-0.5,0.3-0.8,0.3s-0.6-0.1-0.8-0.3c-0.2-0.2-0.3-0.5-0.3-0.8s0.1-0.6,0.3-0.8
	c0.2-0.2,0.5-0.4,0.8-0.4s0.6,0.1,0.8,0.4C283.6,42.3,283.7,42.6,283.7,42.9z M281.6,45.9l1.7-0.1l-0.1,4c0,1.1,0,2,0,2.6
	c0,0.8,0,1.4,0,1.8h-1.7c0-0.3,0-0.6,0-1s0-0.7,0-1.2c0-0.7,0-1.6,0-2.6L281.6,45.9z M286,45.4l1.7-0.2v2.4c0.2-0.3,0.5-0.6,0.8-0.9
	c0.3-0.3,0.6-0.6,0.9-0.8s0.7-0.3,1.1-0.3c0.5,0,0.9,0.2,1.3,0.5s0.6,0.8,0.6,1.4c0.2-0.3,0.5-0.6,0.8-0.9s0.6-0.5,0.9-0.7
	s0.7-0.3,1.1-0.3c0.5,0,1,0.2,1.4,0.5c0.4,0.4,0.6,0.9,0.6,1.6c0,0.2,0,0.4,0.1,0.7c0,0.2,0,0.5,0,0.8c0,0.5,0,1.2,0.1,2
	c0,0.8,0,1.8,0,2.9l-1.7,0.1c0-1,0-1.9,0-2.6c0-0.7,0-1.3,0-1.8v-1.4c0-0.9-0.3-1.3-0.7-1.3c-0.2,0-0.4,0.1-0.6,0.3
	s-0.4,0.4-0.6,0.6c-0.1,0.1-0.1,0.2-0.2,0.3s-0.1,0.2-0.2,0.3c-0.1,0.2-0.2,0.3-0.3,0.5c-0.1,0.2-0.2,0.3-0.3,0.4c0,0.2,0,0.5,0,0.8
	s0,0.6,0,1s0,0.8,0,1.2c0,0.5,0,1,0,1.6l-1.6,0.1c0-1,0-1.9,0-2.6c0-0.7,0-1.3-0.1-1.8c0-0.3,0-0.5,0-0.8c0-0.2,0-0.4,0-0.6
	c0-0.9-0.3-1.3-0.7-1.3c-0.1,0-0.3,0-0.4,0.1c-0.3,0.2-0.6,0.5-0.9,0.9c-0.1,0.1-0.1,0.2-0.2,0.3s-0.1,0.2-0.2,0.3
	c-0.1,0.2-0.2,0.3-0.4,0.5c-0.1,0.2-0.2,0.4-0.3,0.5l0.1,4.4l-1.7,0.1L286,45.4z M300.4,59l-0.1-13.6l1.8-0.1v1.2
	c0.3-0.3,0.6-0.5,1-0.7c0.3-0.2,0.7-0.3,0.9-0.4c0.4-0.1,0.7-0.2,1-0.2c0.4,0,0.8,0.1,1.1,0.2c0.7,0.2,1.4,0.6,2,1.2
	c0.3,0.3,0.5,0.6,0.7,0.9c0.2,0.3,0.4,0.7,0.5,1.1c0.1,0.4,0.2,0.8,0.1,1.2c0,0.5-0.1,0.9-0.2,1.3c-0.3,0.8-0.7,1.5-1.2,2.1
	c-0.3,0.3-0.6,0.5-0.9,0.7c-0.6,0.4-1.3,0.6-2,0.6c-0.3,0-0.7-0.1-1-0.1c-0.3-0.1-0.6-0.2-1-0.4s-0.7-0.4-1.1-0.7l-0.1,5.6L300.4,59
	z M307.5,50c0-0.8-0.2-1.6-0.7-2.1c-0.2-0.3-0.5-0.5-0.9-0.7c-0.3-0.2-0.7-0.2-1.1-0.2c-0.7,0-1.3,0.2-1.8,0.6
	c-0.5,0.4-0.8,0.9-1,1.5v1.6c0.1,0.4,0.2,0.7,0.4,1c0.2,0.3,0.4,0.5,0.6,0.7c0.5,0.4,1,0.6,1.6,0.6c0.4,0,0.8-0.1,1.1-0.2
	c0.3-0.1,0.6-0.4,0.9-0.6c0.3-0.3,0.5-0.6,0.6-0.9C307.4,50.7,307.5,50.4,307.5,50z M319.4,48.7l-1.6,0.6c0-0.5-0.1-0.9-0.2-1.1
	c-0.1-0.3-0.3-0.5-0.5-0.7c-0.2-0.1-0.4-0.2-0.7-0.2c-0.2,0-0.3,0.1-0.5,0.2c-0.2,0.1-0.4,0.2-0.5,0.4c-0.2,0.2-0.4,0.4-0.5,0.6
	c-0.1,0.1-0.2,0.2-0.3,0.3c-0.1,0.1-0.2,0.2-0.3,0.3c-0.2,0.2-0.3,0.4-0.5,0.7c-0.2,0.2-0.3,0.4-0.4,0.6c0,0.2,0,0.5,0,0.8
	s0,0.6,0,0.9c0,0.3,0,0.5,0,0.7c0,0.3,0,0.7,0,0.9c0,0.3,0,0.5,0,0.7l-1.8,0.2l-0.2-4.7c0-0.3,0-0.7,0-1c0-0.4,0-0.7,0-1
	s0-0.6,0-0.8c0-0.8,0-1.4,0-1.8h1.9c0,0.2,0,0.3,0,0.5s0,0.3,0,0.5s0,0.3,0,0.5s0,0.3,0,0.5s0,0.3,0,0.5s0,0.3,0,0.5
	c0.2-0.3,0.4-0.5,0.6-0.8s0.5-0.6,0.8-0.9c0.3-0.3,0.6-0.5,1-0.7c0.3-0.2,0.7-0.3,1.1-0.4c0.4,0,0.8,0.1,1.2,0.3
	c0.2,0.1,0.3,0.2,0.5,0.4c0.2,0.1,0.3,0.3,0.4,0.6c0.1,0.2,0.2,0.5,0.3,0.8C319.3,47.9,319.4,48.3,319.4,48.7z M329.5,50
	c0,0.7-0.1,1.3-0.3,1.9c-0.2,0.6-0.5,1.1-1,1.5c-0.4,0.4-0.9,0.8-1.4,1s-1.1,0.4-1.7,0.4c-1.3,0-2.3-0.4-3.1-1.3
	c-0.4-0.4-0.7-0.9-1-1.5c-0.2-0.6-0.3-1.3-0.3-2s0.1-1.4,0.3-2c0.2-0.6,0.6-1.1,1-1.5s0.9-0.8,1.4-1s1.1-0.3,1.7-0.3
	s1.2,0.1,1.7,0.4c0.5,0.2,1,0.6,1.4,1s0.7,1,1,1.6C329.4,48.6,329.5,49.3,329.5,50z M327.7,50c0-0.4,0-0.8-0.1-1.2s-0.3-0.8-0.5-1.1
	s-0.5-0.6-0.8-0.8s-0.8-0.3-1.2-0.3c-0.5,0-0.9,0.1-1.2,0.3c-0.3,0.2-0.6,0.5-0.8,0.8c-0.2,0.3-0.4,0.7-0.5,1.1
	c-0.1,0.4-0.1,0.8-0.1,1.2s0.1,0.8,0.2,1.2s0.3,0.8,0.5,1.1s0.5,0.6,0.8,0.8s0.7,0.3,1.2,0.3s0.9-0.1,1.2-0.3
	c0.3-0.2,0.6-0.5,0.8-0.8c0.2-0.3,0.4-0.7,0.5-1.1C327.7,50.8,327.7,50.4,327.7,50z M335.1,52.8l2.6-7.4l1.7,0.2l-3.3,8.7h-2.3
	l-2.9-8.4l1.7-0.3L335.1,52.8z M343.6,42.9c0,0.3-0.1,0.6-0.4,0.8c-0.2,0.2-0.5,0.3-0.8,0.3s-0.6-0.1-0.8-0.3
	c-0.2-0.2-0.3-0.5-0.3-0.8s0.1-0.6,0.3-0.8c0.2-0.2,0.5-0.4,0.8-0.4s0.6,0.1,0.8,0.4C343.5,42.3,343.6,42.6,343.6,42.9z M341.5,45.9
	l1.7-0.1l-0.1,4c0,1.1,0,2,0,2.6c0,0.8,0,1.4,0,1.8h-1.7c0-0.3,0-0.6,0-1s0-0.7,0-1.2c0-0.7,0-1.6,0-2.6L341.5,45.9z M348,54.4
	l-1.8,0.2l-0.2-4.7c0-0.3,0-0.7,0-1c0-0.4,0-0.7,0-1s0-0.6,0-0.8c0-0.8,0-1.4-0.1-1.8h1.9v2.4c0.2-0.3,0.4-0.6,0.6-0.9
	c0.2-0.3,0.5-0.5,0.8-0.7s0.6-0.4,0.9-0.5s0.6-0.2,1-0.2s0.8,0,1.1,0.1s0.6,0.2,0.8,0.4c0.2,0.2,0.4,0.4,0.5,0.6
	c0.1,0.2,0.3,0.5,0.3,0.7c0.1,0.3,0.1,0.5,0.2,0.8c0,0.3,0.1,0.5,0.1,0.7c0,1,0,1.9,0,2.9s0,2-0.1,3l-1.7-0.1c0-0.9,0.1-1.8,0.1-2.7
	s0-1.8,0-2.7c0-0.2,0-0.4-0.1-0.7c0-0.3-0.1-0.5-0.2-0.8c-0.1-0.2-0.2-0.3-0.3-0.5c-0.1-0.1-0.3-0.2-0.5-0.3s-0.4-0.1-0.7,0
	c-0.4,0.1-0.9,0.4-1.3,1s-0.9,1.4-1.5,2.5l0.1,2.1c0,0.3,0,0.5,0,0.7s0,0.4,0,0.5C348,54.1,348,54.3,348,54.4z M364,46.4v-1.7h1.6
	v9.5c0,0.2,0,0.4,0,0.5c0,0.2-0.1,0.4-0.1,0.5c-0.2,0.7-0.5,1.4-1,2c-0.3,0.3-0.6,0.6-0.9,0.8s-0.7,0.4-1.1,0.6
	c-0.4,0.1-0.9,0.2-1.4,0.3c-0.7,0-1.3,0-1.9-0.2c-0.5-0.1-1.1-0.4-1.6-0.8c-0.5-0.4-0.9-0.9-1.1-1.5l1.6-0.7c0.2,0.4,0.5,0.8,0.8,1
	c0.4,0.2,0.7,0.4,1.1,0.5s0.8,0.1,1.3,0c0.2,0,0.4-0.1,0.5-0.1c0.2-0.1,0.3-0.1,0.5-0.2c0.3-0.2,0.5-0.3,0.7-0.5s0.4-0.4,0.5-0.6
	c0.1-0.1,0.1-0.2,0.2-0.3s0.1-0.2,0.1-0.3c0.1-0.2,0.1-0.4,0.1-0.5c0-0.2,0-0.3,0-0.4v-1.1c-0.3,0.3-0.7,0.6-1,0.7
	c-0.4,0.2-0.7,0.3-1,0.4c-0.2,0-0.4,0.1-0.5,0.1c-0.2,0-0.3,0-0.5,0c-1.3,0-2.4-0.4-3.2-1.3c-0.4-0.4-0.7-0.9-1-1.5
	c-0.2-0.6-0.3-1.3-0.3-2c0-0.8,0.1-1.4,0.4-2s0.6-1.1,1-1.5s0.9-0.7,1.4-0.9s1.1-0.3,1.6-0.3c0.4,0,0.8,0.1,1.1,0.2
	c0.3,0.1,0.7,0.3,1.1,0.4C363.3,45.8,363.7,46.1,364,46.4z M360.8,52.9c0.7,0,1.4-0.2,2-0.7c0.3-0.2,0.5-0.5,0.7-0.8
	s0.3-0.7,0.4-1.1v-1.1c-0.1-0.4-0.2-0.7-0.4-1.1c-0.2-0.3-0.4-0.6-0.7-0.8c-0.6-0.5-1.3-0.7-2-0.7c-0.4,0-0.8,0.1-1.1,0.2
	c-0.3,0.2-0.6,0.4-0.9,0.7c-0.2,0.3-0.4,0.6-0.6,1c-0.1,0.4-0.2,0.8-0.2,1.3s0.1,0.9,0.2,1.3c0.1,0.4,0.3,0.7,0.6,1
	c0.2,0.3,0.5,0.5,0.9,0.6C360,52.8,360.4,52.9,360.8,52.9z M374.7,59l-0.1-13.6l1.8-0.1v1.2c0.3-0.3,0.6-0.5,1-0.7
	c0.3-0.2,0.7-0.3,0.9-0.4c0.4-0.1,0.7-0.2,1-0.2c0.4,0,0.8,0.1,1.1,0.2c0.7,0.2,1.4,0.6,2,1.2c0.3,0.3,0.5,0.6,0.7,0.9
	c0.2,0.3,0.4,0.7,0.5,1.1c0.1,0.4,0.2,0.8,0.1,1.2c0,0.5-0.1,0.9-0.2,1.3c-0.3,0.8-0.7,1.5-1.2,2.1c-0.3,0.3-0.6,0.5-0.9,0.7
	c-0.6,0.4-1.3,0.6-2,0.6c-0.3,0-0.7-0.1-1-0.1c-0.3-0.1-0.6-0.2-1-0.4s-0.7-0.4-1.1-0.7v5.6L374.7,59z M381.8,50
	c0-0.8-0.2-1.6-0.7-2.1c-0.2-0.3-0.5-0.5-0.9-0.7c-0.3-0.2-0.7-0.2-1.1-0.2c-0.7,0-1.3,0.2-1.8,0.6c-0.5,0.4-0.8,0.9-1,1.5v1.6
	c0.1,0.4,0.2,0.7,0.4,1c0.2,0.3,0.4,0.5,0.6,0.7c0.5,0.4,1,0.6,1.6,0.6c0.4,0,0.8-0.1,1.1-0.2c0.3-0.1,0.6-0.4,0.9-0.6
	c0.3-0.3,0.5-0.6,0.6-0.9C381.7,50.7,381.8,50.4,381.8,50z M389.9,53.2c0.6,0,1.2-0.2,1.7-0.5c0.5-0.4,0.8-0.9,1-1.5l1.6,0.3
	c-0.2,0.5-0.4,1-0.7,1.4s-0.6,0.8-1,1.1s-0.8,0.5-1.2,0.7c-0.4,0.2-0.9,0.2-1.4,0.2c-0.7,0-1.4-0.1-1.9-0.3c-0.6-0.2-1-0.5-1.4-0.9
	c-0.8-0.8-1.2-1.9-1.2-3.4c0-0.7,0.1-1.3,0.3-1.9c0.2-0.6,0.6-1.1,1-1.6c0.4-0.4,0.9-0.8,1.4-1c0.6-0.3,1.2-0.4,1.8-0.4
	c0.6,0,1.1,0.1,1.6,0.3s1,0.5,1.4,0.9s0.7,0.9,1,1.4s0.4,1.1,0.5,1.7l-7.2,1.1c0,0.4,0.1,0.7,0.3,1.1c0.2,0.3,0.4,0.6,0.6,0.8
	C388.5,53,389.1,53.2,389.9,53.2z M387.2,49.2l5-0.6v-0.2c-0.2-0.5-0.5-1-0.9-1.3s-0.8-0.5-1.4-0.5c-0.2,0-0.5,0-0.8,0.1
	s-0.5,0.2-0.8,0.4s-0.5,0.5-0.7,0.8C387.4,48.3,387.3,48.7,387.2,49.2z M404.6,50c0,0.7-0.1,1.3-0.3,1.9c-0.2,0.6-0.6,1.1-1,1.5
	s-0.9,0.8-1.4,1s-1.1,0.4-1.7,0.4c-1.3,0-2.3-0.4-3.1-1.3c-0.4-0.4-0.7-0.9-1-1.5c-0.2-0.6-0.3-1.3-0.3-2s0.1-1.4,0.3-2
	c0.2-0.6,0.6-1.1,1-1.5s0.9-0.8,1.4-1s1.1-0.3,1.7-0.3s1.2,0.1,1.7,0.4c0.5,0.2,1,0.6,1.4,1s0.7,1,1,1.6
	C404.5,48.6,404.6,49.3,404.6,50z M402.9,50c0-0.4,0-0.8-0.1-1.2s-0.3-0.8-0.5-1.1s-0.5-0.6-0.8-0.8s-0.8-0.3-1.2-0.3
	c-0.5,0-0.9,0.1-1.2,0.3c-0.3,0.2-0.6,0.5-0.8,0.8c-0.2,0.3-0.4,0.7-0.5,1.1c-0.1,0.4-0.1,0.8-0.1,1.2s0.1,0.8,0.2,1.2
	s0.3,0.8,0.5,1.1s0.5,0.6,0.8,0.8s0.7,0.3,1.2,0.3s0.9-0.1,1.2-0.3c0.3-0.2,0.6-0.5,0.8-0.8c0.2-0.3,0.4-0.7,0.5-1.1
	C402.8,50.8,402.9,50.4,402.9,50z M407,59l-0.1-13.6l1.8-0.1v1.2c0.3-0.3,0.6-0.5,1-0.7c0.3-0.2,0.7-0.3,0.9-0.4
	c0.4-0.1,0.7-0.2,1-0.2c0.4,0,0.8,0.1,1.1,0.2c0.7,0.2,1.4,0.6,2,1.2c0.3,0.3,0.5,0.6,0.7,0.9c0.2,0.3,0.4,0.7,0.5,1.1
	c0.1,0.4,0.2,0.8,0.1,1.2c0,0.5-0.1,0.9-0.2,1.3c-0.3,0.8-0.7,1.5-1.2,2.1c-0.3,0.3-0.6,0.5-0.9,0.7c-0.6,0.4-1.3,0.6-2,0.6
	c-0.3,0-0.7-0.1-1-0.1c-0.3-0.1-0.6-0.2-1-0.4s-0.7-0.4-1.1-0.7l-0.1,5.6L407,59z M414.1,50c0-0.8-0.2-1.6-0.7-2.1
	c-0.2-0.3-0.5-0.5-0.9-0.7c-0.3-0.2-0.7-0.2-1.1-0.2c-0.7,0-1.3,0.2-1.8,0.6c-0.5,0.4-0.8,0.9-1,1.5v1.6c0.1,0.4,0.2,0.7,0.4,1
	c0.2,0.3,0.4,0.5,0.6,0.7c0.5,0.4,1,0.6,1.6,0.6c0.4,0,0.8-0.1,1.1-0.2c0.3-0.1,0.6-0.4,0.9-0.6c0.3-0.3,0.5-0.6,0.6-0.9
	C414,50.7,414.1,50.4,414.1,50z M421.7,52.8l-0.2,1.7c-0.4,0-0.7-0.1-1-0.2c-0.3-0.1-0.6-0.3-0.8-0.5c-0.2-0.2-0.4-0.4-0.6-0.7
	s-0.3-0.5-0.4-0.8c-0.3-0.6-0.4-1.3-0.5-2.1l0.2-10.5h1.7l-0.1,2.7c0,0.4,0,0.8,0,1.2s0,0.7,0,1.1c0,0.7,0,1.3-0.1,1.8
	c0,0.5,0,1,0,1.4c0,1,0,1.7-0.1,2.2c0,0.5,0.1,1,0.2,1.4s0.3,0.7,0.6,1C420.9,52.6,421.2,52.7,421.7,52.8z M427.3,53.2
	c0.6,0,1.2-0.2,1.7-0.5c0.5-0.4,0.9-0.9,1-1.5l1.6,0.3c-0.2,0.5-0.4,1-0.7,1.4c-0.3,0.4-0.6,0.8-1,1.1s-0.8,0.5-1.2,0.7
	c-0.4,0.2-0.9,0.2-1.4,0.2c-0.7,0-1.4-0.1-1.9-0.3c-0.6-0.2-1-0.5-1.4-0.9c-0.8-0.8-1.2-1.9-1.2-3.4c0-0.7,0.1-1.3,0.3-1.9
	c0.2-0.6,0.6-1.1,1-1.6c0.4-0.4,0.9-0.8,1.4-1c0.6-0.3,1.2-0.4,1.8-0.4c0.6,0,1.1,0.1,1.6,0.3s1,0.5,1.4,0.9s0.7,0.9,1,1.4
	s0.4,1.1,0.5,1.7l-7.2,1.1c0,0.4,0.1,0.7,0.3,1.1c0.2,0.3,0.4,0.6,0.6,0.8C425.9,53,426.5,53.2,427.3,53.2z M424.6,49.2l5-0.6
	l-0.1-0.2c-0.2-0.5-0.5-1-0.9-1.3s-0.8-0.5-1.4-0.5c-0.2,0-0.5,0-0.8,0.1s-0.5,0.2-0.8,0.4s-0.5,0.5-0.7,0.8
	C424.8,48.3,424.7,48.7,424.6,49.2z M433.9,45.9l-0.4-3.9h2.1l-0.6,3.9H433.9z M445.6,52.2c0,0.5-0.1,1-0.3,1.3
	c-0.2,0.4-0.5,0.6-0.9,0.9c-0.4,0.2-0.8,0.4-1.2,0.5c-0.5,0.1-0.9,0.2-1.4,0.2s-1-0.1-1.5-0.2c-0.4-0.1-0.9-0.2-1.5-0.4
	c-0.5-0.2-1-0.5-1.5-0.8l0.8-1.3c0.3,0.2,0.6,0.3,0.9,0.5c0.3,0.1,0.6,0.3,1,0.4c0.3,0.1,0.7,0.2,1,0.3s0.7,0.1,1.1,0.1
	c0.5,0,0.9-0.1,1.2-0.3c0.3-0.2,0.5-0.4,0.6-0.6c0.1-0.3,0-0.7-0.3-1c-0.1-0.1-0.1-0.1-0.2-0.1s-0.2-0.1-0.2-0.1
	c-0.2-0.1-0.4-0.2-0.6-0.2c-0.3-0.1-0.6-0.1-0.9-0.1c-0.5,0-1-0.1-1.4-0.1c-0.5-0.1-0.9-0.2-1.2-0.4c-0.4-0.2-0.7-0.4-0.9-0.7
	c-0.2-0.3-0.4-0.6-0.4-1.1c0-0.4,0-0.7,0.1-1.1c0.2-0.6,0.5-1.2,1.1-1.6c0.1-0.1,0.3-0.2,0.4-0.3s0.3-0.2,0.5-0.2
	c0.3-0.1,0.7-0.2,1-0.3c0.4-0.1,0.7-0.1,1.1-0.1c0.2,0,0.5,0,0.8,0s0.6,0.1,0.9,0.1c0.3,0.1,0.6,0.2,1,0.3c0.3,0.1,0.6,0.3,0.9,0.5
	l-0.6,1.5c-0.4-0.2-0.7-0.3-1-0.4c-0.3-0.1-0.6-0.2-0.9-0.3c-0.1,0-0.3-0.1-0.4-0.1s-0.3,0-0.4,0c-0.9,0-1.5,0-2,0.3
	c-0.5,0.2-0.7,0.6-0.7,1.1c0,0.3,0.1,0.6,0.3,0.7c0.2,0.1,0.4,0.3,0.7,0.3c0.2,0,0.4,0.1,0.7,0.1c0.3,0,0.6,0,0.9,0.1
	c0.3,0,0.6,0.1,0.9,0.1c0.5,0.1,1,0.2,1.4,0.4s0.7,0.4,0.9,0.6c0.2,0.2,0.4,0.5,0.5,0.7C445.5,51.6,445.6,51.9,445.6,52.2z
	 M457.4,52.8l-0.2,1.7c-0.4,0-0.7-0.1-1-0.2c-0.3-0.1-0.6-0.3-0.8-0.5c-0.2-0.2-0.4-0.4-0.6-0.7s-0.3-0.5-0.4-0.8
	c-0.3-0.6-0.4-1.3-0.5-2.1l0.2-10.5h1.7l-0.1,2.7c0,0.4,0,0.8,0,1.2s0,0.7,0,1.1c0,0.7,0,1.3,0,1.8s0,1,0,1.4c0,1,0,1.7,0,2.2
	s0.1,1,0.2,1.4s0.3,0.7,0.6,1C456.6,52.6,456.9,52.7,457.4,52.8z M461.2,42.9c0,0.3-0.1,0.6-0.4,0.8c-0.2,0.2-0.5,0.3-0.8,0.3
	s-0.6-0.1-0.8-0.3c-0.2-0.2-0.3-0.5-0.3-0.8s0.1-0.6,0.3-0.8c0.2-0.2,0.5-0.4,0.8-0.4s0.6,0.1,0.8,0.4
	C461.1,42.3,461.2,42.6,461.2,42.9z M459.1,45.9l1.7-0.1l-0.1,4c0,1.1,0,2,0,2.6c0,0.8,0,1.4,0,1.8H459c0-0.3,0-0.6,0-1s0-0.7,0-1.2
	c0-0.7,0-1.6,0-2.6L459.1,45.9z M467,52.8l2.6-7.4l1.7,0.2l-3.3,8.7h-2.3l-2.9-8.4l1.7-0.3L467,52.8z M477.3,53.2
	c0.6,0,1.2-0.2,1.7-0.5c0.5-0.4,0.8-0.9,1-1.5l1.6,0.3c-0.2,0.5-0.4,1-0.7,1.4c-0.3,0.4-0.6,0.8-1,1.1s-0.8,0.5-1.2,0.7
	c-0.4,0.2-0.9,0.2-1.4,0.2c-0.7,0-1.4-0.1-1.9-0.3c-0.6-0.2-1-0.5-1.4-0.9c-0.8-0.8-1.2-1.9-1.2-3.4c0-0.7,0.1-1.3,0.3-1.9
	c0.2-0.6,0.6-1.1,1-1.6c0.4-0.4,0.9-0.8,1.4-1c0.6-0.3,1.2-0.4,1.8-0.4c0.6,0,1.1,0.1,1.6,0.3s1,0.5,1.4,0.9s0.7,0.9,1,1.4
	s0.4,1.1,0.5,1.7l-7.2,1.1c0,0.4,0.1,0.7,0.3,1.1c0.2,0.3,0.4,0.6,0.6,0.8C475.9,53,476.5,53.2,477.3,53.2z M474.6,49.2l5-0.6v-0.2
	c-0.2-0.5-0.5-1-0.9-1.3s-0.8-0.5-1.4-0.5c-0.2,0-0.5,0-0.8,0.1s-0.5,0.2-0.8,0.4s-0.5,0.5-0.7,0.8
	C474.8,48.3,474.7,48.7,474.6,49.2z M491.4,52.2c0,0.5-0.1,1-0.3,1.3c-0.2,0.4-0.5,0.6-0.9,0.9c-0.4,0.2-0.8,0.4-1.2,0.5
	c-0.5,0.1-0.9,0.2-1.4,0.2s-1-0.1-1.5-0.2c-0.4-0.1-0.9-0.2-1.5-0.4c-0.5-0.2-1-0.5-1.5-0.8l0.8-1.3c0.3,0.2,0.6,0.3,0.9,0.5
	c0.3,0.1,0.6,0.3,1,0.4c0.3,0.1,0.7,0.2,1,0.3s0.7,0.1,1.1,0.1c0.5,0,0.9-0.1,1.2-0.3c0.3-0.2,0.5-0.4,0.6-0.6c0.1-0.3,0-0.7-0.3-1
	c-0.1-0.1-0.1-0.1-0.2-0.1s-0.2-0.1-0.2-0.1c-0.2-0.1-0.4-0.2-0.6-0.2c-0.3-0.1-0.6-0.1-0.9-0.1c-0.5,0-1-0.1-1.4-0.1
	c-0.5-0.1-0.9-0.2-1.2-0.4c-0.4-0.2-0.7-0.4-0.9-0.7c-0.2-0.3-0.4-0.6-0.4-1.1c0-0.4,0-0.7,0.1-1.1c0.2-0.6,0.5-1.2,1.1-1.6
	c0.1-0.1,0.3-0.2,0.4-0.3c0.2-0.1,0.3-0.2,0.5-0.2c0.3-0.1,0.7-0.2,1-0.3c0.4-0.1,0.7-0.1,1.1-0.1c0.2,0,0.5,0,0.8,0
	s0.6,0.1,0.9,0.1c0.3,0.1,0.6,0.2,1,0.3c0.3,0.1,0.6,0.3,0.9,0.5l-0.6,1.5c-0.4-0.2-0.7-0.3-1-0.4c-0.3-0.1-0.6-0.2-0.9-0.3
	c-0.1,0-0.3-0.1-0.4-0.1s-0.3,0-0.4,0c-0.9,0-1.5,0-2,0.3c-0.5,0.2-0.7,0.6-0.7,1.1c0,0.3,0.1,0.6,0.3,0.7c0.2,0.1,0.4,0.3,0.7,0.3
	c0.2,0,0.4,0.1,0.7,0.1c0.3,0,0.6,0,0.9,0.1c0.3,0,0.6,0.1,0.9,0.1c0.5,0.1,1,0.2,1.4,0.4s0.7,0.4,0.9,0.6c0.2,0.2,0.4,0.5,0.5,0.7
	C491.3,51.6,491.4,51.9,491.4,52.2z M501.5,45.8l0.1-3.6l1.7-0.1l-0.1,3.7l3.2-0.1l-0.1,1.6l-3.1,0.1l-0.1,7.2h-1.8l0.1-7.2
	l-2.9,0.1V46L501.5,45.8z M508.2,54.4L508,41.6l1.9-0.1v5c0.3-0.3,0.6-0.6,1-0.8c0.3-0.2,0.7-0.3,1-0.4c0.3-0.1,0.7-0.2,1-0.2
	c1.3,0,2.3,0.4,3,1.3c0.4,0.4,0.7,0.9,0.9,1.5s0.3,1.3,0.4,2c0,0.4,0,0.8,0,1.2s0,0.8,0,1.2s-0.1,0.8-0.1,1.1c0,0.4-0.1,0.7-0.2,1
	l-1.9-0.1c0.2-0.5,0.3-1,0.3-1.6c0.1-0.5,0.1-1,0.2-1.4c0-0.5,0-0.9,0-1.3c0-0.6-0.1-1.1-0.3-1.5s-0.4-0.8-0.6-1
	c-0.3-0.3-0.5-0.4-0.9-0.6c-0.3-0.1-0.6-0.2-0.9-0.2c-0.3,0-0.6,0.1-1,0.3c-0.3,0.1-0.6,0.3-0.9,0.6s-0.6,0.7-0.9,1.2v5.5
	L508.2,54.4z M527.5,48.7l-1.6,0.6c0-0.5-0.1-0.9-0.2-1.1c-0.1-0.3-0.3-0.5-0.5-0.7c-0.2-0.1-0.4-0.2-0.7-0.2
	c-0.2,0-0.3,0.1-0.5,0.2c-0.2,0.1-0.4,0.2-0.5,0.4c-0.2,0.2-0.4,0.4-0.5,0.6c-0.1,0.1-0.2,0.2-0.3,0.3s-0.2,0.2-0.3,0.3
	c-0.2,0.2-0.3,0.4-0.5,0.7c-0.2,0.2-0.3,0.4-0.4,0.6c0,0.2,0,0.5,0,0.8s0,0.6,0,0.9c0,0.3,0,0.5,0,0.7c0,0.3,0,0.7,0,0.9
	c0,0.3,0,0.5,0,0.7l-1.8,0.2l-0.2-4.7c0-0.3,0-0.7,0-1c0-0.4,0-0.7,0-1s0-0.6,0-0.8c0-0.8,0-1.4,0-1.8h1.9c0,0.2,0,0.3,0,0.5
	s0,0.3,0,0.5s0,0.3,0,0.5s0,0.3,0,0.5s0,0.3,0,0.5s0,0.3,0,0.5c0.2-0.3,0.4-0.5,0.6-0.8c0.2-0.3,0.5-0.6,0.8-0.9
	c0.3-0.3,0.6-0.5,1-0.7c0.3-0.2,0.7-0.3,1.1-0.4c0.4,0,0.8,0.1,1.2,0.3c0.2,0.1,0.3,0.2,0.5,0.4c0.2,0.1,0.3,0.3,0.4,0.6
	c0.1,0.2,0.2,0.5,0.3,0.8C527.4,47.9,527.4,48.3,527.5,48.7z M537.5,50c0,0.7-0.1,1.3-0.3,1.9c-0.2,0.6-0.6,1.1-1,1.5
	s-0.9,0.8-1.4,1s-1.1,0.4-1.7,0.4c-1.3,0-2.3-0.4-3.1-1.3c-0.4-0.4-0.7-0.9-1-1.5c-0.2-0.6-0.3-1.3-0.3-2s0.1-1.4,0.3-2
	s0.6-1.1,1-1.5s0.9-0.8,1.4-1s1.1-0.3,1.7-0.3s1.2,0.1,1.7,0.4c0.5,0.2,1,0.6,1.4,1s0.7,1,1,1.6C537.4,48.6,537.5,49.3,537.5,50z
	 M535.7,50c0-0.4,0-0.8-0.1-1.2s-0.3-0.8-0.5-1.1s-0.5-0.6-0.8-0.8s-0.8-0.3-1.2-0.3c-0.5,0-0.9,0.1-1.2,0.3s-0.6,0.5-0.8,0.8
	s-0.4,0.7-0.5,1.1c-0.1,0.4-0.1,0.8-0.1,1.2s0.1,0.8,0.2,1.2c0.1,0.4,0.3,0.8,0.5,1.1s0.5,0.6,0.8,0.8s0.7,0.3,1.2,0.3
	s0.9-0.1,1.2-0.3s0.6-0.5,0.8-0.8s0.4-0.7,0.5-1.1C535.7,50.8,535.7,50.4,535.7,50z M548,54.6h-1.9v-2.4c-0.2,0.3-0.4,0.6-0.6,0.9
	c-0.2,0.3-0.5,0.5-0.8,0.8c-0.3,0.2-0.6,0.4-0.9,0.5c-0.3,0.1-0.6,0.2-1,0.2c-0.5,0-0.9-0.1-1.3-0.3c-0.4-0.2-0.7-0.4-0.9-0.7
	s-0.4-0.6-0.6-1c-0.2-0.4-0.3-0.8-0.3-1.2c-0.1-0.4-0.1-0.8-0.2-1.3c0-0.4,0-0.9,0-1.3c0-0.6,0-1.2,0.1-1.7c0-0.6,0.1-1.2,0.2-1.8
	h1.7c-0.1,0.7-0.1,1.3-0.2,1.9c0,0.5,0,1,0,1.4c0,0.1,0,0.2,0,0.3s0,0.2,0,0.4c0,0.3,0,0.6,0.1,0.9c0,0.3,0.1,0.6,0.2,1
	c0.1,0.3,0.2,0.6,0.3,0.8s0.3,0.4,0.5,0.6c0.2,0.1,0.5,0.2,0.8,0.1c0.4-0.1,0.9-0.3,1.3-0.9c0.5-0.5,0.9-1.3,1.5-2.4v-2.1
	c0-0.3,0-0.5,0-0.7s0-0.4,0-0.5c0-0.3,0-0.6,0-0.7l1.8-0.2l0.1,2.6c0,0.4,0,0.8,0,1.1s0,0.7,0,1s0,0.7,0,1c0,0.4,0,0.7,0,1
	s0,0.6,0,0.8c0,0.4,0,0.7,0,1C548,54.1,548,54.4,548,54.6z M557.8,46.4v-1.7h1.6v9.5c0,0.2,0,0.4,0,0.5c0,0.2-0.1,0.4-0.1,0.5
	c-0.2,0.7-0.5,1.4-1,2c-0.3,0.3-0.6,0.6-0.9,0.8c-0.3,0.2-0.7,0.4-1.1,0.6c-0.4,0.1-0.9,0.2-1.4,0.3c-0.7,0-1.3,0-1.9-0.2
	c-0.5-0.1-1.1-0.4-1.6-0.8c-0.5-0.4-0.9-0.9-1.1-1.5l1.6-0.7c0.2,0.4,0.5,0.8,0.8,1c0.4,0.2,0.7,0.4,1.1,0.5c0.4,0.1,0.8,0.1,1.3,0
	c0.2,0,0.4-0.1,0.5-0.1c0.2-0.1,0.3-0.1,0.5-0.2c0.3-0.2,0.5-0.3,0.7-0.5s0.4-0.4,0.5-0.6c0.1-0.1,0.1-0.2,0.2-0.3
	c0-0.1,0.1-0.2,0.1-0.3c0.1-0.2,0.1-0.4,0.1-0.5c0-0.2,0-0.3,0-0.4v-1.1c-0.3,0.3-0.7,0.6-1,0.7c-0.4,0.2-0.7,0.3-1,0.4
	c-0.2,0-0.4,0.1-0.5,0.1c-0.2,0-0.3,0-0.5,0c-1.3,0-2.4-0.4-3.2-1.3c-0.4-0.4-0.7-0.9-1-1.5c-0.2-0.6-0.3-1.3-0.3-2
	c0-0.8,0.1-1.4,0.4-2c0.3-0.6,0.6-1.1,1-1.5s0.9-0.7,1.4-0.9s1.1-0.3,1.6-0.3c0.4,0,0.8,0.1,1.1,0.2c0.3,0.1,0.7,0.3,1.1,0.4
	C557.1,45.8,557.5,46.1,557.8,46.4z M554.6,52.9c0.7,0,1.4-0.2,2-0.7c0.3-0.2,0.5-0.5,0.7-0.8s0.3-0.7,0.4-1.1v-1.1
	c-0.1-0.4-0.2-0.7-0.4-1.1c-0.2-0.3-0.4-0.6-0.7-0.8c-0.6-0.5-1.3-0.7-2-0.7c-0.4,0-0.8,0.1-1.1,0.2c-0.3,0.2-0.6,0.4-0.9,0.7
	c-0.2,0.3-0.4,0.6-0.6,1c-0.1,0.4-0.2,0.8-0.2,1.3s0.1,0.9,0.2,1.3c0.1,0.4,0.3,0.7,0.6,1c0.2,0.3,0.5,0.5,0.9,0.6
	C553.9,52.8,554.2,52.9,554.6,52.9z M562.3,54.4l-0.1-12.8l1.9-0.1v5c0.3-0.3,0.6-0.6,1-0.8c0.3-0.2,0.7-0.3,1-0.4
	c0.3-0.1,0.7-0.2,1-0.2c1.3,0,2.3,0.4,3,1.3c0.4,0.4,0.7,0.9,0.9,1.5s0.3,1.3,0.4,2c0,0.4,0,0.8,0,1.2s0,0.8,0,1.2s-0.1,0.8-0.1,1.1
	c0,0.4-0.1,0.7-0.2,1l-1.9-0.1c0.2-0.5,0.3-1,0.3-1.6c0.1-0.5,0.1-1,0.2-1.4c0-0.5,0-0.9,0-1.3c0-0.6-0.1-1.1-0.3-1.5
	s-0.4-0.8-0.6-1c-0.3-0.3-0.5-0.4-0.9-0.6c-0.3-0.1-0.6-0.2-0.9-0.2c-0.3,0-0.6,0.1-1,0.3c-0.3,0.1-0.6,0.3-0.9,0.6
	c-0.3,0.3-0.6,0.7-0.9,1.2v5.5L562.3,54.4z M588,54.8l-1.6-0.3l0.1-1.2c-0.7,0.4-1.3,0.7-2,0.9c-0.6,0.2-1.3,0.3-1.8,0.3
	c-0.4,0-0.8-0.1-1.2-0.2c-0.4-0.1-0.7-0.3-1-0.5s-0.5-0.5-0.7-0.8s-0.3-0.7-0.3-1.2c0-0.4,0.1-0.8,0.2-1.2c0.1-0.4,0.3-0.7,0.5-0.9
	c0.2-0.3,0.5-0.5,0.8-0.7s0.7-0.4,1-0.5c0.4-0.1,0.7-0.2,1.1-0.3c0.4-0.1,0.8-0.1,1.2-0.1s0.7,0,1,0s0.6,0.1,0.8,0.1
	c-0.1-0.4-0.2-0.8-0.4-1.1s-0.4-0.6-0.7-0.8s-0.6-0.3-1.1-0.3c-0.2,0-0.5,0-0.7,0.1c-0.3,0.1-0.6,0.2-0.9,0.3
	c-0.3,0.2-0.7,0.4-1.1,0.7c-0.4,0.3-0.8,0.7-1.3,1.1l-1-1.2c0.5-0.5,1-0.9,1.5-1.2s0.9-0.6,1.4-0.7c0.4-0.2,0.8-0.3,1.2-0.4
	c0.4-0.1,0.7-0.1,1-0.1c0.5,0,1,0.1,1.4,0.3s0.8,0.4,1.1,0.7s0.6,0.7,0.8,1.1c0.2,0.4,0.4,0.8,0.5,1.3s0.2,1,0.3,1.5s0.1,1,0.1,1.5
	s0,1.1-0.1,1.7C588.2,53.4,588.1,54.1,588,54.8z M586.6,51.5c0-0.3,0-0.6,0-0.8c0-0.3,0-0.6,0-0.8c-0.3-0.1-0.6-0.1-0.9-0.2
	c-0.3,0-0.6-0.1-0.9-0.1c-0.5,0-1,0.1-1.5,0.2c-0.5,0.1-0.9,0.3-1.2,0.5s-0.6,0.5-0.8,0.8s-0.2,0.7-0.1,1.1c0.1,0.3,0.2,0.6,0.4,0.7
	c0.2,0.1,0.5,0.2,0.8,0.2c0.4,0,0.9-0.1,1.4-0.3s1-0.4,1.5-0.6C585.9,51.9,586.3,51.7,586.6,51.5z M599.4,47.7L599.4,47.7l-1.4,0.9
	l0,0c-0.3-0.6-0.7-1-1.2-1.3s-1.1-0.5-1.7-0.5c-0.5,0-0.9,0.1-1.3,0.3c-0.4,0.2-0.7,0.4-1,0.7s-0.5,0.7-0.7,1.1
	c-0.2,0.4-0.3,0.8-0.3,1.3c0,0.4,0.1,0.9,0.3,1.3c0.2,0.4,0.4,0.7,0.7,1s0.6,0.5,1,0.7s0.8,0.3,1.3,0.3c0.6,0,1.1-0.1,1.6-0.4
	c0.5-0.3,0.9-0.7,1.2-1.2l0,0l1.4,0.8l0,0c-0.2,0.4-0.5,0.7-0.8,1s-0.6,0.5-1,0.7c-0.8,0.4-1.6,0.6-2.5,0.6c-0.6,0-1.2-0.1-1.8-0.4
	c-0.6-0.2-1.1-0.6-1.6-1s-0.8-0.9-1.1-1.5s-0.4-1.2-0.4-1.9c0-0.4,0.1-0.8,0.2-1.2c0.2-0.8,0.6-1.5,1.2-2.1c0.1-0.2,0.3-0.3,0.5-0.4
	c0.2-0.1,0.3-0.3,0.5-0.4c0.4-0.2,0.8-0.4,1.2-0.5s0.9-0.2,1.3-0.2c1,0,1.8,0.2,2.6,0.7C598.5,46.3,599,46.9,599.4,47.7z
	 M610.1,47.7L610.1,47.7l-1.4,0.9l0,0c-0.3-0.6-0.7-1-1.2-1.3s-1.1-0.5-1.7-0.5c-0.5,0-0.9,0.1-1.3,0.3c-0.4,0.2-0.7,0.4-1,0.7
	s-0.5,0.7-0.7,1.1c-0.2,0.4-0.3,0.8-0.3,1.3c0,0.4,0.1,0.9,0.3,1.3c0.2,0.4,0.4,0.7,0.7,1s0.6,0.5,1,0.7s0.8,0.3,1.3,0.3
	c0.6,0,1.1-0.1,1.6-0.4c0.5-0.3,0.9-0.7,1.2-1.2l0,0l1.4,0.8l0,0c-0.2,0.4-0.5,0.7-0.8,1s-0.6,0.5-1,0.7c-0.8,0.4-1.6,0.6-2.5,0.6
	c-0.6,0-1.2-0.1-1.8-0.4c-0.6-0.2-1.1-0.6-1.6-1s-0.8-0.9-1.1-1.5s-0.4-1.2-0.4-1.9c0-0.4,0.1-0.8,0.2-1.2c0.2-0.8,0.6-1.5,1.2-2.1
	c0.1-0.2,0.3-0.3,0.5-0.4c0.2-0.1,0.3-0.3,0.5-0.4c0.4-0.2,0.7-0.4,1.2-0.5c0.4-0.1,0.9-0.2,1.3-0.2c1,0,1.8,0.2,2.6,0.7
	C609.1,46.3,609.7,46.9,610.1,47.7z M616.1,53.2c0.6,0,1.2-0.2,1.7-0.5c0.5-0.4,0.8-0.9,1-1.5l1.6,0.3c-0.2,0.5-0.4,1-0.7,1.4
	s-0.6,0.8-1,1.1s-0.8,0.5-1.2,0.7s-0.9,0.2-1.4,0.2c-0.7,0-1.4-0.1-1.9-0.3c-0.6-0.2-1-0.5-1.4-0.9c-0.8-0.8-1.2-1.9-1.2-3.4
	c0-0.7,0.1-1.3,0.3-1.9c0.2-0.6,0.6-1.1,1-1.6c0.4-0.4,0.9-0.8,1.4-1c0.6-0.3,1.2-0.4,1.8-0.4s1.1,0.1,1.6,0.3s1,0.5,1.4,0.9
	s0.7,0.9,1,1.4s0.4,1.1,0.5,1.7l-7.2,1.1c0,0.4,0.1,0.7,0.3,1.1c0.2,0.3,0.4,0.6,0.6,0.8C614.7,53,615.3,53.2,616.1,53.2z
	 M613.4,49.2l5-0.6v-0.2c-0.2-0.5-0.5-1-0.9-1.3s-0.8-0.5-1.4-0.5c-0.2,0-0.5,0-0.8,0.1s-0.5,0.2-0.8,0.4s-0.5,0.5-0.7,0.8
	C613.6,48.3,613.5,48.7,613.4,49.2z M630.2,52.2c0,0.5-0.1,1-0.3,1.3c-0.2,0.4-0.5,0.6-0.9,0.9c-0.4,0.2-0.8,0.4-1.2,0.5
	c-0.5,0.1-0.9,0.2-1.4,0.2s-1-0.1-1.5-0.2c-0.4-0.1-0.9-0.2-1.5-0.4c-0.5-0.2-1-0.5-1.5-0.8l0.8-1.3c0.3,0.2,0.6,0.3,0.9,0.5
	c0.3,0.1,0.6,0.3,1,0.4c0.3,0.1,0.7,0.2,1,0.3s0.7,0.1,1.1,0.1c0.5,0,0.9-0.1,1.2-0.3s0.5-0.4,0.6-0.6c0.1-0.3,0-0.7-0.3-1
	c-0.1-0.1-0.1-0.1-0.2-0.1c-0.1,0-0.2-0.1-0.2-0.1c-0.2-0.1-0.4-0.2-0.6-0.2c-0.3-0.1-0.6-0.1-0.9-0.1c-0.5,0-1-0.1-1.4-0.1
	c-0.5-0.1-0.9-0.2-1.2-0.4c-0.4-0.2-0.7-0.4-0.9-0.7s-0.4-0.6-0.4-1.1c0-0.4,0-0.7,0.1-1.1c0.2-0.6,0.5-1.2,1.1-1.6
	c0.1-0.1,0.3-0.2,0.4-0.3c0.1-0.1,0.3-0.2,0.5-0.2c0.3-0.1,0.7-0.2,1-0.3c0.4-0.1,0.7-0.1,1.1-0.1c0.2,0,0.5,0,0.8,0
	s0.6,0.1,0.9,0.1c0.3,0.1,0.6,0.2,1,0.3c0.3,0.1,0.6,0.3,0.9,0.5l-0.6,1.5c-0.4-0.2-0.7-0.3-1-0.4c-0.3-0.1-0.6-0.2-0.9-0.3
	c-0.1,0-0.3-0.1-0.4-0.1c-0.1,0-0.3,0-0.4,0c-0.9,0-1.5,0-2,0.3c-0.5,0.2-0.7,0.6-0.7,1.1c0,0.3,0.1,0.6,0.3,0.7
	c0.2,0.1,0.4,0.3,0.7,0.3c0.2,0,0.4,0.1,0.7,0.1s0.6,0,0.9,0.1c0.3,0,0.6,0.1,0.9,0.1c0.5,0.1,1,0.2,1.4,0.4s0.7,0.4,0.9,0.6
	c0.2,0.2,0.4,0.5,0.5,0.7C630.1,51.6,630.2,51.9,630.2,52.2z M639.9,52.2c0,0.5-0.1,1-0.3,1.3c-0.2,0.4-0.5,0.6-0.9,0.9
	c-0.4,0.2-0.8,0.4-1.2,0.5c-0.5,0.1-0.9,0.2-1.4,0.2s-1-0.1-1.5-0.2c-0.4-0.1-0.9-0.2-1.5-0.4c-0.5-0.2-1-0.5-1.5-0.8l0.8-1.3
	c0.3,0.2,0.6,0.3,0.9,0.5c0.3,0.1,0.6,0.3,1,0.4c0.3,0.1,0.7,0.2,1,0.3s0.7,0.1,1.1,0.1c0.5,0,0.9-0.1,1.2-0.3s0.5-0.4,0.6-0.6
	c0.1-0.3,0-0.7-0.3-1c-0.1-0.1-0.1-0.1-0.2-0.1c-0.1,0-0.2-0.1-0.2-0.1c-0.2-0.1-0.4-0.2-0.6-0.2c-0.3-0.1-0.6-0.1-0.9-0.1
	c-0.5,0-1-0.1-1.4-0.1c-0.5-0.1-0.9-0.2-1.2-0.4c-0.4-0.2-0.7-0.4-0.9-0.7s-0.4-0.6-0.4-1.1c0-0.4,0-0.7,0.1-1.1
	c0.2-0.6,0.5-1.2,1.1-1.6c0.1-0.1,0.3-0.2,0.4-0.3c0.1-0.1,0.3-0.2,0.5-0.2c0.3-0.1,0.7-0.2,1-0.3c0.4-0.1,0.7-0.1,1.1-0.1
	c0.2,0,0.5,0,0.8,0s0.6,0.1,0.9,0.1c0.3,0.1,0.6,0.2,1,0.3c0.3,0.1,0.6,0.3,0.9,0.5l-0.6,1.5c-0.4-0.2-0.7-0.3-1-0.4
	c-0.3-0.1-0.6-0.2-0.9-0.3c-0.2,0-0.3-0.1-0.4-0.1c-0.1,0-0.3,0-0.4,0c-0.9,0-1.5,0-2,0.3c-0.5,0.2-0.7,0.6-0.7,1.1
	c0,0.3,0.1,0.6,0.3,0.7c0.2,0.1,0.4,0.3,0.7,0.3c0.2,0,0.4,0.1,0.7,0.1s0.6,0,0.9,0.1c0.3,0,0.6,0.1,0.9,0.1c0.5,0.1,1,0.2,1.4,0.4
	s0.7,0.4,0.9,0.6c0.2,0.2,0.4,0.5,0.5,0.7C639.9,51.6,639.9,51.9,639.9,52.2z M644.3,42.9c0,0.3-0.1,0.6-0.4,0.8
	c-0.2,0.2-0.5,0.3-0.8,0.3s-0.6-0.1-0.8-0.3s-0.3-0.5-0.3-0.8s0.1-0.6,0.3-0.8s0.5-0.4,0.8-0.4s0.6,0.1,0.8,0.4
	C644.2,42.3,644.3,42.6,644.3,42.9z M642.2,45.9l1.7-0.1l-0.1,4c0,1.1,0,2,0,2.6c0,0.8,0,1.4,0,1.8h-1.7c0-0.3,0-0.6,0-1
	s0-0.7,0-1.2c0-0.7,0-1.6,0-2.6L642.2,45.9z M646.8,54.4l-0.1-12.8l1.8-0.1v4.9c0.3-0.3,0.7-0.5,1-0.7s0.7-0.3,1-0.4
	c0.4-0.1,0.7-0.2,1-0.2c0.4,0,0.8,0.1,1.1,0.2c0.7,0.2,1.4,0.6,2,1.2c0.3,0.3,0.5,0.6,0.7,0.9c0.2,0.3,0.4,0.7,0.5,1.1
	c0.1,0.4,0.2,0.8,0.1,1.2c0,0.5-0.1,0.9-0.2,1.3c-0.3,0.8-0.7,1.5-1.2,2.1c-0.3,0.3-0.6,0.5-0.9,0.7c-0.6,0.4-1.3,0.6-2,0.6
	c-0.2,0-0.3,0-0.5,0s-0.3-0.1-0.5-0.1c-0.3-0.1-0.7-0.2-1-0.4c-0.4-0.2-0.7-0.4-1.1-0.7v1.1L646.8,54.4z M654,50
	c0-0.4,0-0.8-0.2-1.2c-0.1-0.4-0.3-0.7-0.6-1s-0.6-0.5-0.9-0.7c-0.4-0.2-0.7-0.3-1.2-0.2c-0.7,0-1.3,0.2-1.8,0.6
	c-0.5,0.4-0.9,0.9-1.1,1.5v2c0.2,0.7,0.5,1.2,1,1.6c0.5,0.4,1,0.6,1.7,0.6c0.4,0,0.8-0.1,1.1-0.2c0.4-0.2,0.7-0.4,0.9-0.6
	c0.3-0.3,0.5-0.6,0.6-1C653.9,50.8,654,50.4,654,50z M661.5,52.8l-0.2,1.7c-0.4,0-0.7-0.1-1-0.2c-0.3-0.1-0.6-0.3-0.8-0.5
	s-0.4-0.4-0.6-0.7c-0.2-0.3-0.3-0.5-0.4-0.8c-0.3-0.6-0.4-1.3-0.5-2.1l0.2-10.5h1.7l-0.1,2.7c0,0.4,0,0.8,0,1.2s0,0.7,0,1.1
	c0,0.7,0,1.3,0,1.8s0,1,0,1.4c0,1,0,1.7-0.1,2.2c0,0.5,0.1,1,0.2,1.4c0.1,0.4,0.3,0.7,0.6,1C660.7,52.6,661,52.7,661.5,52.8z
	 M667.1,53.2c0.6,0,1.2-0.2,1.7-0.5c0.5-0.4,0.8-0.9,1-1.5l1.6,0.3c-0.2,0.5-0.4,1-0.7,1.4s-0.6,0.8-1,1.1s-0.8,0.5-1.2,0.7
	s-0.9,0.2-1.4,0.2c-0.7,0-1.4-0.1-1.9-0.3c-0.6-0.2-1-0.5-1.4-0.9c-0.8-0.8-1.2-1.9-1.2-3.4c0-0.7,0.1-1.3,0.3-1.9
	c0.2-0.6,0.6-1.1,1-1.6c0.4-0.4,0.9-0.8,1.4-1c0.6-0.3,1.2-0.4,1.8-0.4s1.1,0.1,1.6,0.3s1,0.5,1.4,0.9s0.7,0.9,1,1.4
	s0.4,1.1,0.5,1.7l-7.2,1.1c0,0.4,0.1,0.7,0.3,1.1c0.2,0.3,0.4,0.6,0.6,0.8C665.7,53,666.3,53.2,667.1,53.2z M664.4,49.2l5-0.6v-0.2
	c-0.2-0.5-0.5-1-0.9-1.3s-0.8-0.5-1.4-0.5c-0.2,0-0.5,0-0.8,0.1s-0.5,0.2-0.8,0.4s-0.5,0.5-0.7,0.8
	C664.6,48.3,664.5,48.7,664.4,49.2z M686.8,46.2l0.1-4.3l1.6,0.1v12.2h-1.7v-1.1c-0.3,0.3-0.6,0.5-1,0.7s-0.7,0.3-1,0.4
	c-0.3,0.1-0.7,0.1-1,0.1c-1.3,0-2.4-0.4-3.2-1.3c-0.4-0.4-0.7-0.9-1-1.5c-0.2-0.6-0.3-1.3-0.3-2c0-0.8,0.1-1.4,0.4-2
	c0.3-0.6,0.6-1.1,1-1.5s0.9-0.7,1.4-0.9s1.1-0.3,1.6-0.3c0.4,0,0.7,0.1,1.1,0.1c0.3,0.1,0.7,0.2,1.1,0.4
	C686.1,45.6,686.5,45.9,686.8,46.2z M683.7,53c0.7,0,1.3-0.2,1.9-0.6c0.6-0.4,1-1,1.2-1.7v-1.8c-0.1-0.4-0.3-0.7-0.5-1
	s-0.5-0.6-0.7-0.8c-0.6-0.4-1.2-0.7-2-0.7c-0.4,0-0.8,0.1-1.1,0.3s-0.6,0.4-0.9,0.7c-0.2,0.3-0.4,0.6-0.6,1
	c-0.1,0.4-0.2,0.8-0.2,1.3s0.1,0.9,0.2,1.3c0.1,0.4,0.3,0.7,0.6,1c0.2,0.3,0.5,0.5,0.9,0.7C682.9,52.9,683.3,53,683.7,53z
	 M695.2,53.2c0.6,0,1.2-0.2,1.7-0.5c0.5-0.4,0.8-0.9,1-1.5l1.6,0.3c-0.2,0.5-0.4,1-0.7,1.4s-0.6,0.8-1,1.1s-0.8,0.5-1.2,0.7
	s-0.9,0.2-1.4,0.2c-0.7,0-1.4-0.1-1.9-0.3c-0.6-0.2-1-0.5-1.4-0.9c-0.8-0.8-1.2-1.9-1.2-3.4c0-0.7,0.1-1.3,0.3-1.9
	c0.2-0.6,0.6-1.1,1-1.6c0.4-0.4,0.9-0.8,1.4-1c0.6-0.3,1.2-0.4,1.8-0.4s1.1,0.1,1.6,0.3s1,0.5,1.4,0.9s0.7,0.9,1,1.4
	s0.4,1.1,0.5,1.7l-7.2,1.1c0,0.4,0.1,0.7,0.3,1.1c0.2,0.3,0.4,0.6,0.6,0.8C693.9,53,694.5,53.2,695.2,53.2z M692.5,49.2l5-0.6v-0.2
	c-0.2-0.5-0.5-1-0.9-1.3s-0.8-0.5-1.4-0.5c-0.2,0-0.5,0-0.8,0.1s-0.5,0.2-0.8,0.4s-0.5,0.5-0.7,0.8
	C692.8,48.3,692.6,48.7,692.5,49.2z M709.3,52.2c0,0.5-0.1,1-0.3,1.3c-0.2,0.4-0.5,0.6-0.9,0.9c-0.4,0.2-0.8,0.4-1.2,0.5
	c-0.5,0.1-0.9,0.2-1.4,0.2s-1-0.1-1.5-0.2c-0.4-0.1-0.9-0.2-1.5-0.4c-0.5-0.2-1-0.5-1.5-0.8l0.8-1.3c0.3,0.2,0.6,0.3,0.9,0.5
	c0.3,0.1,0.6,0.3,1,0.4c0.3,0.1,0.7,0.2,1,0.3s0.7,0.1,1.1,0.1c0.5,0,0.9-0.1,1.2-0.3s0.5-0.4,0.6-0.6c0.1-0.3,0-0.7-0.3-1
	c-0.1-0.1-0.1-0.1-0.2-0.1c-0.1,0-0.2-0.1-0.2-0.1c-0.2-0.1-0.4-0.2-0.6-0.2c-0.3-0.1-0.6-0.1-0.9-0.1c-0.5,0-1-0.1-1.4-0.1
	c-0.5-0.1-0.9-0.2-1.2-0.4c-0.4-0.2-0.7-0.4-0.9-0.7s-0.4-0.6-0.4-1.1c0-0.4,0-0.7,0.1-1.1c0.2-0.6,0.5-1.2,1.1-1.6
	c0.1-0.1,0.3-0.2,0.4-0.3c0.2-0.1,0.3-0.2,0.5-0.2c0.3-0.1,0.7-0.2,1-0.3c0.4-0.1,0.7-0.1,1.1-0.1c0.2,0,0.5,0,0.8,0
	s0.6,0.1,0.9,0.1c0.3,0.1,0.6,0.2,1,0.3c0.3,0.1,0.6,0.3,0.9,0.5l-0.6,1.5c-0.4-0.2-0.7-0.3-1-0.4c-0.3-0.1-0.6-0.2-0.9-0.3
	c-0.1,0-0.3-0.1-0.4-0.1c-0.1,0-0.3,0-0.4,0c-0.9,0-1.5,0-2,0.3c-0.5,0.2-0.7,0.6-0.7,1.1c0,0.3,0.1,0.6,0.3,0.7
	c0.2,0.1,0.4,0.3,0.7,0.3c0.2,0,0.4,0.1,0.7,0.1s0.6,0,0.9,0.1c0.3,0,0.6,0.1,0.9,0.1c0.5,0.1,1,0.2,1.4,0.4s0.7,0.4,0.9,0.6
	c0.2,0.2,0.4,0.5,0.5,0.7C709.3,51.6,709.3,51.9,709.3,52.2z M713.7,42.9c0,0.3-0.1,0.6-0.4,0.8c-0.2,0.2-0.5,0.3-0.8,0.3
	s-0.6-0.1-0.8-0.3s-0.3-0.5-0.3-0.8s0.1-0.6,0.3-0.8s0.5-0.4,0.8-0.4s0.6,0.1,0.8,0.4C713.6,42.3,713.7,42.6,713.7,42.9z
	 M711.6,45.9l1.7-0.1l-0.1,4c0,1.1,0,2,0,2.6c0,0.8,0,1.4,0,1.8h-1.7c0-0.3,0-0.6,0-1s0-0.7,0-1.2c0-0.7,0-1.6,0-2.6L711.6,45.9z
	 M723.2,46.4v-1.7h1.6l-0.1,9.5c0,0.2,0,0.4,0,0.5c0,0.2-0.1,0.4-0.1,0.5c-0.2,0.7-0.5,1.4-1,2c-0.3,0.3-0.6,0.6-0.9,0.8
	c-0.3,0.2-0.7,0.4-1.1,0.6c-0.4,0.1-0.9,0.2-1.4,0.3c-0.7,0-1.3,0-1.9-0.2c-0.5-0.1-1.1-0.4-1.6-0.8c-0.5-0.4-0.9-0.9-1.1-1.5
	l1.6-0.7c0.2,0.4,0.5,0.8,0.8,1c0.4,0.2,0.7,0.4,1.1,0.5c0.4,0.1,0.8,0.1,1.3,0c0.2,0,0.4-0.1,0.5-0.1c0.2-0.1,0.3-0.1,0.5-0.2
	c0.3-0.2,0.5-0.3,0.7-0.5s0.4-0.4,0.5-0.6c0.1-0.1,0.1-0.2,0.2-0.3c0-0.1,0.1-0.2,0.1-0.3c0.1-0.2,0.1-0.4,0.1-0.5
	c0-0.2,0-0.3,0-0.4v-1.1c-0.3,0.3-0.7,0.6-1,0.7c-0.4,0.2-0.7,0.3-1,0.4c-0.2,0-0.4,0.1-0.5,0.1c-0.2,0-0.3,0-0.5,0
	c-1.3,0-2.4-0.4-3.2-1.3c-0.4-0.4-0.7-0.9-1-1.5c-0.2-0.6-0.3-1.3-0.3-2c0-0.8,0.1-1.4,0.4-2c0.3-0.6,0.6-1.1,1-1.5s0.9-0.7,1.4-0.9
	s1.1-0.3,1.6-0.3c0.4,0,0.8,0.1,1.1,0.2c0.3,0.1,0.7,0.3,1.1,0.4C722.5,45.8,722.8,46.1,723.2,46.4z M720,52.9c0.7,0,1.4-0.2,2-0.7
	c0.3-0.2,0.5-0.5,0.7-0.8s0.3-0.7,0.4-1.1v-1.1c-0.1-0.4-0.2-0.7-0.4-1.1c-0.2-0.3-0.4-0.6-0.7-0.8c-0.6-0.5-1.3-0.7-2-0.7
	c-0.4,0-0.8,0.1-1.1,0.2c-0.3,0.2-0.6,0.4-0.9,0.7c-0.2,0.3-0.4,0.6-0.6,1c-0.1,0.4-0.2,0.8-0.2,1.3s0.1,0.9,0.2,1.3
	c0.1,0.4,0.3,0.7,0.6,1c0.2,0.3,0.5,0.5,0.9,0.6C719.2,52.8,719.6,52.9,720,52.9z M729.6,54.4l-1.8,0.2l-0.2-4.7c0-0.3,0-0.7,0-1
	c0-0.4,0-0.7,0-1s0-0.6,0-0.8c0-0.8,0-1.4,0-1.8h1.9v2.4c0.2-0.3,0.4-0.6,0.6-0.9c0.2-0.3,0.5-0.5,0.8-0.7s0.6-0.4,0.9-0.5
	c0.3-0.1,0.6-0.2,1-0.2s0.8,0,1.1,0.1s0.6,0.2,0.8,0.4s0.4,0.4,0.5,0.6c0.1,0.2,0.3,0.5,0.3,0.7c0.1,0.3,0.1,0.5,0.2,0.8
	c0,0.3,0.1,0.5,0.1,0.7c0,1,0,1.9,0,2.9s0,2-0.1,3l-1.7-0.1c0-0.9,0.1-1.8,0.1-2.7s0-1.8,0-2.7c0-0.2,0-0.4-0.1-0.7
	c0-0.3-0.1-0.5-0.2-0.8c-0.1-0.2-0.2-0.3-0.3-0.5c-0.1-0.1-0.3-0.2-0.5-0.3s-0.4-0.1-0.7,0c-0.4,0.1-0.9,0.4-1.3,1
	c-0.4,0.6-0.9,1.4-1.5,2.5l0.1,2.1c0,0.3,0,0.5,0,0.7s0,0.4,0,0.5C729.6,54.1,729.6,54.3,729.6,54.4z"/>
<path class="st1" d="M517.3,14.2L517.3,14.2l-1.9,1.2v-0.1c-0.4-0.8-1-1.4-1.7-1.9s-1.5-0.7-2.4-0.7c-0.6,0-1.2,0.1-1.8,0.4
	c-0.6,0.2-1,0.6-1.5,1c-0.4,0.4-0.8,0.9-1,1.5c-0.2,0.6-0.4,1.2-0.4,1.8s0.1,1.2,0.4,1.8c0.2,0.6,0.6,1.1,1,1.5s0.9,0.8,1.5,1
	s1.2,0.4,1.8,0.4c0.8,0,1.6-0.2,2.3-0.6s1.3-1,1.7-1.7v-0.1l2,1.2V21c-0.3,0.5-0.7,1-1.1,1.4c-0.4,0.4-0.9,0.8-1.4,1.1
	c-1.1,0.6-2.3,0.9-3.5,0.9c-0.9,0-1.7-0.2-2.6-0.5c-0.8-0.3-1.6-0.8-2.2-1.4s-1.2-1.3-1.5-2.2c-0.4-0.8-0.6-1.7-0.6-2.7
	c0-0.6,0.1-1.2,0.2-1.7c0.3-1.2,0.9-2.2,1.7-3c0.2-0.2,0.4-0.4,0.7-0.6c0.2-0.2,0.5-0.4,0.7-0.5c0.5-0.3,1.1-0.5,1.7-0.7
	s1.2-0.3,1.9-0.3c1.3,0,2.6,0.3,3.6,0.9C515.9,12.1,516.8,13,517.3,14.2z M531.4,15.5l-2.3,0.9c0-0.7-0.1-1.2-0.3-1.6
	c-0.2-0.4-0.4-0.7-0.7-0.9s-0.6-0.3-0.9-0.3c-0.2,0-0.5,0.1-0.7,0.3c-0.2,0.1-0.5,0.3-0.8,0.6c-0.3,0.2-0.5,0.5-0.8,0.8
	c-0.1,0.1-0.3,0.3-0.4,0.5s-0.3,0.3-0.4,0.5c-0.2,0.3-0.5,0.6-0.7,0.9s-0.4,0.6-0.6,0.9c0,0.3,0,0.7,0,1.1s0,0.8,0,1.2
	c0,0.4,0,0.7,0,1c0,0.5,0,0.9,0,1.3s0,0.7,0.1,0.9l-2.5,0.3l-0.2-6.6c0-0.4,0-0.9,0-1.4s0-1,0-1.5s0-0.8,0-1.1
	c0-1.1-0.1-1.9-0.1-2.5h2.7c0,0.2,0,0.5,0,0.7s0,0.5,0,0.7c0,0.3,0,0.5,0,0.7s0,0.4,0,0.6c0,0.2,0,0.5,0,0.7s0,0.5,0,0.7
	c0.2-0.4,0.5-0.8,0.8-1.2s0.7-0.8,1.1-1.2c0.4-0.4,0.9-0.7,1.3-1c0.5-0.3,1-0.5,1.6-0.5s1.2,0.1,1.7,0.4c0.2,0.1,0.4,0.3,0.6,0.5
	c0.2,0.2,0.4,0.5,0.6,0.8c0.2,0.3,0.3,0.7,0.5,1.2C531.2,14.4,531.3,14.9,531.4,15.5z M545.5,17.3c0,1-0.2,1.9-0.5,2.7
	c-0.3,0.8-0.8,1.6-1.3,2.2c-0.6,0.6-1.2,1.1-2,1.4c-0.8,0.4-1.6,0.5-2.4,0.5c-1.8,0-3.2-0.6-4.4-1.9c-0.6-0.6-1-1.3-1.3-2.2
	c-0.3-0.8-0.5-1.8-0.5-2.8s0.2-2,0.5-2.8c0.3-0.9,0.8-1.6,1.3-2.2c0.6-0.6,1.2-1.1,2-1.4c0.8-0.3,1.6-0.5,2.4-0.5s1.7,0.2,2.4,0.5
	c0.8,0.3,1.4,0.8,2,1.4c0.6,0.6,1,1.3,1.3,2.2C545.4,15.4,545.5,16.3,545.5,17.3z M543.1,17.3c0-0.6-0.1-1.1-0.2-1.7
	c-0.1-0.6-0.4-1.1-0.7-1.5c-0.3-0.5-0.7-0.8-1.2-1.1s-1.1-0.4-1.8-0.4s-1.2,0.1-1.7,0.4c-0.5,0.3-0.9,0.7-1.2,1.1
	c-0.3,0.5-0.5,1-0.7,1.5c-0.1,0.6-0.2,1.1-0.2,1.7s0.1,1.1,0.2,1.7c0.2,0.6,0.4,1.1,0.7,1.5c0.3,0.5,0.7,0.8,1.2,1.1
	c0.5,0.3,1,0.4,1.7,0.4s1.2-0.1,1.7-0.4s0.9-0.7,1.2-1.1c0.3-0.5,0.5-1,0.7-1.5C543,18.4,543.1,17.9,543.1,17.3z M559.4,20.4
	c0,0.7-0.1,1.4-0.4,1.9c-0.3,0.5-0.7,0.9-1.2,1.2c-0.5,0.3-1.1,0.5-1.7,0.7c-0.7,0.2-1.3,0.3-2,0.3s-1.5-0.1-2.2-0.2
	c-0.6-0.1-1.3-0.3-2.1-0.6c-0.8-0.3-1.5-0.7-2.1-1.2l1.1-1.8c0.4,0.2,0.9,0.4,1.3,0.7c0.5,0.2,0.9,0.4,1.4,0.6s1,0.3,1.4,0.4
	c0.5,0.1,1,0.1,1.5,0.1c0.7,0,1.3-0.1,1.7-0.4s0.7-0.6,0.8-0.9c0.1-0.5,0-0.9-0.4-1.3c-0.1-0.1-0.2-0.1-0.3-0.2s-0.2-0.1-0.3-0.2
	c-0.3-0.1-0.6-0.2-0.9-0.3c-0.4-0.1-0.8-0.1-1.3-0.2c-0.7,0-1.4-0.1-2-0.2s-1.2-0.3-1.7-0.5s-0.9-0.6-1.3-0.9
	c-0.3-0.4-0.5-0.9-0.6-1.5c-0.1-0.5,0-1.1,0.1-1.5c0.3-0.9,0.8-1.6,1.5-2.2c0.2-0.1,0.4-0.3,0.6-0.4c0.2-0.1,0.4-0.2,0.7-0.3
	c0.5-0.2,0.9-0.3,1.4-0.4c0.5-0.1,1-0.1,1.5-0.1c0.3,0,0.7,0,1.1,0c0.4,0,0.8,0.1,1.3,0.2c0.5,0.1,0.9,0.2,1.4,0.4s0.9,0.4,1.3,0.7
	l-0.8,2.1c-0.5-0.3-1-0.5-1.5-0.6c-0.5-0.2-0.9-0.3-1.2-0.4c-0.2,0-0.4-0.1-0.6-0.1c-0.2,0-0.4-0.1-0.6-0.1
	c-1.2-0.1-2.2,0.1-2.9,0.4c-0.7,0.3-1,0.8-1,1.5c0,0.5,0.1,0.8,0.4,1c0.3,0.2,0.6,0.4,1.1,0.5c0.3,0.1,0.6,0.1,1,0.1
	s0.8,0.1,1.3,0.1c0.4,0,0.8,0.1,1.2,0.1c0.8,0.1,1.4,0.3,1.9,0.5s0.9,0.5,1.3,0.8c0.3,0.3,0.5,0.7,0.7,1
	C559.3,19.6,559.4,20,559.4,20.4z M573.2,20.4c0,0.7-0.1,1.4-0.4,1.9c-0.3,0.5-0.7,0.9-1.2,1.2c-0.5,0.3-1.1,0.5-1.7,0.7
	c-0.7,0.2-1.3,0.3-2,0.3s-1.5-0.1-2.2-0.2c-0.6-0.1-1.3-0.3-2.1-0.6c-0.8-0.3-1.5-0.7-2.1-1.2l1.1-1.8c0.4,0.2,0.9,0.4,1.3,0.7
	c0.5,0.2,0.9,0.4,1.4,0.6s0.9,0.3,1.4,0.4s1,0.1,1.5,0.1c0.7,0,1.3-0.1,1.7-0.4s0.7-0.6,0.8-0.9c0.1-0.5,0-0.9-0.4-1.3
	c-0.1-0.1-0.2-0.1-0.3-0.2s-0.2-0.1-0.3-0.2c-0.3-0.1-0.6-0.2-0.9-0.3c-0.4-0.1-0.8-0.1-1.3-0.2c-0.7,0-1.4-0.1-2-0.2
	s-1.2-0.3-1.7-0.5s-0.9-0.6-1.3-0.9c-0.3-0.4-0.5-0.9-0.6-1.5c-0.1-0.5,0-1.1,0.1-1.5c0.3-0.9,0.8-1.6,1.5-2.2
	c0.2-0.1,0.4-0.3,0.6-0.4c0.2-0.1,0.4-0.2,0.7-0.3c0.5-0.2,0.9-0.3,1.4-0.4c0.5-0.1,1-0.1,1.5-0.1c0.3,0,0.7,0,1.1,0
	c0.4,0,0.8,0.1,1.3,0.2c0.5,0.1,0.9,0.2,1.4,0.4s0.9,0.4,1.3,0.7l-0.8,2.1c-0.5-0.3-1-0.5-1.5-0.6c-0.5-0.2-0.9-0.3-1.2-0.4
	c-0.2,0-0.4-0.1-0.6-0.1c-0.2,0-0.4-0.1-0.6-0.1c-1.2-0.1-2.2,0.1-2.9,0.4c-0.7,0.3-1,0.8-1,1.5c0,0.5,0.1,0.8,0.4,1
	c0.3,0.2,0.6,0.4,1.1,0.5c0.3,0.1,0.6,0.1,1,0.1s0.8,0.1,1.3,0.1c0.4,0,0.8,0.1,1.2,0.1c0.8,0.1,1.4,0.3,1.9,0.5s0.9,0.5,1.3,0.8
	s0.6,0.7,0.7,1C573.1,19.6,573.2,20,573.2,20.4z M576,13.8l9.3-0.3V16l-9.3,0.3V13.8z M587.9,13.3v-2.2h2.8c0.1-0.8,0.3-1.6,0.5-2.4
	c0.3-0.8,0.6-1.4,1.1-2c0.4-0.6,1-1.1,1.7-1.4c0.7-0.4,1.5-0.5,2.5-0.5c0.5,0,1.1,0.1,1.6,0.3c0.6,0.2,1.1,0.5,1.7,1l-1.2,2
	c-0.4-0.3-0.8-0.5-1.2-0.6s-0.8-0.2-1.1-0.2c-0.4,0-0.7,0-1,0c-0.3,0.1-0.6,0.2-0.8,0.4c-0.2,0.2-0.5,0.4-0.6,0.7
	c-0.3,0.6-0.6,1.5-0.7,2.9h5l-0.3,2.3l-4.9-0.1v1c0,0.5,0,1,0,1.6c0,0.5,0,1.1,0,1.6v3.1c0,0.5,0,1.1,0,1.6s0,1.1,0,1.6h-2.4
	c0-0.9,0-1.6,0-2.4c0-0.7,0-1.4,0-2s0-1.2,0-1.7s0-1,0-1.4v-2.3v-0.8L587.9,13.3z M611.9,23.8h-2.7v-3.4c-0.3,0.5-0.5,0.9-0.9,1.3
	c-0.3,0.4-0.7,0.8-1.1,1.1c-0.4,0.3-0.8,0.6-1.2,0.7c-0.4,0.2-0.9,0.3-1.4,0.2c-0.7,0-1.3-0.2-1.8-0.4c-0.5-0.2-0.9-0.6-1.3-1
	c-0.3-0.4-0.6-0.9-0.8-1.4s-0.4-1.1-0.5-1.7S600,18,600,17.4s0-1.2,0-1.8c0-0.8,0-1.6,0.1-2.5c0.1-0.8,0.2-1.7,0.3-2.6l2.4,0.1
	c-0.1,1-0.2,1.8-0.3,2.6c0,0.8-0.1,1.5-0.1,2c0,0.1,0,0.3,0,0.5s0,0.3,0,0.6c0,0.4,0,0.8,0.1,1.3s0.1,0.9,0.2,1.3
	c0.1,0.4,0.3,0.8,0.5,1.2c0.2,0.4,0.5,0.6,0.8,0.8c0.3,0.2,0.7,0.3,1.1,0.2c0.6-0.1,1.2-0.5,1.9-1.2c0.7-0.8,1.3-1.9,2.1-3.4l-0.1-3
	c0-0.4,0-0.7,0-1s0-0.5,0-0.7c0-0.5,0-0.8,0-1l2.5-0.3l0.1,3.6c0,0.5,0,1.1,0,1.5c0,0.5,0,0.9,0,1.4c0,0.4,0,0.9,0,1.4s0,1,0,1.5
	s0,0.8,0,1.1c0,0.6,0,1,0,1.5C611.9,23.2,611.9,23.5,611.9,23.8z M618.5,23.6l-2.5,0.3l-0.2-6.6c0-0.4,0-0.9,0-1.4s0-1,0-1.5
	s0-0.8,0-1.1c0-1.1-0.1-1.9-0.1-2.5h2.7v3.4c0.3-0.4,0.6-0.9,0.9-1.3c0.3-0.4,0.7-0.8,1.1-1.1c0.4-0.3,0.8-0.6,1.2-0.7
	c0.4-0.2,0.9-0.3,1.4-0.3c0.6,0,1.1,0,1.6,0.2c0.4,0.1,0.8,0.3,1.1,0.6c0.3,0.2,0.6,0.5,0.8,0.9s0.4,0.7,0.5,1.1
	c0.1,0.4,0.2,0.7,0.2,1.1c0.1,0.4,0.1,0.7,0.1,1c0,1.3,0.1,2.7,0,4.1c0,1.4-0.1,2.8-0.1,4.2l-2.4-0.1c0.1-1.3,0.1-2.5,0.2-3.8
	c0.1-1.3,0.1-2.5,0-3.8c0-0.3,0-0.6-0.1-0.9c-0.1-0.4-0.2-0.7-0.3-1.1c-0.1-0.2-0.3-0.5-0.5-0.6c-0.2-0.2-0.4-0.3-0.7-0.4
	c-0.3-0.1-0.6-0.1-0.9-0.1c-0.6,0.1-1.2,0.5-1.9,1.3c-0.6,0.8-1.3,2-2.1,3.6l0.1,3c0,0.4,0,0.7,0,1s0,0.5,0,0.7
	C618.5,23.1,618.5,23.4,618.5,23.6z M643.1,14.2L643.1,14.2l-1.9,1.2v-0.1c-0.4-0.8-1-1.4-1.7-1.9s-1.5-0.7-2.4-0.7
	c-0.6,0-1.2,0.1-1.8,0.4c-0.6,0.2-1,0.6-1.5,1c-0.4,0.4-0.8,0.9-1,1.5c-0.2,0.6-0.4,1.2-0.4,1.8s0.1,1.2,0.4,1.8
	c0.2,0.6,0.6,1.1,1,1.5s0.9,0.8,1.5,1s1.2,0.4,1.8,0.4c0.8,0,1.6-0.2,2.3-0.6s1.3-1,1.7-1.7v-0.1l2,1.2V21c-0.3,0.5-0.7,1-1.1,1.4
	c-0.4,0.4-0.9,0.8-1.4,1.1c-1.1,0.6-2.3,0.9-3.5,0.9c-0.9,0-1.7-0.2-2.6-0.5c-0.8-0.3-1.6-0.8-2.2-1.4c-0.6-0.6-1.2-1.3-1.5-2.2
	c-0.4-0.8-0.6-1.7-0.6-2.7c0-0.6,0.1-1.2,0.2-1.7c0.3-1.2,0.9-2.2,1.7-3c0.2-0.2,0.4-0.4,0.7-0.6c0.2-0.2,0.5-0.4,0.7-0.5
	c0.5-0.3,1.1-0.5,1.7-0.7c0.6-0.2,1.2-0.3,1.9-0.3c1.3,0,2.6,0.3,3.6,0.9C641.8,12.1,642.6,13,643.1,14.2z M648.7,11.4l0.1-5.1
	l2.3-0.2l-0.1,5.2l4.5-0.2l-0.2,2.2l-4.4,0.1l-0.1,10.2l-2.5,0.1l0.2-10.2l-4.1,0.1v-2.2H648.7z M661.1,7.4c0,0.5-0.2,0.8-0.5,1.2
	c-0.3,0.3-0.7,0.5-1.2,0.5s-0.8-0.2-1.2-0.5c-0.3-0.3-0.5-0.7-0.5-1.2s0.2-0.9,0.5-1.2c0.3-0.3,0.7-0.5,1.2-0.5s0.9,0.2,1.2,0.5
	C660.9,6.5,661.1,6.9,661.1,7.4z M658.1,11.6l2.4-0.1l-0.1,5.6c0,1.5-0.1,2.8-0.1,3.6c0,1.1,0,1.9,0,2.5h-2.4c0-0.4,0-0.9,0-1.4
	s0-1.1,0-1.6c0-1,0-2.2,0.1-3.7L658.1,11.6z M676.1,17.3c0,1-0.2,1.9-0.5,2.7c-0.3,0.8-0.8,1.6-1.3,2.2c-0.6,0.6-1.2,1.1-2,1.4
	c-0.8,0.4-1.6,0.5-2.4,0.5c-1.8,0-3.2-0.6-4.4-1.9c-0.6-0.6-1-1.3-1.3-2.2c-0.3-0.8-0.5-1.8-0.5-2.8s0.2-2,0.5-2.8
	c0.3-0.9,0.8-1.6,1.3-2.2c0.6-0.6,1.2-1.1,2-1.4c0.8-0.3,1.6-0.5,2.4-0.5c0.9,0,1.7,0.2,2.4,0.5c0.8,0.3,1.4,0.8,2,1.4
	c0.6,0.6,1,1.3,1.3,2.2C676,15.4,676.1,16.3,676.1,17.3z M673.7,17.3c0-0.6-0.1-1.1-0.2-1.7c-0.1-0.6-0.4-1.1-0.7-1.5
	c-0.3-0.5-0.7-0.8-1.2-1.1s-1.1-0.4-1.8-0.4s-1.2,0.1-1.7,0.4c-0.5,0.3-0.9,0.7-1.2,1.1c-0.3,0.5-0.5,1-0.7,1.5
	c-0.1,0.6-0.2,1.1-0.2,1.7s0.1,1.1,0.2,1.7c0.2,0.6,0.4,1.1,0.7,1.5c0.3,0.5,0.7,0.8,1.2,1.1c0.5,0.3,1,0.4,1.7,0.4s1.2-0.1,1.7-0.4
	s0.9-0.7,1.2-1.1c0.3-0.5,0.5-1,0.7-1.5C673.6,18.4,673.7,17.9,673.7,17.3z M682.1,23.6l-2.5,0.3l-0.2-6.6c0-0.4,0-0.9,0-1.4
	s0-1,0-1.5s0-0.8,0-1.1c0-1.1-0.1-1.9-0.1-2.5h2.7v3.4c0.3-0.4,0.6-0.9,0.9-1.3c0.3-0.4,0.7-0.8,1.1-1.1c0.4-0.3,0.8-0.6,1.2-0.7
	c0.4-0.2,0.9-0.3,1.4-0.3c0.6,0,1.1,0,1.6,0.2c0.4,0.1,0.8,0.3,1.1,0.6c0.3,0.2,0.6,0.5,0.8,0.9s0.4,0.7,0.5,1.1
	c0.1,0.4,0.2,0.7,0.2,1.1c0.1,0.4,0.1,0.7,0.1,1c0,1.3,0.1,2.7,0,4.1c0,1.4-0.1,2.8-0.1,4.2l-2.4-0.1c0.1-1.3,0.1-2.5,0.2-3.8
	c0.1-1.3,0.1-2.5,0-3.8c0-0.3,0-0.6-0.1-0.9c-0.1-0.4-0.2-0.7-0.3-1.1c-0.1-0.2-0.3-0.5-0.5-0.6c-0.2-0.2-0.4-0.3-0.7-0.4
	c-0.3-0.1-0.6-0.1-0.9-0.1c-0.6,0.1-1.2,0.5-1.9,1.3c-0.6,0.8-1.3,2-2.1,3.6l0.1,3c0,0.4,0,0.7,0,1s0,0.5,0,0.7
	C682.1,23.1,682.1,23.4,682.1,23.6z M706,24.1l-2.3-0.4l0.2-1.7c-1,0.6-1.9,1.1-2.8,1.3c-0.9,0.3-1.8,0.4-2.6,0.4
	c-0.6,0-1.1-0.1-1.6-0.2s-1-0.4-1.4-0.7c-0.4-0.3-0.7-0.7-1-1.1c-0.2-0.5-0.4-1-0.4-1.7c0-0.6,0.1-1.2,0.3-1.7s0.4-0.9,0.8-1.3
	c0.3-0.4,0.7-0.7,1.2-1c0.4-0.3,0.9-0.5,1.4-0.7s1-0.3,1.6-0.4c0.6-0.1,1.1-0.1,1.7-0.1c0.5,0,1,0,1.4,0.1c0.4,0,0.8,0.1,1.2,0.2
	c-0.1-0.6-0.3-1.1-0.6-1.6c-0.2-0.5-0.5-0.9-0.9-1.2s-0.9-0.5-1.5-0.5c-0.3,0-0.7,0-1,0.1c-0.4,0.1-0.8,0.2-1.3,0.5
	c-0.5,0.2-1,0.6-1.5,1c-0.6,0.4-1.1,0.9-1.8,1.6l-1.4-1.7c0.8-0.7,1.5-1.3,2.2-1.7s1.3-0.8,1.9-1.1c0.6-0.3,1.2-0.4,1.7-0.5
	s1-0.1,1.4-0.1c0.7,0,1.4,0.1,1.9,0.4c0.6,0.2,1.1,0.6,1.5,1s0.8,0.9,1.1,1.5s0.5,1.2,0.7,1.9s0.3,1.4,0.4,2.1
	c0.1,0.7,0.1,1.4,0.1,2.1c0,0.8,0,1.6-0.1,2.4S706.1,23.1,706,24.1z M704,19.5c0-0.4,0-0.8,0-1.2c0-0.4,0-0.8-0.1-1.2
	c-0.4-0.1-0.8-0.2-1.2-0.3c-0.4-0.1-0.8-0.1-1.3-0.1c-0.7,0-1.4,0.1-2.1,0.2c-0.7,0.2-1.2,0.4-1.7,0.7c-0.5,0.3-0.8,0.7-1.1,1.1
	c-0.2,0.5-0.3,1-0.1,1.5c0.1,0.5,0.3,0.8,0.6,1s0.7,0.3,1.1,0.3c0.6,0,1.2-0.1,1.9-0.4s1.4-0.5,2.1-0.9
	C703,20.1,703.6,19.7,704,19.5z M714.9,21.2l-0.3,2.3c-0.6,0-1-0.1-1.5-0.3c-0.4-0.2-0.8-0.4-1.1-0.7c-0.3-0.3-0.6-0.6-0.8-1
	s-0.4-0.7-0.6-1.1c-0.4-0.9-0.6-1.9-0.7-3l0.3-14.9h2.4l-0.1,3.8c0,0.6,0,1.1,0,1.7c0,0.5,0,1,0,1.5c0,0.9,0,1.8-0.1,2.6
	c0,0.8,0,1.4,0,2c0,1.4-0.1,2.4-0.1,3.2c0,0.7,0.1,1.4,0.3,1.9s0.4,1,0.8,1.4C713.8,21,714.3,21.2,714.9,21.2z"/>
<linearGradient id="SVGID_1_" gradientUnits="userSpaceOnUse" x1="522.7202" y1="1275.5" x2="522.7202" y2="998" gradientTransform="matrix(1 0 0 -1 0 1458)">
	<stop  offset="0" style="stop-color:#3D1768"/>
	<stop  offset="1" style="stop-color:#3D1768;stop-opacity:0"/>
</linearGradient>
<path class="st2" d="M584,182.5C540.3,230,454.8,352,462,460"/>
<linearGradient id="SVGID_2_" gradientUnits="userSpaceOnUse" x1="487.1892" y1="1258.5" x2="487.1892" y2="988.5" gradientTransform="matrix(1 0 0 -1 0 1458)">
	<stop  offset="0" style="stop-color:#3D1768"/>
	<stop  offset="1" style="stop-color:#3D1768;stop-opacity:0"/>
</linearGradient>
<path class="st3" d="M522.5,199.5c-43.7,47.5-76.7,162-69.5,270"/>
<linearGradient id="SVGID_3_" gradientUnits="userSpaceOnUse" x1="453.7402" y1="1243" x2="453.7402" y2="972" gradientTransform="matrix(1 0 0 -1 0 1458)">
	<stop  offset="0" style="stop-color:#3D1768"/>
	<stop  offset="1" style="stop-color:#3D1768;stop-opacity:0"/>
</linearGradient>
<path class="st4" d="M471,198c-19,66-34.5,237.5-34.5,291.5"/>
<linearGradient id="SVGID_4_" gradientUnits="userSpaceOnUse" x1="362.5409" y1="1241" x2="362.5409" y2="965.5" gradientTransform="matrix(1 0 0 -1 0 1458)">
	<stop  offset="0" style="stop-color:#3D1768"/>
	<stop  offset="1" style="stop-color:#3D1768;stop-opacity:0"/>
</linearGradient>
<path class="st5" d="M303.5,192c43.7,47.5,124.7,192.5,117.5,300.5"/>
<linearGradient id="SVGID_5_" gradientUnits="userSpaceOnUse" x1="398.1216" y1="1243" x2="398.1216" y2="956" gradientTransform="matrix(1 0 0 -1 0 1458)">
	<stop  offset="0" style="stop-color:#3D1768"/>
	<stop  offset="1" style="stop-color:#3D1768;stop-opacity:0"/>
</linearGradient>
<path class="st6" d="M365,192c43.7,47.5,72.2,202,65,310"/>
<linearGradient id="SVGID_6_" gradientUnits="userSpaceOnUse" x1="424.5085" y1="1237" x2="424.5085" y2="940" gradientTransform="matrix(1 0 0 -1 0 1458)">
	<stop  offset="0" style="stop-color:#3D1768"/>
	<stop  offset="1" style="stop-color:#3D1768;stop-opacity:0"/>
</linearGradient>
<path class="st7" d="M414,195c19.3,72.3,21,253.8,21,313"/>
<radialGradient id="SVGID_7_" cx="887.6" cy="398.7011" r="1" gradientTransform="matrix(1.010334e-14 165 271 -1.659396e-14 -107596 -145865)" gradientUnits="userSpaceOnUse">
	<stop  offset="0" style="stop-color:#763CAC"/>
	<stop  offset="1" style="stop-color:#320F85;stop-opacity:0"/>
</radialGradient>
<ellipse class="st8" cx="452" cy="589" rx="271" ry="165"/>
<circle class="st9" cx="277" cy="119" r="22"/>
<circle class="st9" cx="332" cy="119" r="22"/>
<circle class="st9" cx="387" cy="119" r="22"/>
<circle class="st9" cx="445" cy="119" r="22"/>
<circle class="st9" cx="305" cy="180" r="22"/>
<circle class="st9" cx="552" cy="119" r="22"/>
<circle class="st9" cx="607" cy="119" r="22"/>
<circle class="st9" cx="497" cy="119" r="22"/>
<circle class="st9" cx="417" cy="180" r="22"/>
<circle class="st9" cx="472" cy="180" r="22"/>
<circle class="st9" cx="531" cy="180" r="22"/>
<circle class="st9" cx="586" cy="180" r="22"/>
<circle class="st9" cx="365" cy="180" r="22"/>
<g>
	<rect x="348" y="172" class="st10" width="33" height="15"/>
</g>
<rect x="267" y="105" class="st10" width="21" height="28"/>
<rect x="316" y="105" class="st10" width="32" height="28"/>
<rect x="371" y="104" class="st10" width="32" height="31"/>
<rect x="292" y="168" class="st10" width="26" height="25"/>
<rect x="539" y="107" class="st10" width="26" height="25"/>
<rect x="594" y="107" class="st10" width="26" height="25"/>
<rect x="484" y="105" class="st10" width="26" height="25"/>
<rect x="404" y="167" class="st10" width="26" height="26"/>
<rect x="459" y="168" class="st10" width="26" height="25"/>
<g>
	<rect x="512" y="175" class="st10" width="39" height="11"/>
</g>
<g>
	<rect x="569" y="175" class="st10" width="37" height="9"/>
</g>
<g>
	<rect x="429" y="109" class="st10" width="32" height="21"/>
</g>
<linearGradient id="SVGID_8_" gradientUnits="userSpaceOnUse" x1="440" y1="1010" x2="440" y2="830" gradientTransform="matrix(1 0 0 -1 0 1458)">
	<stop  offset="0" style="stop-color:#301080;stop-opacity:0.6"/>
	<stop  offset="1" style="stop-color:#7840AD;stop-opacity:0.36"/>
</linearGradient>
<circle class="st11" cx="440" cy="538" r="90"/>
<g>
	<path class="st12" d="M478.6,498.4c0,2.2-1.6,4.1-3.5,4.1h-59c-2,0-3.5-1.8-3.5-4.1c0-2.3,1.6-4.1,3.5-4.1h59
		C477,494.3,478.6,496.1,478.6,498.4z"/>
	<path class="st12" d="M478.6,580.2c0,2.2-1.6,4.1-3.5,4.1h-59c-2,0-3.5-1.8-3.5-4.1s1.6-4.1,3.5-4.1h59
		C477,576.1,478.6,578,478.6,580.2z"/>
	<path class="st13" d="M453,498.4l-34.9,40l34.9,42.8"/>
</g>
<linearGradient id="SVGID_9_" gradientUnits="userSpaceOnUse" x1="440.5" y1="1001" x2="440.5" y2="731.9999" gradientTransform="matrix(1 0 0 -1 0 1458)">
	<stop  offset="0" style="stop-color:#000000;stop-opacity:0"/>
	<stop  offset="0.4792" style="stop-color:#763CAC"/>
</linearGradient>
<path class="st14" d="M880.5,591.5c0,18.3-12.2,35.9-34.4,51.9s-54.4,30.5-94.3,42.7c-79.7,24.3-189.7,39.4-311.3,39.4
	s-231.7-15.1-311.3-39.4c-39.8-12.2-72-26.6-94.3-42.7c-22.2-16.1-34.4-33.6-34.4-51.9s12.2-35.9,34.4-51.9s54.4-30.5,94.3-42.7
	c79.7-24.3,189.7-39.4,311.3-39.4s231.7,15.1,311.3,39.4c39.8,12.2,72,26.6,94.3,42.7C868.3,555.6,880.5,573.2,880.5,591.5z"/>
<linearGradient id="SVGID_10_" gradientUnits="userSpaceOnUse" x1="445.1" y1="1001.1" x2="445.1" y2="731.9" gradientTransform="matrix(1 0 0 -1 0 1458)">
	<stop  offset="0" style="stop-color:#000000;stop-opacity:0"/>
	<stop  offset="0.4792" style="stop-color:#763CAC"/>
</linearGradient>
<path class="st15" d="M826.5,591.5c0,18.4-10.6,35.9-29.8,52c-19.3,16-47.2,30.5-81.7,42.7c-69.1,24.3-164.5,39.4-269.9,39.4
	s-200.9-15-269.9-39.4c-34.5-12.2-62.4-26.6-81.7-42.7c-19.3-16-29.8-33.6-29.8-52s10.6-35.9,29.8-52c19.3-16,47.2-30.5,81.7-42.7
	c69.1-24.3,164.5-39.4,269.9-39.4s200.9,15,269.9,39.4c34.5,12.2,62.4,26.6,81.7,42.7C815.9,555.6,826.5,573.1,826.5,591.5z"/>
<linearGradient id="SVGID_11_" gradientUnits="userSpaceOnUse" x1="455.6" y1="1001.1" x2="455.6" y2="731.9" gradientTransform="matrix(1 0 0 -1 0 1458)">
	<stop  offset="0" style="stop-color:#000000;stop-opacity:0"/>
	<stop  offset="0.4792" style="stop-color:#763CAC"/>
</linearGradient>
<path class="st16" d="M802.5,591.5c0,18.4-9.6,36-27.1,52s-42.9,30.5-74.3,42.7c-62.8,24.3-149.6,39.4-245.5,39.4
	s-182.7-15-245.5-39.4c-31.4-12.2-56.8-26.6-74.3-42.7c-17.5-16-27.1-33.6-27.1-52s9.6-36,27.1-52s42.9-30.5,74.3-42.7
	c62.8-24.3,149.6-39.4,245.5-39.4s182.7,15,245.5,39.4c31.4,12.2,56.8,26.6,74.3,42.7C792.9,555.5,802.5,573.1,802.5,591.5z"/>
<linearGradient id="SVGID_12_" gradientUnits="userSpaceOnUse" x1="445" y1="1073" x2="445" y2="798" gradientTransform="matrix(1 0 0 -1 0 1458)">
	<stop  offset="0.1979" style="stop-color:#000000;stop-opacity:0"/>
	<stop  offset="1" style="stop-color:#763CAC"/>
</linearGradient>
<path class="st17" d="M597.5,522.5c0,75.6-68.2,137-152.5,137s-152.5-61.4-152.5-137s68.2-137,152.5-137S597.5,446.9,597.5,522.5z"
	/>
<linearGradient id="SVGID_13_" gradientUnits="userSpaceOnUse" x1="444.5" y1="982" x2="444.5" y2="818" gradientTransform="matrix(1 0 0 -1 0 1458)">
	<stop  offset="0.1979" style="stop-color:#000000;stop-opacity:0"/>
	<stop  offset="1" style="stop-color:#763CAC"/>
</linearGradient>
<path class="st18" d="M591.5,558c0,22.4-16.3,42.7-42.9,57.5c-26.6,14.8-63.4,24-104.1,24s-77.5-9.2-104.1-24s-42.9-35.2-42.9-57.5
	s16.3-42.7,42.9-57.5s63.4-24,104.1-24s77.5,9.2,104.1,24C575.2,515.3,591.5,535.6,591.5,558z"/>
<linearGradient id="SVGID_14_" gradientUnits="userSpaceOnUse" x1="843.1" y1="922.7001" x2="843.1" y2="901.8321" gradientTransform="matrix(1 0 0 -1 0 1458)">
	<stop  offset="0" style="stop-color:#693B93;stop-opacity:0.53"/>
	<stop  offset="1" style="stop-color:#693B93"/>
</linearGradient>
<path class="st19" d="M853.1,545.7c0-1.6-1.7-3-4.2-3.9c0.6-3,0.3-5.5-0.8-6.2c-0.3-0.2-0.6-0.3-0.9-0.3v1.1c0.2,0,0.3,0,0.5,0.1
	c0.6,0.4,0.8,1.8,0.6,3.6c0,0.4-0.1,0.9-0.2,1.4c-0.9-0.2-1.7-0.4-2.6-0.5c-0.5-0.8-1.1-1.6-1.7-2.4c1.3-1.4,2.6-2.2,3.4-2.2v-1.1
	c-1.1,0-2.6,0.9-4.1,2.6c-1.5-1.6-3-2.5-4.1-2.5v1.1c0.8,0,2.1,0.8,3.4,2.2c-0.6,0.7-1.1,1.5-1.7,2.4c-0.9,0.1-1.7,0.3-2.6,0.5
	c-0.1-0.5-0.2-0.9-0.2-1.4c-0.2-1.8,0-3.2,0.6-3.6c0.1-0.1,0.3-0.1,0.5-0.1v-1.1c-0.3,0-0.7,0.1-0.9,0.3c-1.2,0.8-1.4,3.2-0.8,6.2
	c-2.5,0.9-4.2,2.4-4.2,3.9c0,1.6,1.7,3,4.2,3.9c-0.6,3-0.3,5.5,0.8,6.2c0.3,0.2,0.6,0.3,0.9,0.3c1.1,0,2.6-0.9,4.1-2.6
	c1.5,1.6,3,2.5,4.1,2.5c0.3,0,0.6-0.1,0.9-0.3c1.2-0.8,1.4-3.2,0.8-6.2C851.4,548.8,853.1,547.3,853.1,545.7z M847.8,542.6
	c-0.2,0.6-0.3,1.3-0.6,1.9c-0.3-0.8-0.7-1.5-1.1-2.3C846.7,542.3,847.2,542.4,847.8,542.6L847.8,542.6z M845.9,547.7
	c-0.3,0.6-0.6,1.2-1,1.8c-1.2,0.1-2.5,0.1-3.7,0c-0.7-1.2-1.3-2.4-1.8-3.7c0.5-1.3,1.1-2.5,1.8-3.7c1.2-0.1,2.5-0.1,3.7,0
	c0.3,0.6,0.7,1.2,1,1.8s0.6,1.3,0.9,1.9C846.5,546.4,846.2,547,845.9,547.7z M847.2,547c0.2,0.6,0.4,1.3,0.6,1.9
	c-0.5,0.2-1.1,0.3-1.7,0.4C846.5,548.6,846.9,547.8,847.2,547z M843.1,552.1c-0.4-0.5-0.8-1-1.1-1.5c0.4,0,0.7,0,1.1,0
	c0.4,0,0.8,0,1.1,0C843.8,551.2,843.4,551.7,843.1,552.1z M840,549.3c-0.6-0.1-1.1-0.2-1.7-0.4c0.2-0.6,0.3-1.3,0.6-1.9
	c0.2,0.4,0.3,0.8,0.5,1.1C839.6,548.6,839.8,548.9,840,549.3z M843,539.4c0.4,0.5,0.8,1,1.1,1.5c-0.4,0-0.7,0-1.1,0
	c-0.4,0-0.8,0-1.1,0C842.3,540.3,842.7,539.8,843,539.4z M840,542.2c-0.4,0.7-0.8,1.5-1.1,2.3c-0.2-0.6-0.4-1.3-0.6-1.9
	C838.9,542.4,839.4,542.3,840,542.2z M836.3,548.2c-1.5-0.7-2.4-1.7-2.4-2.4c0-0.8,0.9-1.7,2.4-2.4c0.4-0.2,0.7-0.3,1.1-0.5
	c0.2,0.9,0.5,1.9,0.9,2.9c-0.4,0.9-0.7,1.9-0.9,2.9C837.1,548.5,836.7,548.3,836.3,548.2z M838.5,555c-0.6-0.4-0.8-1.8-0.6-3.6
	c0-0.4,0.1-0.9,0.2-1.4c0.8,0.2,1.7,0.4,2.6,0.5c0.5,0.8,1.1,1.6,1.7,2.4c-1.3,1.4-2.6,2.2-3.4,2.2
	C838.8,555.1,838.6,555.1,838.5,555L838.5,555z M848.2,551.4c0.2,1.8,0,3.2-0.6,3.6c-0.1,0.1-0.3,0.1-0.5,0.1
	c-0.8,0-2.1-0.8-3.4-2.2c0.6-0.7,1.2-1.5,1.7-2.4c0.9-0.1,1.7-0.3,2.6-0.5C848.1,550.4,848.2,550.9,848.2,551.4z M849.8,548.2
	c-0.4,0.2-0.7,0.3-1.1,0.5c-0.3-1-0.6-2-0.9-2.9c0.4-1,0.7-2,0.9-2.9c0.4,0.1,0.8,0.3,1.2,0.5c1.4,0.7,2.4,1.7,2.4,2.4
	C852.2,546.5,851.2,547.4,849.8,548.2z"/>
<linearGradient id="SVGID_15_" gradientUnits="userSpaceOnUse" x1="843" y1="914.435" x2="843" y2="910.069" gradientTransform="matrix(1 0 0 -1 0 1458)">
	<stop  offset="0" style="stop-color:#693B93;stop-opacity:0.53"/>
	<stop  offset="1" style="stop-color:#693B93"/>
</linearGradient>
<path class="st20" d="M843,547.9c0.5,0,1-0.2,1.3-0.6c0.4-0.4,0.5-1,0.5-1.5c0-0.6-0.2-1.1-0.5-1.5c-0.4-0.4-0.8-0.6-1.3-0.6
	s-1,0.2-1.3,0.6c-0.4,0.4-0.5,1-0.5,1.5c0,0.6,0.2,1.1,0.5,1.5C842.1,547.7,842.5,547.9,843,547.9z"/>
<linearGradient id="SVGID_16_" gradientUnits="userSpaceOnUse" x1="777.5" y1="953" x2="777.5" y2="937.839" gradientTransform="matrix(1 0 0 -1 0 1458)">
	<stop  offset="0" style="stop-color:#693B93;stop-opacity:0.53"/>
	<stop  offset="1" style="stop-color:#693B93"/>
</linearGradient>
<path class="st21" d="M782.6,505h-10.2c-0.8,0-1.4,0.7-1.4,1.6v11.9c0,0.9,0.6,1.6,1.4,1.6h10.2c0.8,0,1.4-0.7,1.4-1.6v-11.9
	C784,505.7,783.4,505,782.6,505z M778.1,516.8c0,1.5-0.7,2.1-1.8,2.1c-1,0-1.5-0.6-1.8-1.3l1-0.7c0.2,0.4,0.4,0.7,0.8,0.7
	c0.4,0,0.7-0.2,0.7-0.9V512h1.2v4.8H778.1z M781,519c-1.1,0-1.9-0.6-2.2-1.5l1-0.7c0.3,0.5,0.6,0.9,1.2,0.9c0.5,0,0.8-0.3,0.8-0.7
	c0-0.5-0.3-0.7-0.9-0.9l-0.3-0.2c-0.9-0.4-1.5-1-1.5-2.1s0.7-1.9,1.8-1.9c0.8,0,1.3,0.3,1.7,1.1l-1,0.7c-0.2-0.4-0.4-0.6-0.8-0.6
	c-0.4,0-0.6,0.3-0.6,0.6c0,0.4,0.2,0.6,0.8,0.9l0.3,0.2c1,0.5,1.6,1,1.6,2.2C783,518.3,782.1,519,781,519z"/>
<linearGradient id="SVGID_17_" gradientUnits="userSpaceOnUse" x1="887" y1="870.225" x2="887" y2="848.0679" gradientTransform="matrix(1 0 0 -1 0 1458)">
	<stop  offset="0" style="stop-color:#693B93;stop-opacity:0.53"/>
	<stop  offset="1" style="stop-color:#693B93"/>
</linearGradient>
<path class="st22" d="M887,609.9c-0.2,0-0.5-0.1-0.7-0.2l-2.2-1.6c-0.3-0.2-0.2-0.3-0.1-0.4c0.4-0.2,0.5-0.2,1-0.6
	c0.1,0,0.1,0,0.2,0l1.7,1.2c0.1,0,0.1,0,0.2,0l6.6-4.7c0.1,0,0.1-0.1,0.1-0.2V594c0-0.1,0-0.2-0.1-0.2l-6.6-4.7c-0.1,0-0.1,0-0.2,0
	l-6.6,4.7c-0.1,0-0.1,0.1-0.1,0.2v9.4c0,0.1,0,0.2,0.1,0.2l1.8,1.3c1,0.6,1.6-0.1,1.6-0.8V595c0-0.1,0.1-0.2,0.2-0.2h0.8
	c0.1,0,0.2,0.1,0.2,0.2v9.3c0,1.6-0.7,2.5-2,2.5c-0.4,0-0.7,0-1.5-0.5l-1.7-1.2c-0.4-0.3-0.7-0.9-0.7-1.5v-9.4
	c0-0.6,0.3-1.2,0.7-1.5l6.6-4.7c0.4-0.3,1-0.3,1.4,0l6.6,4.7c0.4,0.3,0.7,0.9,0.7,1.5v9.4c0,0.6-0.3,1.2-0.7,1.5l-6.6,4.7
	C887.5,609.9,887.2,609.9,887,609.9z M892.3,600.7c0-1.8-1-2.2-3-2.5c-2.1-0.3-2.3-0.5-2.3-1.1c0-0.5,0.2-1.1,1.7-1.1
	c1.4,0,1.9,0.4,2.1,1.5c0,0.1,0.1,0.2,0.2,0.2h0.9c0.1,0,0.1,0,0.1-0.1c0,0,0.1-0.1,0-0.2c-0.1-1.9-1.2-2.8-3.3-2.8
	c-1.9,0-3,1-3,2.6c0,1.8,1.1,2.3,2.9,2.5c2.2,0.3,2.3,0.7,2.3,1.2c0,0.9-0.6,1.3-2,1.3c-1.8,0-2.1-0.5-2.3-1.6
	c0-0.1-0.1-0.2-0.2-0.2h-0.9c-0.1,0-0.2,0.1-0.2,0.2c0,1.4,0.6,3,3.5,3C891.1,603.5,892.3,602.5,892.3,600.7z"/>
<linearGradient id="SVGID_18_" gradientUnits="userSpaceOnUse" x1="771.55" y1="782.746" x2="771.55" y2="763.504" gradientTransform="matrix(1 0 0 -1 0 1458)">
	<stop  offset="0" style="stop-color:#693B93;stop-opacity:0.53"/>
	<stop  offset="1" style="stop-color:#693B93"/>
</linearGradient>
<path class="st23" d="M769,675.3c-1.7,0-3,1.6-3,3.7c0,1.2,0.5,2.3,1.3,3c-0.4,0.3-0.7,0.8-0.9,1.3s-0.3,1.1-0.3,1.7
	c0,1.2,0.5,2.3,1.3,3c-0.4,0.3-0.7,0.8-0.9,1.3s-0.3,1.1-0.3,1.7c0,2,1.4,3.7,3,3.7c1.7,0,3-1.6,3-3.7v-3.1c0.5,0.5,1.2,0.8,1.9,0.8
	c1.7,0,3-1.6,3-3.7c0-0.6-0.1-1.1-0.3-1.7c-0.2-0.5-0.5-1-0.9-1.3c0.4-0.3,0.7-0.8,0.9-1.3s0.3-1.1,0.3-1.7c0-2-1.4-3.7-3-3.7H769z
	 M767.1,678.9c0-1.3,0.9-2.3,1.9-2.3h1.9v4.6H769C768,681.2,767.1,680.2,767.1,678.9z M774,681.2h-1.9v-4.6h1.9c1,0,1.9,1,1.9,2.3
	S775,681.2,774,681.2z M767.1,684.9c0-1.3,0.9-2.3,1.9-2.3h1.9v4.6H769C768,687.2,767.1,686.2,767.1,684.9L767.1,684.9z
	 M772.1,684.9c0-1.3,0.9-2.3,1.9-2.3s1.9,1,1.9,2.3s-0.9,2.3-1.9,2.3C772.9,687.2,772.1,686.2,772.1,684.9L772.1,684.9z
	 M767.1,690.8c0-1.3,0.9-2.3,1.9-2.3h1.9v2.3c0,1.3-0.9,2.3-1.9,2.3S767.1,692.1,767.1,690.8z"/>
<linearGradient id="SVGID_19_" gradientUnits="userSpaceOnUse" x1="832.75" y1="850.4" x2="832.75" y2="834.947" gradientTransform="matrix(1 0 0 -1 0 1458)">
	<stop  offset="0" style="stop-color:#693B93;stop-opacity:0.53"/>
	<stop  offset="1" style="stop-color:#693B93"/>
</linearGradient>
<path class="st24" d="M837.3,607.6h-9.1c-1.2,0-2.3,1.2-2.3,2.6v10.2c0,1.5,1,2.6,2.3,2.6h9.1c1.2,0,2.3-1.2,2.3-2.6v-10.2
	C839.6,608.8,838.6,607.6,837.3,607.6z"/>
<path d="M833.1,611.7l-1.7,3.3l1.8,3.5v0.1l0,0l0,0l0,0l0,0h-1.3l0,0c-0.1,0-0.1,0-0.2-0.1c-0.1-0.3-0.2-0.5-0.4-0.8
	c-0.1-0.2-0.2-0.5-0.3-0.7l-0.1-0.1c-0.1-0.3-0.3-0.6-0.4-0.9l0,0c-0.1,0.3-0.2,0.6-0.4,0.9c-0.1,0.3-0.3,0.6-0.4,0.8
	c-0.1,0.3-0.3,0.6-0.4,0.8c0,0.1-0.1,0.1-0.1,0.1l0,0H828l0,0l0,0l0,0v-0.1l1.8-3.4l-1.7-3.4v-0.1l0,0l0,0h1.3h0.1c0,0,0,0,0.1,0.1
	c0.1,0.3,0.2,0.6,0.4,0.9c0.1,0.3,0.3,0.6,0.4,0.8c0.1,0.3,0.3,0.6,0.4,0.8l0,0c0.1-0.3,0.2-0.6,0.4-0.9c0.1-0.3,0.3-0.6,0.4-0.8
	c0.1-0.3,0.3-0.6,0.4-0.8c0,0,0,0,0-0.1c0,0,0,0,0.1,0h1.2l0,0C833.1,611.6,833.2,611.6,833.1,611.7
	C833.2,611.6,833.2,611.6,833.1,611.7C833.2,611.7,833.2,611.7,833.1,611.7L833.1,611.7L833.1,611.7z M835.8,618.6L835.8,618.6
	c-0.5,0-0.9-0.1-1.3-0.3c-0.4-0.2-0.7-0.5-0.9-0.9s-0.3-0.9-0.3-1.5l0,0c0-0.5,0.1-1,0.3-1.4s0.5-0.8,0.9-1l0,0
	c0.4-0.3,0.9-0.4,1.4-0.4l0,0l0,0l0,0l0,0h0.1h0.1l0,0V611c0,0,0-0.1,0.1-0.1h1.1l0,0l0,0l0,0l0,0v6.3c0,0.1,0,0.2,0,0.3v0.3v0.2
	c0,0,0,0,0,0.1l0,0c-0.3,0.1-0.6,0.3-0.9,0.3C836.4,618.6,836.1,618.6,835.8,618.6z M836.3,617.3v-2.9c0,0-0.1,0-0.2,0
	c-0.1,0-0.1,0-0.2,0c-0.2,0-0.4,0.1-0.6,0.2c-0.2,0.1-0.4,0.3-0.5,0.5s-0.2,0.5-0.2,0.8l0,0c0,0.2,0,0.5,0.1,0.7s0.1,0.3,0.3,0.5
	c0.1,0.1,0.2,0.2,0.4,0.3s0.3,0.1,0.5,0.1c0.1,0,0.2,0,0.2,0C836.2,617.4,836.2,617.4,836.3,617.3L836.3,617.3z"/>
<linearGradient id="SVGID_20_" gradientUnits="userSpaceOnUse" x1="724.7427" y1="941.9755" x2="724.7427" y2="934.3288" gradientTransform="matrix(1 0 0 -1 0 1458)">
	<stop  offset="0" style="stop-color:#693B93;stop-opacity:0.53"/>
	<stop  offset="1" style="stop-color:#693B93"/>
</linearGradient>
<path class="st25" d="M723.6,518.4c1.1-0.7,2.1-1.4,3.2-2.1c1-0.7,2.2-0.1,2.4,1.3c0.1,0.8-0.2,1.6-0.7,2c-1.9,1.3-3.8,2.6-5.8,3.9
	c-0.6,0.4-1.2,0.3-1.8-0.2s-0.7-1.2-0.6-2c0.1-0.6,0.5-1,1-1.3C722.1,519.5,722.9,519,723.6,518.4z"/>
<linearGradient id="SVGID_21_" gradientUnits="userSpaceOnUse" x1="724.8333" y1="945.8107" x2="724.8333" y2="938.1753" gradientTransform="matrix(1 0 0 -1 0 1458)">
	<stop  offset="0" style="stop-color:#693B93;stop-opacity:0.53"/>
	<stop  offset="1" style="stop-color:#693B93"/>
</linearGradient>
<path class="st26" d="M724.4,517.9c-1.1-0.7-2.1-1.4-3.2-2.2c-1-0.7-1.1-2.2-0.3-3.1c0.5-0.5,1.2-0.6,1.8-0.2
	c1.9,1.3,3.9,2.6,5.8,3.9c0.6,0.4,0.8,1.1,0.8,1.9c-0.1,0.8-0.5,1.3-1.2,1.6c-0.5,0.2-1,0-1.4-0.3
	C725.9,518.9,725.2,518.4,724.4,517.9z"/>
<linearGradient id="SVGID_22_" gradientUnits="userSpaceOnUse" x1="713.4375" y1="945.8195" x2="713.4375" y2="938.1666" gradientTransform="matrix(1 0 0 -1 0 1458)">
	<stop  offset="0" style="stop-color:#693B93;stop-opacity:0.53"/>
	<stop  offset="1" style="stop-color:#693B93"/>
</linearGradient>
<path class="st27" d="M714.7,517.4c-0.7,0.5-1.4,0.9-2.1,1.4c-0.4,0.3-0.8,0.5-1.2,0.8c-0.8,0.5-1.8,0.2-2.2-0.7s-0.2-2,0.6-2.6
	c1.9-1.3,3.8-2.6,5.7-3.9c0.6-0.4,1.2-0.3,1.7,0.1c0.6,0.5,0.8,1.2,0.6,2c-0.1,0.2-0.1,0.4-0.2,0.6c-0.2,0.3-0.4,0.5-0.7,0.7
	C716.2,516.4,715.5,516.9,714.7,517.4z"/>
<linearGradient id="SVGID_23_" gradientUnits="userSpaceOnUse" x1="713.4406" y1="941.9682" x2="713.4406" y2="934.3363" gradientTransform="matrix(1 0 0 -1 0 1458)">
	<stop  offset="0" style="stop-color:#693B93;stop-opacity:0.53"/>
	<stop  offset="1" style="stop-color:#693B93"/>
</linearGradient>
<path class="st28" d="M713.9,517.9c0.7,0.5,1.4,0.9,2,1.4c0.4,0.3,0.8,0.5,1.2,0.8c0.8,0.6,1,1.7,0.6,2.6c-0.4,0.9-1.4,1.2-2.2,0.7
	c-1.9-1.3-3.8-2.6-5.7-3.9c-0.6-0.4-0.9-1-0.8-1.8c0.1-0.8,0.5-1.4,1.2-1.6c0.2,0,0.4-0.1,0.6,0c0.3,0.1,0.6,0.2,0.8,0.3
	C712.4,516.9,713.1,517.4,713.9,517.9z"/>
<linearGradient id="SVGID_24_" gradientUnits="userSpaceOnUse" x1="127" y1="880.7" x2="127" y2="863.207" gradientTransform="matrix(1 0 0 -1 0 1458)">
	<stop  offset="0" style="stop-color:#693B93;stop-opacity:0.53"/>
	<stop  offset="1" style="stop-color:#693B93"/>
</linearGradient>
<path class="st29" d="M127,577.3c-3.9,0-7,3.9-7,8.7s3.1,8.7,7,8.7c3.9,0,7-3.9,7-8.7S130.9,577.3,127,577.3z M127.1,591.2
	c-2.3,0-4.1-2.3-4.1-5.1s1.8-5.1,4.1-5.1c1.1,0,2,0.5,2.7,1.3l-1.2,1.4l0,0c-0.4-0.5-1-0.8-1.6-0.8c-1.3,0-2.4,1.4-2.4,3.1
	c0,1.7,1.1,3.1,2.4,3.1c1.2,0,2.1-0.9,2.2-2.1H127v-2h3.8c0.1,0.3,0.1,0.7,0.1,1.1C131,589.1,129.4,591.2,127.1,591.2z"/>
<linearGradient id="SVGID_25_" gradientUnits="userSpaceOnUse" x1="34.4" y1="812.024" x2="34.4" y2="809.171" gradientTransform="matrix(1 0 0 -1 0 1458)">
	<stop  offset="0" style="stop-color:#693B93;stop-opacity:0.53"/>
	<stop  offset="1" style="stop-color:#693B93"/>
</linearGradient>
<path class="st30" d="M31.2,646h1.9v0.9H32v0.9h1.1v0.9h-1.9C31.2,648.7,31.2,646,31.2,646z M33.5,646h1.9v0.8h-1.1v0.2h1.1v1.9
	h-1.9V648h1.1v-0.2h-1.1V646z M35.7,646h1.9v0.8h-1.1v0.2h1.1v1.9h-1.9V648h1.1v-0.2h-1.1V646z"/>
<linearGradient id="SVGID_26_" gradientUnits="userSpaceOnUse" x1="34.5" y1="807.923" x2="34.5" y2="791.692" gradientTransform="matrix(1 0 0 -1 0 1458)">
	<stop  offset="0" style="stop-color:#693B93;stop-opacity:0.53"/>
	<stop  offset="1" style="stop-color:#693B93"/>
</linearGradient>
<path class="st31" d="M34.5,666.3l-5-1.6L28,650.1h13l-1.5,14.6L34.5,666.3z M30.9,656.7l0.1,1.8h5.3l-0.2,2.3l-1.7,0.5l0,0
	l-1.7-0.5l-0.1-1.4h-1.5l0.2,2.8l3.1,1l3.2-1l0.4-5v-0.5l0.3-3.6h-7.7l0.1,1.8h5.9l-0.1,1.8L30.9,656.7L30.9,656.7z"/>
<linearGradient id="SVGID_27_" gradientUnits="userSpaceOnUse" x1="193" y1="974" x2="193" y2="959.264" gradientTransform="matrix(1 0 0 -1 0 1458)">
	<stop  offset="0" style="stop-color:#693B93;stop-opacity:0.53"/>
	<stop  offset="1" style="stop-color:#693B93"/>
</linearGradient>
<path class="st32" d="M187.5,484.6h11v13.5h-11V484.6z M187,498.7h12V484h-12V498.7z M194.9,489.3
	C194.9,489.2,194.9,489.2,194.9,489.3l0.8-0.1c0,0,0.1,0,0.1,0.1v5c0,0,0,0.1-0.1,0.1h-0.8c-0.1,0-0.1,0-0.1-0.1L194.9,489.3
	L194.9,489.3L194.9,489.3z M194.8,487.8c0-0.2,0.1-0.3,0.2-0.5c0.1-0.1,0.2-0.2,0.4-0.2c0.1,0,0.3,0.1,0.4,0.2
	c0.1,0.1,0.1,0.3,0.1,0.5c0,0.1,0,0.2,0,0.3c0,0.1-0.1,0.2-0.1,0.2c0,0.1-0.1,0.1-0.2,0.1c-0.1,0-0.1,0-0.2,0c-0.1,0-0.1,0-0.2,0
	c-0.1,0-0.1-0.1-0.2-0.1s-0.1-0.1-0.1-0.2C194.8,488,194.8,487.9,194.8,487.8L194.8,487.8z M192.6,491.3c-0.1-0.7-0.5-2.2-0.6-3l0,0
	c-0.1,0.7-0.4,2-0.6,3H192.6z M191.2,492.3l-0.4,1.9c0,0,0,0.1-0.1,0.1H190c-0.1,0-0.1,0-0.1-0.1l1.4-6.3c0-0.2,0.1-0.3,0.1-0.5
	v-0.1h1c0,0,0.1,0,0.1,0.1l1.6,6.8v0.1h-0.8c0,0-0.1,0-0.1-0.1l-0.4-1.9H191.2L191.2,492.3z"/>
<linearGradient id="SVGID_28_" gradientUnits="userSpaceOnUse" x1="88.25" y1="936.682" x2="88.25" y2="921.736" gradientTransform="matrix(1 0 0 -1 0 1458)">
	<stop  offset="0" style="stop-color:#693B93;stop-opacity:0.53"/>
	<stop  offset="1" style="stop-color:#693B93"/>
</linearGradient>
<path class="st33" d="M82,522.6c0-0.3,0.1-0.6,0.3-0.9s0.5-0.4,0.7-0.4h10.5c0.1,0,0.3,0,0.4,0.1s0.2,0.2,0.3,0.3
	c0.1,0.1,0.2,0.3,0.2,0.4c0.1,0.2,0.1,0.3,0.1,0.5V535c0,0.2,0,0.3-0.1,0.5s-0.1,0.3-0.2,0.4c-0.1,0.1-0.2,0.2-0.3,0.3
	s-0.3,0.1-0.4,0.1H83.1c-0.1,0-0.3,0-0.4-0.1s-0.2-0.2-0.3-0.3c-0.1-0.1-0.2-0.3-0.2-0.4c-0.1-0.2-0.1-0.3-0.1-0.5L82,522.6
	L82,522.6z M87,527h1.7v1c0.2-0.6,0.9-1.1,1.8-1.1c1.8,0,2.2,1.2,2.2,3.3v4h-1.8v-3.5c0-1.2-0.2-1.9-0.9-1.9c-0.9,0-1.2,0.7-1.2,1.9
	v3.5H87V527z M83.8,534.1h1.8v-7.2h-1.8V534.1L83.8,534.1z M85.9,524.6c0,0.2,0,0.4-0.1,0.5s-0.1,0.3-0.3,0.5
	c-0.1,0.1-0.2,0.2-0.4,0.3c-0.1,0.1-0.3,0.1-0.5,0.1s-0.3,0-0.5-0.1c-0.1-0.1-0.3-0.2-0.4-0.3s-0.2-0.3-0.3-0.5s-0.1-0.4-0.1-0.5
	c0-0.4,0.1-0.7,0.4-1c0.2-0.3,0.5-0.4,0.8-0.4s0.6,0.1,0.8,0.4C85.8,523.9,85.9,524.2,85.9,524.6z"/>
<linearGradient id="SVGID_29_" gradientUnits="userSpaceOnUse" x1="138.9" y1="802.57" x2="138.9" y2="783.911" gradientTransform="matrix(1 0 0 -1 0 1458)">
	<stop  offset="0" style="stop-color:#693B93;stop-opacity:0.53"/>
	<stop  offset="1" style="stop-color:#693B93"/>
</linearGradient>
<path class="st34" d="M140.8,655.4l1.5,2.4l7.5-2.4 M133,674.1l4-4.6l-2.4-3 M140.1,655.4l-2.2,2.3l3.6,0.2 M131.7,655.4l0.8,1.8
	l4.3,0.3 M134,665l3.2-6.8l-9.2-0.6 M134.4,665.4l3,3.7l3.3-3.7l1-7l-4-0.2L134.4,665.4z"/>
<image style="overflow:visible;enable-background:new    ;" width="1052" height="1052" xlink:href="../../../../../../Pictures/JavaScript-logo.png"  transform="matrix(2.401077e-02 0 0 2.308409e-02 264.3703 105.8692)">
</image>
<image style="overflow:visible;" width="2048" height="2048" xlink:href="../../../../../../Pictures/Typescript_logo_2020.svg - Copie.png"  transform="matrix(1.209703e-02 0 0 1.149339e-02 320.1483 107.2308)">
</image>
<image style="overflow:visible;" width="283" height="300" xlink:href="../../../../../../Pictures/angular-icon-logo-5FC0C40EAC-seeklogo.com.png"  transform="matrix(9.964664e-02 0 0 0.1 537.9 103.0115)">
</image>
<image style="overflow:visible;" width="454" height="512" xlink:href="../../../../../../Pictures/node-js-icon-454x512-nztofx17.png"  transform="matrix(5.969171e-02 0 0 5.626158e-02 373.45 103.6085)">
</image>
<image style="overflow:visible;" width="465" height="141" xlink:href="../../../../../../Pictures/Expressjs.png"  transform="matrix(8.973194e-02 0 0 0.1021 477.6374 111.7989)">
</image>
<image style="overflow:visible;" width="1280" height="1280" xlink:href="../../../../../../Pictures/react-logo-1.png"  transform="matrix(2.315019e-02 0 0 2.189289e-02 592.1839 104)">
</image>
<image style="overflow:visible;" width="1216" height="675" xlink:href="../../../../../../Pictures/1_lnUD4nSuOkNuRhAymN7GPA.png"  transform="matrix(2.618927e-02 0 0 3.906009e-02 289.0769 167.3172)">
</image>
<image style="overflow:visible;" width="260" height="243" xlink:href="../../../../../../Pictures/163346-python-python_programming-logo-text-symbol-x350.jpg"  transform="matrix(0.1004 0 0 0.1086 352.5445 165.4143)">
</image>
<image style="overflow:visible;" width="300" height="300" xlink:href="../../../../../../Pictures/django-logo-4C5ECF7036-seeklogo.com.png"  transform="matrix(9.574987e-02 0 0 9.390443e-02 402.6375 165.4143)">
</image>
<image style="overflow:visible;" width="3000" height="1800" xlink:href="../../../../../../Pictures/AWS-Logo-halfwhite.png"  transform="matrix(9.784398e-03 0 0 1.266196e-02 457.3234 169.25)">
</image>
<image style="overflow:visible;" width="2048" height="2048" xlink:href="../../../../../../Pictures/docker-icon-2048x2048-5mc7mvtn.png"  transform="matrix(1.490556e-02 0 0 1.520739e-02 516.2367 163.9276)">
</image>
<image style="overflow:visible;" width="1982" height="1020" xlink:href="../../../../../../Pictures/cropped-devops.png"  transform="matrix(1.471813e-02 0 0 2.009804e-02 571.4143 169.25)">
</image>
<image style="overflow:visible;" width="247" height="114" xlink:href="../../../../../../Pictures/dribbble_szablon__1_1_1x.png"  transform="matrix(0.1393 0 0 0.1607 427.7919 109.5262)">
</image>
</svg>
